<svg width="397" height="269" viewBox="0 0 397 269" fill="none" xmlns="http://www.w3.org/2000/svg">
<g id="Group 24">
<g id="Group 26">
<rect id="Rectangle 3" x="0.890311" y="0.660972" width="395.844" height="268.074" rx="20.9596" stroke="#F2F2F2" strokeWidth="0.530622"/>
<path id="50,000" d="M25.4812 169.631H24.819L24.9803 168.001H27.6207V167.263H24.2671L23.953 170.37H25.3029C26.6783 170.37 27.1028 170.786 27.1028 171.457C27.1028 172.102 26.5934 172.518 25.6934 172.518C24.9718 172.518 24.3096 172.255 23.9105 171.881L23.52 172.552C24.0294 173.002 24.8614 173.274 25.7019 173.274C27.2216 173.274 27.9518 172.45 27.9518 171.423C27.9518 170.37 27.2556 169.631 25.4812 169.631ZM31.0864 173.274C32.4703 173.274 33.5061 172.17 33.5061 170.234C33.5061 168.298 32.4703 167.195 31.0864 167.195C29.6941 167.195 28.6583 168.298 28.6583 170.234C28.6583 172.17 29.6941 173.274 31.0864 173.274ZM31.0864 172.518C30.1525 172.518 29.5073 171.754 29.5073 170.234C29.5073 168.714 30.1525 167.95 31.0864 167.95C32.0118 167.95 32.6571 168.714 32.6571 170.234C32.6571 171.754 32.0118 172.518 31.0864 172.518ZM34.7904 172.093C34.4677 172.093 34.2215 172.331 34.2215 172.671C34.2215 172.925 34.3659 173.121 34.5781 173.197L34.264 174.462H34.7988L35.1979 173.282C35.3082 172.968 35.3422 172.841 35.3422 172.671C35.3422 172.34 35.113 172.093 34.7904 172.093ZM38.4737 173.274C39.8575 173.274 40.8933 172.17 40.8933 170.234C40.8933 168.298 39.8575 167.195 38.4737 167.195C37.0813 167.195 36.0455 168.298 36.0455 170.234C36.0455 172.17 37.0813 173.274 38.4737 173.274ZM38.4737 172.518C37.5398 172.518 36.8945 171.754 36.8945 170.234C36.8945 168.714 37.5398 167.95 38.4737 167.95C39.3991 167.95 40.0443 168.714 40.0443 170.234C40.0443 171.754 39.3991 172.518 38.4737 172.518ZM44.1364 173.274C45.5203 173.274 46.556 172.17 46.556 170.234C46.556 168.298 45.5203 167.195 44.1364 167.195C42.7441 167.195 41.7083 168.298 41.7083 170.234C41.7083 172.17 42.7441 173.274 44.1364 173.274ZM44.1364 172.518C43.2025 172.518 42.5573 171.754 42.5573 170.234C42.5573 168.714 43.2025 167.95 44.1364 167.95C45.0618 167.95 45.7071 168.714 45.7071 170.234C45.7071 171.754 45.0618 172.518 44.1364 172.518ZM49.7991 173.274C51.183 173.274 52.2188 172.17 52.2188 170.234C52.2188 168.298 51.183 167.195 49.7991 167.195C48.4068 167.195 47.371 168.298 47.371 170.234C47.371 172.17 48.4068 173.274 49.7991 173.274ZM49.7991 172.518C48.8653 172.518 48.22 171.754 48.22 170.234C48.22 168.714 48.8653 167.95 49.7991 167.95C50.7246 167.95 51.3698 168.714 51.3698 170.234C51.3698 171.754 50.7246 172.518 49.7991 172.518Z" fill="#969696"/>
<path id="0" d="M49.7991 215.344C51.1829 215.344 52.2187 214.24 52.2187 212.305C52.2187 210.369 51.1829 209.265 49.7991 209.265C48.4067 209.265 47.3709 210.369 47.3709 212.305C47.3709 214.24 48.4067 215.344 49.7991 215.344ZM49.7991 214.588C48.8652 214.588 48.2199 213.824 48.2199 212.305C48.2199 210.785 48.8652 210.021 49.7991 210.021C50.7245 210.021 51.3697 210.785 51.3697 212.305C51.3697 213.824 50.7245 214.588 49.7991 214.588Z" fill="#969696"/>
<path id="Mar 1 - 7" d="M82.6591 234.693L82.6506 228.75H81.9544L79.5093 232.927L77.0302 228.75H76.3341V234.693H77.1491V230.389L79.2971 233.972H79.6876L81.8356 230.363L81.8441 234.693H82.6591ZM85.9624 230.151C85.2407 230.151 84.57 230.355 84.103 230.728L84.4426 231.34C84.7907 231.043 85.3341 230.856 85.869 230.856C86.6755 230.856 87.0745 231.255 87.0745 231.942V232.104H85.7841C84.4426 232.104 83.9757 232.698 83.9757 233.42C83.9757 234.201 84.6209 234.744 85.6397 234.744C86.3444 234.744 86.8453 234.506 87.117 234.099V234.693H87.8896V231.976C87.8896 230.745 87.1934 230.151 85.9624 230.151ZM85.7756 234.116C85.1558 234.116 84.7822 233.836 84.7822 233.386C84.7822 233.004 85.0115 232.69 85.818 232.69H87.0745V233.318C86.8708 233.836 86.3868 234.116 85.7756 234.116ZM90.1789 230.949V230.194H89.3979V234.693H90.2129V232.452C90.2129 231.467 90.7563 230.932 91.6307 230.932C91.6902 230.932 91.7496 230.932 91.8175 230.941V230.151C91.0279 230.151 90.4676 230.423 90.1789 230.949ZM94.4554 228.75V229.489H95.7968V234.693H96.6373V228.75H94.4554ZM100.294 232.715H102.578V232.01H100.294V232.715ZM105.595 228.75V230.55H106.41V229.489H109.126L106.775 234.693H107.675L110.077 229.328V228.75H105.595Z" fill="#969696"/>
<path id="Mar 8 - 14" d="M138.905 234.693L138.897 228.75H138.201L135.755 232.927L133.276 228.75H132.58V234.693H133.395V230.389L135.543 233.972H135.934L138.082 230.363L138.09 234.693H138.905ZM142.208 230.151C141.487 230.151 140.816 230.355 140.349 230.728L140.689 231.34C141.037 231.043 141.58 230.856 142.115 230.856C142.922 230.856 143.321 231.255 143.321 231.942V232.104H142.03C140.689 232.104 140.222 232.698 140.222 233.42C140.222 234.201 140.867 234.744 141.886 234.744C142.59 234.744 143.091 234.506 143.363 234.099V234.693H144.136V231.976C144.136 230.745 143.439 230.151 142.208 230.151ZM142.022 234.116C141.402 234.116 141.028 233.836 141.028 233.386C141.028 233.004 141.258 232.69 142.064 232.69H143.321V233.318C143.117 233.836 142.633 234.116 142.022 234.116ZM146.425 230.949V230.194H145.644V234.693H146.459V232.452C146.459 231.467 147.002 230.932 147.877 230.932C147.936 230.932 147.996 230.932 148.064 230.941V230.151C147.274 230.151 146.714 230.423 146.425 230.949ZM154.675 231.577C155.218 231.323 155.515 230.881 155.515 230.295C155.515 229.302 154.649 228.682 153.359 228.682C152.077 228.682 151.219 229.302 151.219 230.295C151.219 230.881 151.508 231.323 152.051 231.577C151.381 231.832 151.007 232.333 151.007 233.012C151.007 234.09 151.916 234.761 153.359 234.761C154.811 234.761 155.728 234.09 155.728 233.012C155.728 232.333 155.354 231.841 154.675 231.577ZM153.359 229.37C154.157 229.37 154.683 229.735 154.683 230.329C154.683 230.915 154.182 231.28 153.359 231.28C152.544 231.28 152.06 230.915 152.06 230.329C152.06 229.735 152.561 229.37 153.359 229.37ZM153.359 234.073C152.416 234.073 151.856 233.657 151.856 232.987C151.856 232.333 152.416 231.926 153.359 231.926C154.301 231.926 154.879 232.333 154.879 232.987C154.879 233.657 154.301 234.073 153.359 234.073ZM158.861 232.715H161.145V232.01H158.861V232.715ZM163.975 228.75V229.489H165.317V234.693H166.157V228.75H163.975ZM172.628 232.503H171.498V231.212H170.7V232.503H168.417L171.329 228.75H170.412L167.372 232.639V233.233H170.675V234.693H171.498V233.233H172.628V232.503Z" fill="#969696"/>
<path id="Mar 15 - 21" d="M196.743 234.693L196.735 228.75H196.038L193.593 232.927L191.114 228.75H190.418V234.693H191.233V230.389L193.381 233.972H193.772L195.92 230.363L195.928 234.693H196.743ZM200.046 230.151C199.325 230.151 198.654 230.355 198.187 230.728L198.527 231.34C198.875 231.043 199.418 230.856 199.953 230.856C200.759 230.856 201.159 231.255 201.159 231.942V232.104H199.868C198.527 232.104 198.06 232.698 198.06 233.42C198.06 234.201 198.705 234.744 199.724 234.744C200.428 234.744 200.929 234.506 201.201 234.099V234.693H201.974V231.976C201.974 230.745 201.277 230.151 200.046 230.151ZM199.86 234.116C199.24 234.116 198.866 233.836 198.866 233.386C198.866 233.004 199.095 232.69 199.902 232.69H201.159V233.318C200.955 233.836 200.471 234.116 199.86 234.116ZM204.263 230.949V230.194H203.482V234.693H204.297V232.452C204.297 231.467 204.84 230.932 205.715 230.932C205.774 230.932 205.834 230.932 205.901 230.941V230.151C205.112 230.151 204.552 230.423 204.263 230.949ZM208.539 228.75V229.489H209.881V234.693H210.721V228.75H208.539ZM213.719 231.119H213.057L213.218 229.489H215.859V228.75H212.505L212.191 231.858H213.541C214.916 231.858 215.341 232.274 215.341 232.944C215.341 233.59 214.831 234.006 213.932 234.006C213.21 234.006 212.548 233.742 212.149 233.369L211.758 234.04C212.268 234.489 213.1 234.761 213.94 234.761C215.46 234.761 216.19 233.938 216.19 232.91C216.19 231.858 215.494 231.119 213.719 231.119ZM219.253 232.715H221.537V232.01H219.253V232.715ZM225.836 233.955L227.652 232.206C228.459 231.433 228.629 230.915 228.629 230.338C228.629 229.319 227.831 228.682 226.591 228.682C225.666 228.682 224.876 229.013 224.418 229.582L224.995 230.083C225.36 229.642 225.878 229.438 226.515 229.438C227.347 229.438 227.78 229.812 227.78 230.423C227.78 230.796 227.661 231.17 227.033 231.781L224.613 234.116V234.693H228.884V233.955H225.836ZM229.242 228.75V229.489H230.583V234.693H231.424V228.75H229.242Z" fill="#969696"/>
<path id="Mar 22 - 28" d="M254.05 234.693L254.042 228.75H253.346L250.9 232.927L248.421 228.75H247.725V234.693H248.54V230.389L250.688 233.972H251.079L253.227 230.363L253.235 234.693H254.05ZM257.353 230.151C256.632 230.151 255.961 230.355 255.494 230.728L255.834 231.34C256.182 231.043 256.725 230.856 257.26 230.856C258.067 230.856 258.466 231.255 258.466 231.942V232.104H257.175C255.834 232.104 255.367 232.698 255.367 233.42C255.367 234.201 256.012 234.744 257.031 234.744C257.736 234.744 258.236 234.506 258.508 234.099V234.693H259.281V231.976C259.281 230.745 258.585 230.151 257.353 230.151ZM257.167 234.116C256.547 234.116 256.173 233.836 256.173 233.386C256.173 233.004 256.403 232.69 257.209 232.69H258.466V233.318C258.262 233.836 257.778 234.116 257.167 234.116ZM261.57 230.949V230.194H260.789V234.693H261.604V232.452C261.604 231.467 262.147 230.932 263.022 230.932C263.081 230.932 263.141 230.932 263.209 230.941V230.151C262.419 230.151 261.859 230.423 261.57 230.949ZM267.315 233.955L269.132 232.206C269.939 231.433 270.109 230.915 270.109 230.338C270.109 229.319 269.31 228.682 268.071 228.682C267.146 228.682 266.356 229.013 265.897 229.582L266.475 230.083C266.84 229.642 267.358 229.438 267.995 229.438C268.827 229.438 269.26 229.812 269.26 230.423C269.26 230.796 269.141 231.17 268.512 231.781L266.093 234.116V234.693H270.363V233.955H267.315ZM272.19 233.955L274.007 232.206C274.814 231.433 274.984 230.915 274.984 230.338C274.984 229.319 274.186 228.682 272.946 228.682C272.021 228.682 271.231 229.013 270.773 229.582L271.35 230.083C271.715 229.642 272.233 229.438 272.87 229.438C273.702 229.438 274.135 229.812 274.135 230.423C274.135 230.796 274.016 231.17 273.387 231.781L270.968 234.116V234.693H275.238V233.955H272.19ZM278.293 232.715H280.577V232.01H278.293V232.715ZM284.876 233.955L286.692 232.206C287.499 231.433 287.669 230.915 287.669 230.338C287.669 229.319 286.871 228.682 285.631 228.682C284.706 228.682 283.916 229.013 283.458 229.582L284.035 230.083C284.4 229.642 284.918 229.438 285.555 229.438C286.387 229.438 286.82 229.812 286.82 230.423C286.82 230.796 286.701 231.17 286.073 231.781L283.653 234.116V234.693H287.923V233.955H284.876ZM292.255 231.577C292.799 231.323 293.096 230.881 293.096 230.295C293.096 229.302 292.23 228.682 290.939 228.682C289.657 228.682 288.8 229.302 288.8 230.295C288.8 230.881 289.088 231.323 289.632 231.577C288.961 231.832 288.588 232.333 288.588 233.012C288.588 234.09 289.496 234.761 290.939 234.761C292.391 234.761 293.308 234.09 293.308 233.012C293.308 232.333 292.934 231.841 292.255 231.577ZM290.939 229.37C291.737 229.37 292.264 229.735 292.264 230.329C292.264 230.915 291.763 231.28 290.939 231.28C290.124 231.28 289.64 230.915 289.64 230.329C289.64 229.735 290.141 229.37 290.939 229.37ZM290.939 234.073C289.997 234.073 289.437 233.657 289.437 232.987C289.437 232.333 289.997 231.926 290.939 231.926C291.882 231.926 292.459 232.333 292.459 232.987C292.459 233.657 291.882 234.073 290.939 234.073Z" fill="#969696"/>
<path id="Final wk" d="M316.125 229.489V228.75H311.931V234.693H312.78V232.291H315.76V231.56H312.78V229.489H316.125ZM317.526 229.328C317.848 229.328 318.077 229.09 318.077 228.784C318.077 228.496 317.84 228.266 317.526 228.266C317.212 228.266 316.974 228.504 316.974 228.801C316.974 229.098 317.212 229.328 317.526 229.328ZM317.118 234.693H317.933V230.194H317.118V234.693ZM321.892 230.151C321.179 230.151 320.602 230.414 320.27 230.873V230.194H319.489V234.693H320.304V232.375C320.304 231.399 320.865 230.881 321.731 230.881C322.503 230.881 322.945 231.314 322.945 232.197V234.693H323.76V232.104C323.76 230.779 322.987 230.151 321.892 230.151ZM326.907 230.151C326.185 230.151 325.514 230.355 325.047 230.728L325.387 231.34C325.735 231.043 326.278 230.856 326.813 230.856C327.62 230.856 328.019 231.255 328.019 231.942V232.104H326.728C325.387 232.104 324.92 232.698 324.92 233.42C324.92 234.201 325.565 234.744 326.584 234.744C327.289 234.744 327.79 234.506 328.061 234.099V234.693H328.834V231.976C328.834 230.745 328.138 230.151 326.907 230.151ZM326.72 234.116C326.1 234.116 325.727 233.836 325.727 233.386C325.727 233.004 325.956 232.69 326.762 232.69H328.019V233.318C327.815 233.836 327.331 234.116 326.72 234.116ZM330.342 234.693H331.157V228.394H330.342V234.693ZM341.072 230.194L339.731 233.793L338.398 230.194H337.71L336.352 233.776L335.044 230.194H334.272L335.944 234.693H336.725L338.041 231.28L339.34 234.693H340.121L341.802 230.194H341.072ZM346.068 234.693H347.07L344.99 232.053L346.883 230.194H345.898L343.444 232.435V228.394H342.629V234.693H343.444V233.462L344.378 232.596L346.068 234.693Z" fill="#969696"/>
<path id="100,000" d="M19.5134 125.192V125.931H20.8548V131.135H21.6953V125.192H19.5134ZM25.4234 131.203C26.8073 131.203 27.8431 130.099 27.8431 128.163C27.8431 126.228 26.8073 125.124 25.4234 125.124C24.0311 125.124 22.9953 126.228 22.9953 128.163C22.9953 130.099 24.0311 131.203 25.4234 131.203ZM25.4234 130.447C24.4895 130.447 23.8443 129.683 23.8443 128.163C23.8443 126.644 24.4895 125.88 25.4234 125.88C26.3488 125.88 26.9941 126.644 26.9941 128.163C26.9941 129.683 26.3488 130.447 25.4234 130.447ZM31.0862 131.203C32.47 131.203 33.5058 130.099 33.5058 128.163C33.5058 126.228 32.47 125.124 31.0862 125.124C29.6938 125.124 28.658 126.228 28.658 128.163C28.658 130.099 29.6938 131.203 31.0862 131.203ZM31.0862 130.447C30.1523 130.447 29.507 129.683 29.507 128.163C29.507 126.644 30.1523 125.88 31.0862 125.88C32.0116 125.88 32.6568 126.644 32.6568 128.163C32.6568 129.683 32.0116 130.447 31.0862 130.447ZM34.7901 130.023C34.4675 130.023 34.2213 130.26 34.2213 130.6C34.2213 130.855 34.3656 131.05 34.5779 131.126L34.2637 132.391H34.7986L35.1976 131.211C35.308 130.897 35.342 130.77 35.342 130.6C35.342 130.269 35.1127 130.023 34.7901 130.023ZM38.4734 131.203C39.8573 131.203 40.8931 130.099 40.8931 128.163C40.8931 126.228 39.8573 125.124 38.4734 125.124C37.0811 125.124 36.0453 126.228 36.0453 128.163C36.0453 130.099 37.0811 131.203 38.4734 131.203ZM38.4734 130.447C37.5395 130.447 36.8943 129.683 36.8943 128.163C36.8943 126.644 37.5395 125.88 38.4734 125.88C39.3988 125.88 40.0441 126.644 40.0441 128.163C40.0441 129.683 39.3988 130.447 38.4734 130.447ZM44.1362 131.203C45.52 131.203 46.5558 130.099 46.5558 128.163C46.5558 126.228 45.52 125.124 44.1362 125.124C42.7438 125.124 41.708 126.228 41.708 128.163C41.708 130.099 42.7438 131.203 44.1362 131.203ZM44.1362 130.447C43.2023 130.447 42.557 129.683 42.557 128.163C42.557 126.644 43.2023 125.88 44.1362 125.88C45.0616 125.88 45.7068 126.644 45.7068 128.163C45.7068 129.683 45.0616 130.447 44.1362 130.447ZM49.7989 131.203C51.1828 131.203 52.2185 130.099 52.2185 128.163C52.2185 126.228 51.1828 125.124 49.7989 125.124C48.4065 125.124 47.3708 126.228 47.3708 128.163C47.3708 130.099 48.4065 131.203 49.7989 131.203ZM49.7989 130.447C48.865 130.447 48.2198 129.683 48.2198 128.163C48.2198 126.644 48.865 125.88 49.7989 125.88C50.7243 125.88 51.3695 126.644 51.3695 128.163C51.3695 129.683 50.7243 130.447 49.7989 130.447Z" fill="#969696"/>
<path id="150,000" d="M20.301 83.1215V83.8601H21.6424V89.0645H22.4829V83.1215H20.301ZM25.4808 85.4902H24.8186L24.9799 83.8601H27.6203V83.1215H24.2668L23.9526 86.2288H25.3025C26.6779 86.2288 27.1024 86.6448 27.1024 87.3155C27.1024 87.9608 26.593 88.3768 25.6931 88.3768C24.9714 88.3768 24.3092 88.1136 23.9102 87.74L23.5197 88.4107C24.0291 88.8607 24.8611 89.1324 25.7016 89.1324C27.2213 89.1324 27.9514 88.3088 27.9514 87.2816C27.9514 86.2288 27.2552 85.4902 25.4808 85.4902ZM31.0861 89.1324C32.4699 89.1324 33.5057 88.0287 33.5057 86.093C33.5057 84.1573 32.4699 83.0536 31.0861 83.0536C29.6937 83.0536 28.6579 84.1573 28.6579 86.093C28.6579 88.0287 29.6937 89.1324 31.0861 89.1324ZM31.0861 88.3768C30.1522 88.3768 29.5069 87.6127 29.5069 86.093C29.5069 84.5733 30.1522 83.8092 31.0861 83.8092C32.0115 83.8092 32.6567 84.5733 32.6567 86.093C32.6567 87.6127 32.0115 88.3768 31.0861 88.3768ZM34.79 87.9523C34.4674 87.9523 34.2212 88.19 34.2212 88.5296C34.2212 88.7843 34.3655 88.9796 34.5778 89.056L34.2636 90.321H34.7985L35.1975 89.1409C35.3079 88.8267 35.3419 88.6994 35.3419 88.5296C35.3419 88.1985 35.1126 87.9523 34.79 87.9523ZM38.4733 89.1324C39.8572 89.1324 40.893 88.0287 40.893 86.093C40.893 84.1573 39.8572 83.0536 38.4733 83.0536C37.081 83.0536 36.0452 84.1573 36.0452 86.093C36.0452 88.0287 37.081 89.1324 38.4733 89.1324ZM38.4733 88.3768C37.5394 88.3768 36.8942 87.6127 36.8942 86.093C36.8942 84.5733 37.5394 83.8092 38.4733 83.8092C39.3987 83.8092 40.044 84.5733 40.044 86.093C40.044 87.6127 39.3987 88.3768 38.4733 88.3768ZM44.1361 89.1324C45.5199 89.1324 46.5557 88.0287 46.5557 86.093C46.5557 84.1573 45.5199 83.0536 44.1361 83.0536C42.7437 83.0536 41.7079 84.1573 41.7079 86.093C41.7079 88.0287 42.7437 89.1324 44.1361 89.1324ZM44.1361 88.3768C43.2022 88.3768 42.5569 87.6127 42.5569 86.093C42.5569 84.5733 43.2022 83.8092 44.1361 83.8092C45.0615 83.8092 45.7067 84.5733 45.7067 86.093C45.7067 87.6127 45.0615 88.3768 44.1361 88.3768ZM49.7988 89.1324C51.1827 89.1324 52.2184 88.0287 52.2184 86.093C52.2184 84.1573 51.1827 83.0536 49.7988 83.0536C48.4064 83.0536 47.3707 84.1573 47.3707 86.093C47.3707 88.0287 48.4064 89.1324 49.7988 89.1324ZM49.7988 88.3768C48.8649 88.3768 48.2197 87.6127 48.2197 86.093C48.2197 84.5733 48.8649 83.8092 49.7988 83.8092C50.7242 83.8092 51.3694 84.5733 51.3694 86.093C51.3694 87.6127 50.7242 88.3768 49.7988 88.3768Z" fill="#969696"/>
<path id="200,000" d="M19.2743 46.2552L21.0912 44.5063C21.8977 43.7337 22.0675 43.2158 22.0675 42.6385C22.0675 41.6197 21.2695 40.9829 20.0299 40.9829C19.1045 40.9829 18.315 41.3141 17.8565 41.8829L18.4338 42.3838C18.7989 41.9423 19.3168 41.7386 19.9535 41.7386C20.7855 41.7386 21.2185 42.1121 21.2185 42.7234C21.2185 43.0969 21.0997 43.4705 20.4714 44.0818L18.0518 46.4165V46.9938H22.3222V46.2552H19.2743ZM25.4235 47.0618C26.8074 47.0618 27.8431 45.9581 27.8431 44.0223C27.8431 42.0866 26.8074 40.9829 25.4235 40.9829C24.0312 40.9829 22.9954 42.0866 22.9954 44.0223C22.9954 45.9581 24.0312 47.0618 25.4235 47.0618ZM25.4235 46.3061C24.4896 46.3061 23.8444 45.5421 23.8444 44.0223C23.8444 42.5026 24.4896 41.7386 25.4235 41.7386C26.3489 41.7386 26.9941 42.5026 26.9941 44.0223C26.9941 45.5421 26.3489 46.3061 25.4235 46.3061ZM31.0862 47.0618C32.4701 47.0618 33.5059 45.9581 33.5059 44.0223C33.5059 42.0866 32.4701 40.9829 31.0862 40.9829C29.6939 40.9829 28.6581 42.0866 28.6581 44.0223C28.6581 45.9581 29.6939 47.0618 31.0862 47.0618ZM31.0862 46.3061C30.1523 46.3061 29.5071 45.5421 29.5071 44.0223C29.5071 42.5026 30.1523 41.7386 31.0862 41.7386C32.0116 41.7386 32.6569 42.5026 32.6569 44.0223C32.6569 45.5421 32.0116 46.3061 31.0862 46.3061ZM34.7902 45.8817C34.4676 45.8817 34.2214 46.1194 34.2214 46.459C34.2214 46.7137 34.3657 46.9089 34.5779 46.9853L34.2638 48.2503H34.7987L35.1977 47.0702C35.3081 46.7561 35.342 46.6288 35.342 46.459C35.342 46.1279 35.1128 45.8817 34.7902 45.8817ZM38.4735 47.0618C39.8574 47.0618 40.8931 45.9581 40.8931 44.0223C40.8931 42.0866 39.8574 40.9829 38.4735 40.9829C37.0811 40.9829 36.0454 42.0866 36.0454 44.0223C36.0454 45.9581 37.0811 47.0618 38.4735 47.0618ZM38.4735 46.3061C37.5396 46.3061 36.8944 45.5421 36.8944 44.0223C36.8944 42.5026 37.5396 41.7386 38.4735 41.7386C39.3989 41.7386 40.0441 42.5026 40.0441 44.0223C40.0441 45.5421 39.3989 46.3061 38.4735 46.3061ZM44.1362 47.0618C45.5201 47.0618 46.5559 45.9581 46.5559 44.0223C46.5559 42.0866 45.5201 40.9829 44.1362 40.9829C42.7439 40.9829 41.7081 42.0866 41.7081 44.0223C41.7081 45.9581 42.7439 47.0618 44.1362 47.0618ZM44.1362 46.3061C43.2023 46.3061 42.5571 45.5421 42.5571 44.0223C42.5571 42.5026 43.2023 41.7386 44.1362 41.7386C45.0616 41.7386 45.7069 42.5026 45.7069 44.0223C45.7069 45.5421 45.0616 46.3061 44.1362 46.3061ZM49.799 47.0618C51.1828 47.0618 52.2186 45.9581 52.2186 44.0223C52.2186 42.0866 51.1828 40.9829 49.799 40.9829C48.4066 40.9829 47.3708 42.0866 47.3708 44.0223C47.3708 45.9581 48.4066 47.0618 49.799 47.0618ZM49.799 46.3061C48.8651 46.3061 48.2198 45.5421 48.2198 44.0223C48.2198 42.5026 48.8651 41.7386 49.799 41.7386C50.7244 41.7386 51.3696 42.5026 51.3696 44.0223C51.3696 45.5421 50.7244 46.3061 49.799 46.3061Z" fill="#969696"/>
</g>
<g id="graph lines">
<line id="Line 4" x1="60.0547" y1="213.719" x2="375.775" y2="213.719" stroke="#E0E0E0" strokeWidth="0.530622" strokeDasharray="4.24 4.24"/>
<line id="Line 5" x1="60.0547" y1="171.649" x2="375.775" y2="171.649" stroke="#E0E0E0" strokeWidth="0.530622" strokeDasharray="4.24 4.24"/>
<line id="Line 6" x1="60.0547" y1="129.578" x2="375.775" y2="129.578" stroke="#E0E0E0" strokeWidth="0.530622" strokeDasharray="4.24 4.24"/>
<line id="Line 7" x1="60.0547" y1="87.5076" x2="375.775" y2="87.5076" stroke="#E0E0E0" strokeWidth="0.530622" strokeDasharray="4.24 4.24"/>
<line id="Line 8" x1="60.0549" y1="45.4371" x2="375.775" y2="45.4371" stroke="#E0E0E0" strokeWidth="0.530622" strokeDasharray="4.24 4.24"/>
</g>
<g id="Graph">
<g id="Group 27">
<path id="Rectangle 11" d="M72.259 179.873C72.259 175.478 75.8225 171.914 80.2184 171.914H106.219C110.615 171.914 114.178 175.478 114.178 179.873V213.985H72.259V179.873Z" fill="#E6E6FD"/>
<path id="Rectangle 12" d="M131.689 115.959C131.689 111.563 135.252 107.999 139.648 107.999H165.649C170.044 107.999 173.608 111.563 173.608 115.959V213.985H131.689V115.959Z" fill="#E6E6FD"/>
<path id="Rectangle 13" d="M190.057 115.959C190.057 111.563 193.621 107.999 198.016 107.999H224.017C228.413 107.999 231.976 111.563 231.976 115.959V213.985H190.057V115.959Z" fill="#E6E6FD"/>
<path id="Rectangle 14" d="M249.487 115.959C249.487 111.563 253.05 107.999 257.446 107.999H283.447C287.842 107.999 291.406 111.563 291.406 115.959V213.985H249.487V115.959Z" fill="#E6E6FD"/>
<path id="Rectangle 15" d="M307.855 60.9433C307.855 56.5474 311.419 52.9839 315.815 52.9839H341.815C346.211 52.9839 349.775 56.5474 349.775 60.9433V213.985H307.855V60.9433Z" fill="#E6E6FD"/>
</g>
</g>
</g>
</svg>
