<svg width="823" height="106" viewBox="0 0 823 106" fill="none" xmlns="http://www.w3.org/2000/svg">
<g id="Chart Module">
<g id="Grid">
<g id="Visualization">
<path id="Fill" opacity="0.15" d="M816.977 65.1388L822.079 65.799V89.5H0.912415V25.0289L6.00508 30.8453L11.1069 32.8339L16.2087 29.5091L21.3104 22.6473L26.4122 20.808L31.514 24.911L36.6158 33.9658L41.7176 44.4275L46.8194 41.5665L51.9212 49.6545L57.023 58.0883L62.1247 43.5393L67.2265 29.9965L72.3283 33.8086L77.4301 38.2888L82.5319 37.3613L87.6337 35.6007L92.7355 40.0337L97.8373 50.5741L102.939 49.9374L108.041 48.2868L113.143 56.3276L118.244 43.1778L123.346 37.4635L128.448 40.4268L133.55 52.4841L138.652 49.2457L143.753 44.5611L148.855 38.4382L153.957 35.7264L159.059 44.6555L164.161 33.5256L169.262 34.4688L174.364 41.8023L179.466 39.232L184.568 39.1298L189.669 42.4625L194.771 35.3963L199.873 37.2591L204.975 46.4083L210.077 51.3837L215.178 45.0327L220.28 39.1927L225.382 51.0928L230.484 56.0761L235.586 55.7303L240.687 40.3953L245.789 45.2607L250.891 47.5401L255.993 62.9615L261.094 71.8513L266.196 46.086L271.298 41.1342L276.4 52.1382L281.502 44.2232L286.603 50.9749L291.705 54.4805L296.807 57.9468L301.909 56.8779L307.011 40.1595L312.112 45.9524L317.214 44.0031L322.316 43.28L327.418 46.5419L332.52 38.5796L337.621 41.3464L342.723 43.1306L347.825 41.3307L352.927 45.3393L357.816 43.8459L362.918 41.7237L368.019 41.9437L373.121 46.8956L378.223 41.0241L383.325 47.6659L388.427 44.2703L393.528 46.2589L398.63 39.9237L403.732 37.888L408.834 49.7252L413.936 48.6012L419.037 49.2536L424.139 43.7673L429.241 47.8231L434.343 44.7812L439.444 50.6291L444.546 49.9689L449.648 55.9582L454.75 54.677L459.852 55.8875L464.953 43.4136L470.055 42.5883L475.157 53.4351L480.259 45.3786L485.361 57.1923L490.462 47.2807L495.564 44.4983L500.666 48.1139L505.768 48.3261L510.87 49.8824L515.971 57.5774L521.073 74.6652L526.175 70.6408L531.277 43.0599L536.378 55.9111L541.48 46.4476L546.582 52.1933L551.684 45.8581L556.786 49.9217L561.887 58.6857L566.989 61.3895L572.091 61.1694L577.193 60.8236L582.295 55.8167L587.396 64.2899L592.498 52.9164L597.6 62.6864L602.702 54.9836L607.803 49.8667L612.905 73.1639L618.007 80.3008L623.109 82.4152L628.211 75.742L633.312 68.9902L638.414 60.69L643.516 68.4793L648.618 66.2863L653.72 69.2103L658.821 63.6925L663.923 67.6854L669.025 55.746L674.127 52.9871L679.229 65.8226L684.33 80.1043L689.432 60.7136L694.534 66.4671L699.636 60.8472L704.737 54.4098L709.839 74.1464L714.941 69.7841L720.043 61.979L725.145 73.9263L730.246 75.2311L735.348 78.2729L740.45 80.3008L745.552 61.8376L750.654 64.2506L755.755 78.8624L760.857 67.1274L765.959 63.944L771.061 73.6669L776.163 77.0153L781.264 59.4717L786.366 66.137L791.468 67.764L796.57 64.227L801.671 65.4532L806.773 74.0206L811.875 73.1953L816.977 65.1388Z" fill="#5048E5"/>
<path id="Line" d="M822.079 65.799L816.977 65.1388L811.875 73.1953L806.773 74.0206L801.671 65.4532L796.57 64.227L791.468 67.764L786.366 66.137L781.264 59.4717L776.163 77.0153L771.061 73.6669L765.959 63.944L760.857 67.1274L755.755 78.8624L750.654 64.2506L745.552 61.8376L740.45 80.3008L735.348 78.2729L730.246 75.2311L725.145 73.9263L720.043 61.979L714.941 69.7841L709.839 74.1464L704.737 54.4098L699.636 60.8472L694.534 66.4671L689.432 60.7136L684.33 80.1043L679.229 65.8226L674.127 52.9871L669.025 55.746L663.923 67.6854L658.821 63.6925L653.72 69.2103L648.618 66.2863L643.516 68.4793L638.414 60.69L633.312 68.9902L628.211 75.742L623.109 82.4152L618.007 80.3008L612.905 73.1639L607.803 49.8667L602.702 54.9836L597.6 62.6864L592.498 52.9164L587.396 64.2899L582.295 55.8168L577.193 60.8236L572.091 61.1695L566.989 61.3895L561.887 58.6857L556.786 49.9217L551.684 45.8581L546.582 52.1933L541.48 46.4476L536.378 55.9111L531.277 43.0599L526.175 70.6408L521.073 74.6652L515.971 57.5774L510.87 49.8824L505.768 48.3261L500.666 48.1139L495.564 44.4983L490.462 47.2807L485.361 57.1923L480.259 45.3786L475.157 53.4352L470.055 42.5883L464.953 43.4136L459.852 55.8875L454.75 54.677L449.648 55.9582L444.546 49.9689L439.444 50.6291L434.343 44.7812L429.241 47.8231L424.139 43.7673L419.037 49.2536L413.936 48.6012L408.834 49.7252L403.732 37.888L398.63 39.9237L393.528 46.2589L388.427 44.2703L383.325 47.6659L378.223 41.0241L373.121 46.8956L368.019 41.9437L362.918 41.7237L357.816 43.8459L352.927 45.3393L347.825 41.3307L342.723 43.1306L337.621 41.3464L332.52 38.5796L327.418 46.5419L322.316 43.28L317.214 44.0031L312.112 45.9524L307.011 40.1595L301.909 56.8779L296.807 57.9468L291.705 54.4805L286.603 50.975L281.502 44.2232L276.4 52.1382L271.298 41.1342L266.196 46.086L261.094 71.8513L255.993 62.9615L250.891 47.5401L245.789 45.2607L240.687 40.3953L235.586 55.7303L230.484 56.0761L225.382 51.0929L220.28 39.1927L215.178 45.0327L210.077 51.3837L204.975 46.4083L199.873 37.2591L194.771 35.3963L189.669 42.4625L184.568 39.1298L179.466 39.232L174.364 41.8023L169.262 34.4688L164.161 33.5256L159.059 44.6555L153.957 35.7264L148.855 38.4382L143.753 44.5611L138.652 49.2457L133.55 52.4841L128.448 40.4268L123.346 37.4635L118.244 43.1778L113.143 56.3277L108.041 48.2868L102.939 49.9374L97.8373 50.5741L92.7355 40.0337L87.6337 35.6007L82.5319 37.3613L77.4301 38.2888L72.3283 33.8086L67.2265 29.9965L62.1247 43.5393L57.023 58.0883L51.9212 49.6545L46.8194 41.5665L41.7176 44.4275L36.6158 33.9658L31.514 24.911L26.4122 20.808L21.3104 22.6473L16.2087 29.5091L11.1069 32.8339L6.00508 30.8453L0.912415 25.0289" stroke="#5048E5" strokeWidth="2" strokeLinejoin="round"/>
</g>
</g>
<g id="Grid_2">
<line id="Line_2" x1="735.5" y1="105" x2="822.5" y2="105" stroke="#E5E7EB" strokeLinecap="square" strokeDasharray="1 4"/>
<line id="Line_3" x1="735.5" y1="105" x2="822.5" y2="105" stroke="#E5E7EB" strokeLinecap="square" strokeDasharray="1 4"/>
<line id="Line_4" x1="735.5" y1="105" x2="822.5" y2="105" stroke="#E5E7EB" strokeLinecap="square" strokeDasharray="1 4"/>
<line id="Line_5" x1="735.5" y1="105" x2="822.5" y2="105" stroke="#E5E7EB" strokeLinecap="square" strokeDasharray="1 4"/>
<line id="Line_6" x1="735.5" y1="105" x2="822.5" y2="105" stroke="#E5E7EB" strokeLinecap="square" strokeDasharray="1 4"/>
<line id="Line_7" x1="735.5" y1="105" x2="822.5" y2="105" stroke="#E5E7EB" strokeLinecap="square" strokeDasharray="1 4"/>
<line id="Line_8" x1="735.5" y1="105" x2="822.5" y2="105" stroke="#E5E7EB" strokeLinecap="square" strokeDasharray="1 4"/>
<line id="Line_9" x1="735.5" y1="105" x2="822.5" y2="105" stroke="#E5E7EB" strokeLinecap="square" strokeDasharray="1 4"/>
<line id="Line_10" x1="735.5" y1="105" x2="822.5" y2="105" stroke="#E5E7EB" strokeLinecap="square" strokeDasharray="1 4"/>
<line id="Line_11" x1="735.5" y1="105" x2="822.5" y2="105" stroke="#E5E7EB" strokeLinecap="square" strokeDasharray="1 4"/>
<line id="Line_12" x1="735.5" y1="105" x2="822.5" y2="105" stroke="#E5E7EB" strokeLinecap="square" strokeDasharray="1 4"/>
</g>
</g>
</svg>
