<svg width="72" height="72" viewBox="0 0 72 72" fill="none" xmlns="http://www.w3.org/2000/svg">
<path id="Ellipse 9" d="M35.923 2.98467C35.923 1.33628 37.2618 -0.0128936 38.9045 0.123876C46.5859 0.763422 53.8881 3.86136 59.7046 8.99906C66.2696 14.7978 70.4897 22.7953 71.5712 31.4875C72.6527 40.1797 70.5212 48.9676 65.5774 56.1983C60.6336 63.429 53.2183 68.6043 44.7262 70.7508C36.2341 72.8973 27.2503 71.8671 19.4645 67.8539C11.6787 63.8408 5.62741 57.1212 2.44878 48.9591C-0.729837 40.797 -0.816773 31.7547 2.20433 23.533C4.88103 16.2485 9.83412 10.0529 16.2891 5.84022C17.6695 4.93932 19.4885 5.49032 20.2718 6.94073C21.0551 8.39114 20.5039 10.1899 19.1386 11.1136C13.958 14.6183 9.98185 19.6742 7.80737 25.5919C5.28829 32.4474 5.36078 39.9871 8.01121 46.7929C10.6616 53.5987 15.7074 59.2017 22.1994 62.548C28.6914 65.8942 36.1824 66.7533 43.2634 64.9634C50.3444 63.1736 56.5275 58.8583 60.6497 52.8291C64.772 46.8 66.5494 39.4724 65.6476 32.2246C64.7457 24.9768 61.2269 18.3082 55.7528 13.473C51.0276 9.29931 45.1267 6.74 38.903 6.11787C37.2628 5.95392 35.923 4.63306 35.923 2.98467Z" fill="#06E396"/>
</svg>
