<svg width="892" height="500" viewBox="0 0 892 500" fill="none" xmlns="http://www.w3.org/2000/svg">
<g id="Frame 1343" filter="url(#filter0_d)">
<rect x="5" y="5" width="872" height="480" rx="30" fill="white"/>
<g id="Group 404">
<g id="Group 7">
<g id="Frame 31">
<line id="Line 6" x1="562.977" y1="131.179" x2="515.436" y2="131.179" stroke="#ECE9F1" stroke-width="3.33623" stroke-linecap="round" stroke-linejoin="round"/>
<path id="Provisions Month" d="M590.578 132.011H591.539V128.888H593.07C594.882 128.888 595.342 127.797 595.342 126.907C595.342 126.016 594.882 124.925 593.07 124.925H590.578V132.011ZM591.539 125.766H592.8C593.561 125.766 594.321 125.946 594.321 126.907C594.321 127.867 593.561 128.048 592.8 128.048H591.539V125.766ZM596.281 132.011H597.182V129.629C597.182 128.588 597.662 128.108 598.543 128.108C598.683 128.108 598.833 128.138 598.983 128.178L599.023 127.207C598.903 127.167 598.763 127.147 598.623 127.147C598.032 127.147 597.432 127.497 597.202 127.998H597.182V127.267H596.281V132.011ZM600.54 129.639C600.54 128.678 601.14 127.987 602.101 127.987C603.062 127.987 603.663 128.678 603.663 129.639C603.663 130.6 603.062 131.29 602.101 131.29C601.14 131.29 600.54 130.6 600.54 129.639ZM599.579 129.639C599.579 131.02 600.69 132.131 602.101 132.131C603.513 132.131 604.623 131.02 604.623 129.639C604.623 128.258 603.513 127.147 602.101 127.147C600.69 127.147 599.579 128.258 599.579 129.639ZM607.113 132.011H608.104L609.966 127.267H609.005L607.644 130.9L606.222 127.267H605.181L607.113 132.011ZM610.826 132.011H611.727V127.267H610.826V132.011ZM610.616 125.565C610.616 125.926 610.916 126.226 611.277 126.226C611.637 126.226 611.937 125.926 611.937 125.565C611.937 125.205 611.637 124.905 611.277 124.905C610.916 124.905 610.616 125.205 610.616 125.565ZM616.384 127.927C616.043 127.367 615.393 127.147 614.762 127.147C613.871 127.147 612.961 127.617 612.961 128.608C612.961 129.519 613.641 129.769 614.412 129.959C614.802 130.049 615.553 130.149 615.553 130.69C615.553 131.1 615.052 131.29 614.592 131.29C614.072 131.29 613.731 131.02 613.441 130.73L612.76 131.29C613.231 131.931 613.811 132.131 614.592 132.131C615.533 132.131 616.514 131.711 616.514 130.64C616.514 129.749 615.913 129.449 615.132 129.259C614.732 129.169 613.921 129.088 613.921 128.518C613.921 128.178 614.292 127.987 614.712 127.987C615.162 127.987 615.473 128.198 615.683 128.458L616.384 127.927ZM617.678 132.011H618.579V127.267H617.678V132.011ZM617.468 125.565C617.468 125.926 617.768 126.226 618.128 126.226C618.489 126.226 618.789 125.926 618.789 125.565C618.789 125.205 618.489 124.905 618.128 124.905C617.768 124.905 617.468 125.205 617.468 125.565ZM620.743 129.639C620.743 128.678 621.344 127.987 622.304 127.987C623.265 127.987 623.866 128.678 623.866 129.639C623.866 130.6 623.265 131.29 622.304 131.29C621.344 131.29 620.743 130.6 620.743 129.639ZM619.782 129.639C619.782 131.02 620.893 132.131 622.304 132.131C623.716 132.131 624.827 131.02 624.827 129.639C624.827 128.258 623.716 127.147 622.304 127.147C620.893 127.147 619.782 128.258 619.782 129.639ZM625.955 132.011H626.856V129.569C626.856 128.468 627.426 127.987 628.177 127.987C628.747 127.987 629.258 128.318 629.258 129.209V132.011H630.159V128.958C630.159 127.697 629.358 127.147 628.437 127.147C627.707 127.147 627.106 127.497 626.876 127.998H626.856V127.267H625.955V132.011ZM634.739 127.927C634.399 127.367 633.748 127.147 633.118 127.147C632.227 127.147 631.316 127.617 631.316 128.608C631.316 129.519 631.997 129.769 632.768 129.959C633.158 130.049 633.909 130.149 633.909 130.69C633.909 131.1 633.408 131.29 632.948 131.29C632.427 131.29 632.087 131.02 631.797 130.73L631.116 131.29C631.587 131.931 632.167 132.131 632.948 132.131C633.889 132.131 634.869 131.711 634.869 130.64C634.869 129.749 634.269 129.449 633.488 129.259C633.088 129.169 632.277 129.088 632.277 128.518C632.277 128.178 632.647 127.987 633.068 127.987C633.518 127.987 633.829 128.198 634.039 128.458L634.739 127.927ZM638.909 132.011H639.87V126.186H639.89L642.282 132.011H642.923L645.315 126.186H645.335V132.011H646.296V124.925H644.865L642.633 130.289H642.593L640.341 124.925H638.909V132.011ZM648.55 129.639C648.55 128.678 649.151 127.987 650.112 127.987C651.073 127.987 651.673 128.678 651.673 129.639C651.673 130.6 651.073 131.29 650.112 131.29C649.151 131.29 648.55 130.6 648.55 129.639ZM647.59 129.639C647.59 131.02 648.7 132.131 650.112 132.131C651.523 132.131 652.634 131.02 652.634 129.639C652.634 128.258 651.523 127.147 650.112 127.147C648.7 127.147 647.59 128.258 647.59 129.639ZM653.762 132.011H654.663V129.569C654.663 128.468 655.234 127.987 655.984 127.987C656.555 127.987 657.065 128.318 657.065 129.209V132.011H657.966V128.958C657.966 127.697 657.165 127.147 656.245 127.147C655.514 127.147 654.913 127.497 654.683 127.998H654.663V127.267H653.762V132.011ZM661.866 127.267H660.575V125.936H659.674V127.267H658.633V128.048H659.674V130.52C659.674 131.28 659.694 132.131 661.085 132.131C661.266 132.131 661.686 132.091 661.896 131.971V131.15C661.716 131.26 661.466 131.29 661.256 131.29C660.575 131.29 660.575 130.73 660.575 130.199V128.048H661.866V127.267ZM663.038 132.011H663.939V129.569C663.939 128.468 664.509 127.987 665.26 127.987C665.83 127.987 666.341 128.318 666.341 129.209V132.011H667.242V128.958C667.242 127.697 666.441 127.147 665.52 127.147C664.79 127.147 664.189 127.497 663.959 127.998H663.939V124.444H663.038V132.011Z" fill="#D0D1D2"/>
<g id="Frame 30">
<rect x="695.106" y="117.417" width="104.257" height="24.1877" rx="2.9192" fill="white"/>
<path id="Sept, 2020" d="M706.509 133.418C705.972 133.418 705.49 133.325 705.061 133.138C704.641 132.943 704.31 132.679 704.069 132.344C703.828 132.001 703.703 131.608 703.695 131.164H704.828C704.867 131.546 705.023 131.869 705.295 132.134C705.575 132.391 705.98 132.519 706.509 132.519C707.015 132.519 707.412 132.394 707.7 132.145C707.996 131.888 708.144 131.561 708.144 131.164C708.144 130.853 708.058 130.6 707.887 130.405C707.716 130.211 707.502 130.063 707.245 129.962C706.988 129.861 706.642 129.752 706.206 129.635C705.669 129.495 705.237 129.355 704.91 129.214C704.59 129.074 704.314 128.856 704.081 128.561C703.855 128.257 703.742 127.852 703.742 127.346C703.742 126.902 703.855 126.509 704.081 126.167C704.306 125.824 704.622 125.56 705.026 125.373C705.439 125.186 705.91 125.093 706.439 125.093C707.202 125.093 707.825 125.283 708.308 125.665C708.798 126.046 709.074 126.552 709.137 127.183H707.969C707.93 126.871 707.767 126.599 707.479 126.365C707.19 126.124 706.809 126.003 706.334 126.003C705.89 126.003 705.528 126.12 705.248 126.354C704.968 126.579 704.828 126.899 704.828 127.311C704.828 127.607 704.91 127.848 705.073 128.035C705.244 128.222 705.451 128.366 705.692 128.467C705.941 128.561 706.287 128.67 706.731 128.794C707.268 128.942 707.7 129.09 708.027 129.238C708.354 129.378 708.635 129.6 708.868 129.903C709.102 130.199 709.218 130.604 709.218 131.118C709.218 131.515 709.113 131.888 708.903 132.239C708.693 132.589 708.382 132.873 707.969 133.091C707.556 133.309 707.07 133.418 706.509 133.418ZM716.62 129.892C716.62 130.094 716.609 130.308 716.585 130.534H711.471C711.51 131.164 711.724 131.659 712.113 132.017C712.51 132.367 712.989 132.542 713.549 132.542C714.009 132.542 714.39 132.437 714.694 132.227C715.005 132.009 715.223 131.721 715.348 131.363H716.492C716.321 131.978 715.978 132.48 715.464 132.869C714.951 133.251 714.312 133.441 713.549 133.441C712.942 133.441 712.397 133.305 711.915 133.033C711.44 132.76 711.066 132.375 710.794 131.877C710.521 131.371 710.385 130.787 710.385 130.125C710.385 129.464 710.517 128.884 710.782 128.385C711.047 127.887 711.416 127.506 711.891 127.241C712.374 126.969 712.927 126.832 713.549 126.832C714.157 126.832 714.694 126.965 715.161 127.229C715.628 127.494 715.986 127.86 716.235 128.327C716.492 128.786 716.62 129.308 716.62 129.892ZM715.523 129.67C715.523 129.265 715.433 128.919 715.254 128.631C715.075 128.335 714.83 128.113 714.519 127.965C714.215 127.809 713.876 127.731 713.503 127.731C712.966 127.731 712.506 127.903 712.125 128.245C711.751 128.588 711.537 129.063 711.483 129.67H715.523ZM719.086 128.117C719.296 127.751 719.607 127.447 720.02 127.206C720.44 126.957 720.927 126.832 721.479 126.832C722.048 126.832 722.561 126.969 723.021 127.241C723.488 127.514 723.854 127.899 724.118 128.397C724.383 128.887 724.515 129.46 724.515 130.114C724.515 130.76 724.383 131.336 724.118 131.842C723.854 132.348 723.488 132.741 723.021 133.021C722.561 133.301 722.048 133.441 721.479 133.441C720.934 133.441 720.452 133.321 720.031 133.079C719.619 132.83 719.304 132.523 719.086 132.157V136.372H718.023V126.937H719.086V128.117ZM723.429 130.114C723.429 129.631 723.332 129.211 723.137 128.852C722.943 128.494 722.678 128.222 722.343 128.035C722.017 127.848 721.655 127.755 721.258 127.755C720.868 127.755 720.506 127.852 720.172 128.047C719.845 128.234 719.58 128.51 719.378 128.876C719.183 129.234 719.086 129.65 719.086 130.125C719.086 130.608 719.183 131.032 719.378 131.398C719.58 131.756 719.845 132.032 720.172 132.227C720.506 132.414 720.868 132.507 721.258 132.507C721.655 132.507 722.017 132.414 722.343 132.227C722.678 132.032 722.943 131.756 723.137 131.398C723.332 131.032 723.429 130.604 723.429 130.114ZM727.21 127.813V131.585C727.21 131.896 727.276 132.118 727.409 132.25C727.541 132.375 727.771 132.437 728.098 132.437H728.88V133.336H727.922C727.331 133.336 726.887 133.2 726.591 132.928C726.295 132.655 726.148 132.208 726.148 131.585V127.813H725.318V126.937H726.148V125.326H727.21V126.937H728.88V127.813H727.21ZM731.265 131.865L729.957 135.006H729.245L730.097 131.865H731.265ZM738.405 132.484C739.393 131.69 740.168 131.04 740.728 130.534C741.289 130.02 741.76 129.487 742.141 128.934C742.531 128.374 742.725 127.825 742.725 127.288C742.725 126.782 742.601 126.385 742.351 126.097C742.11 125.801 741.717 125.653 741.172 125.653C740.643 125.653 740.23 125.82 739.934 126.155C739.646 126.482 739.491 126.922 739.467 127.475H738.44C738.471 126.603 738.736 125.929 739.234 125.455C739.732 124.98 740.374 124.742 741.16 124.742C741.962 124.742 742.597 124.964 743.064 125.408C743.539 125.852 743.776 126.463 743.776 127.241C743.776 127.887 743.581 128.518 743.192 129.133C742.811 129.74 742.375 130.277 741.884 130.744C741.394 131.203 740.767 131.741 740.004 132.355H744.021V133.243H738.405V132.484ZM745.25 129.028C745.25 127.689 745.468 126.646 745.904 125.898C746.339 125.143 747.102 124.766 748.192 124.766C749.274 124.766 750.033 125.143 750.469 125.898C750.905 126.646 751.123 127.689 751.123 129.028C751.123 130.39 750.905 131.449 750.469 132.204C750.033 132.959 749.274 133.336 748.192 133.336C747.102 133.336 746.339 132.959 745.904 132.204C745.468 131.449 745.25 130.39 745.25 129.028ZM750.072 129.028C750.072 128.35 750.025 127.778 749.932 127.311C749.846 126.836 749.663 126.455 749.383 126.167C749.111 125.879 748.714 125.735 748.192 125.735C747.663 125.735 747.258 125.879 746.978 126.167C746.705 126.455 746.522 126.836 746.429 127.311C746.343 127.778 746.301 128.35 746.301 129.028C746.301 129.728 746.343 130.316 746.429 130.791C746.522 131.266 746.705 131.647 746.978 131.935C747.258 132.223 747.663 132.367 748.192 132.367C748.714 132.367 749.111 132.223 749.383 131.935C749.663 131.647 749.846 131.266 749.932 130.791C750.025 130.316 750.072 129.728 750.072 129.028ZM752.453 132.484C753.442 131.69 754.217 131.04 754.777 130.534C755.338 130.02 755.809 129.487 756.19 128.934C756.579 128.374 756.774 127.825 756.774 127.288C756.774 126.782 756.649 126.385 756.4 126.097C756.159 125.801 755.766 125.653 755.221 125.653C754.691 125.653 754.279 125.82 753.983 126.155C753.695 126.482 753.539 126.922 753.516 127.475H752.488C752.52 126.603 752.784 125.929 753.282 125.455C753.781 124.98 754.423 124.742 755.209 124.742C756.011 124.742 756.645 124.964 757.112 125.408C757.587 125.852 757.825 126.463 757.825 127.241C757.825 127.887 757.63 128.518 757.241 129.133C756.859 129.74 756.424 130.277 755.933 130.744C755.443 131.203 754.816 131.741 754.053 132.355H758.07V133.243H752.453V132.484ZM759.298 129.028C759.298 127.689 759.516 126.646 759.952 125.898C760.388 125.143 761.151 124.766 762.241 124.766C763.323 124.766 764.082 125.143 764.518 125.898C764.954 126.646 765.172 127.689 765.172 129.028C765.172 130.39 764.954 131.449 764.518 132.204C764.082 132.959 763.323 133.336 762.241 133.336C761.151 133.336 760.388 132.959 759.952 132.204C759.516 131.449 759.298 130.39 759.298 129.028ZM764.121 129.028C764.121 128.35 764.074 127.778 763.981 127.311C763.895 126.836 763.712 126.455 763.432 126.167C763.159 125.879 762.762 125.735 762.241 125.735C761.711 125.735 761.307 125.879 761.026 126.167C760.754 126.455 760.571 126.836 760.478 127.311C760.392 127.778 760.349 128.35 760.349 129.028C760.349 129.728 760.392 130.316 760.478 130.791C760.571 131.266 760.754 131.647 761.026 131.935C761.307 132.223 761.711 132.367 762.241 132.367C762.762 132.367 763.159 132.223 763.432 131.935C763.712 131.647 763.895 131.266 763.981 130.791C764.074 130.316 764.121 129.728 764.121 129.028Z" fill="#11263C"/>
<g id="feather-icon / calendar">
<path id="Rectangle-path" fill-rule="evenodd" clip-rule="evenodd" d="M781.223 126.592C781.223 126.054 781.658 125.619 782.196 125.619H789.007C789.544 125.619 789.98 126.054 789.98 126.592V133.403C789.98 133.941 789.544 134.376 789.007 134.376H782.196C781.658 134.376 781.223 133.941 781.223 133.403V126.592Z" stroke="#422F8A" stroke-opacity="0.87" stroke-width="0.973067" stroke-linecap="round" stroke-linejoin="round"/>
<path id="Shape" d="M787.547 124.646V126.592" stroke="#422F8A" stroke-opacity="0.87" stroke-width="0.973067" stroke-linecap="round" stroke-linejoin="round"/>
<path id="Shape_2" d="M783.655 124.646V126.592" stroke="#422F8A" stroke-opacity="0.87" stroke-width="0.973067" stroke-linecap="round" stroke-linejoin="round"/>
<path id="Shape_3" d="M781.223 128.538H789.98" stroke="#422F8A" stroke-opacity="0.87" stroke-width="0.973067" stroke-linecap="round" stroke-linejoin="round"/>
</g>
<rect x="695.106" y="117.417" width="104.257" height="24.1877" rx="2.9192" stroke="#ECE9F1" stroke-width="0.834058"/>
</g>
<g id="Frame 31_2">
<rect x="825.219" y="117.417" width="24.1877" height="24.1877" rx="2.9192" fill="white"/>
<g id="feather-icon / more-horizontal">
<path id="Oval" fill-rule="evenodd" clip-rule="evenodd" d="M837.313 130.484C837.85 130.484 838.286 130.048 838.286 129.511C838.286 128.973 837.85 128.538 837.313 128.538C836.776 128.538 836.34 128.973 836.34 129.511C836.34 130.048 836.776 130.484 837.313 130.484Z" stroke="#422F8A" stroke-opacity="0.87" stroke-width="0.973067" stroke-linecap="round" stroke-linejoin="round"/>
<path id="Oval_2" fill-rule="evenodd" clip-rule="evenodd" d="M841.205 130.484C841.743 130.484 842.178 130.048 842.178 129.511C842.178 128.973 841.743 128.538 841.205 128.538C840.668 128.538 840.232 128.973 840.232 129.511C840.232 130.048 840.668 130.484 841.205 130.484Z" stroke="#422F8A" stroke-opacity="0.87" stroke-width="0.973067" stroke-linecap="round" stroke-linejoin="round"/>
<path id="Oval_3" fill-rule="evenodd" clip-rule="evenodd" d="M833.421 130.484C833.958 130.484 834.394 130.048 834.394 129.511C834.394 128.973 833.958 128.538 833.421 128.538C832.883 128.538 832.448 128.973 832.448 129.511C832.448 130.048 832.883 130.484 833.421 130.484Z" stroke="#422F8A" stroke-opacity="0.87" stroke-width="0.973067" stroke-linecap="round" stroke-linejoin="round"/>
</g>
<rect x="825.219" y="117.417" width="24.1877" height="24.1877" rx="2.9192" stroke="#ECE9F1" stroke-width="0.834058"/>
</g>
</g>
<g id="Frame 27" clip-path="url(#clip0)">
<path id="Total visits" d="M40.1377 133H42.4798V124.443H45.5124V122.371H37.1051V124.443H40.1377V133ZM44.4749 129.352C44.4749 131.679 46.2764 133.18 48.5284 133.18C50.7803 133.18 52.5819 131.679 52.5819 129.352C52.5819 127.025 50.7803 125.524 48.5284 125.524C46.2764 125.524 44.4749 127.025 44.4749 129.352ZM46.7268 129.352C46.7268 128.256 47.4024 127.505 48.5284 127.505C49.6543 127.505 50.3299 128.256 50.3299 129.352C50.3299 130.448 49.6543 131.198 48.5284 131.198C47.4024 131.198 46.7268 130.448 46.7268 129.352ZM58.8776 125.704H56.8959V123.542H54.644V125.704H53.2027V127.505H54.644V130.973C54.644 132.565 55.8 133.18 57.3013 133.18C57.8267 133.18 58.3822 133.135 58.8776 132.955V131.078C58.6825 131.258 58.202 131.289 57.9618 131.289C56.986 131.289 56.8959 130.718 56.8959 129.937V127.505H58.8776V125.704ZM64.601 133H66.6728V129.292C66.6728 126.86 65.9672 125.524 63.3399 125.524C62.1539 125.524 60.9528 125.914 60.1271 126.695L61.3282 127.926C61.8086 127.385 62.4241 127.055 63.1597 127.055C63.9404 127.055 64.601 127.565 64.601 128.361C62.7244 128.361 59.6617 128.406 59.6617 130.928C59.6617 132.399 60.8928 133.18 62.259 133.18C63.1748 133.18 64.0755 132.865 64.571 132.084H64.601V133ZM64.601 129.802V130.283C64.601 131.183 63.7753 131.649 62.8895 131.649C62.3941 131.649 61.8236 131.394 61.8236 130.853C61.8236 129.862 63.3549 129.802 64.0455 129.802H64.601ZM68.1157 133H70.3676V121.65H68.1157V133ZM40.0476 156H42.4347L45.3172 148.704H43.0503L41.3388 153.658H41.3087L39.4621 148.704H37.03L40.0476 156ZM46.1679 156H48.4199V148.704H46.1679V156ZM45.9878 146.407C45.9878 147.127 46.5733 147.713 47.2939 147.713C48.0145 147.713 48.6 147.127 48.6 146.407C48.6 145.686 48.0145 145.101 47.2939 145.101C46.5733 145.101 45.9878 145.686 45.9878 146.407ZM55.5476 149.484C54.872 148.764 53.806 148.524 52.8452 148.524C51.3139 148.524 49.7825 149.274 49.7825 150.986C49.7825 153.763 53.5808 152.772 53.5808 153.943C53.5808 154.334 53.0704 154.469 52.56 154.469C51.8844 154.469 51.3889 154.183 50.9686 153.673L49.6024 155.189C50.323 155.925 51.449 156.18 52.4699 156.18C54.0312 156.18 55.8328 155.64 55.8328 153.778C55.8328 151.001 52.0345 151.916 52.0345 150.836C52.0345 150.4 52.4849 150.235 52.8602 150.235C53.4007 150.235 53.8361 150.445 54.1664 150.851L55.5476 149.484ZM57.0172 156H59.2691V148.704H57.0172V156ZM56.837 146.407C56.837 147.127 57.4225 147.713 58.1432 147.713C58.8638 147.713 59.4493 147.127 59.4493 146.407C59.4493 145.686 58.8638 145.101 58.1432 145.101C57.4225 145.101 56.837 145.686 56.837 146.407ZM65.8563 148.704H63.8746V146.542H61.6227V148.704H60.1814V150.505H61.6227V153.973C61.6227 155.565 62.7787 156.18 64.28 156.18C64.8054 156.18 65.3609 156.135 65.8563 155.955V154.078C65.6612 154.258 65.1808 154.289 64.9405 154.289C63.9647 154.289 63.8746 153.718 63.8746 152.937V150.505H65.8563V148.704ZM72.5105 149.484C71.8349 148.764 70.769 148.524 69.8082 148.524C68.2768 148.524 66.7455 149.274 66.7455 150.986C66.7455 153.763 70.5438 152.772 70.5438 153.943C70.5438 154.334 70.0334 154.469 69.5229 154.469C68.8473 154.469 68.3519 154.183 67.9315 153.673L66.5654 155.189C67.286 155.925 68.412 156.18 69.4328 156.18C70.9942 156.18 72.7958 155.64 72.7958 153.778C72.7958 151.001 68.9975 151.916 68.9975 150.836C68.9975 150.4 69.4479 150.235 69.8232 150.235C70.3637 150.235 70.799 150.445 71.1293 150.851L72.5105 149.484Z" fill="#63667C"/>
<g id="feather-icon / alert-circle">
<path id="Oval_4" fill-rule="evenodd" clip-rule="evenodd" d="M126.244 134.932C129.699 134.932 132.499 132.132 132.499 128.677C132.499 125.222 129.699 122.421 126.244 122.421C122.789 122.421 119.989 125.222 119.989 128.677C119.989 132.132 122.789 134.932 126.244 134.932Z" stroke="#D0D1D2" stroke-width="1.25109" stroke-linecap="round" stroke-linejoin="round"/>
<path id="Shape_4" d="M126.244 126.175V128.677" stroke="#D0D1D2" stroke-width="1.25109" stroke-linecap="round" stroke-linejoin="round"/>
<circle id="Ellipse" cx="126.244" cy="131.179" r="0.625543" fill="#D0D1D2"/>
</g>
</g>
<g id="Group 5">
<path id="Shape_5" d="M92.8817 286.506C136.298 280.685 133.403 315.265 190.567 320.31C247.731 325.355 263.651 290.04 289.7 279.95C315.75 269.86 327.327 223.881 370.743 226.985C414.159 230.09 435.867 261.198 472.046 265.079C508.226 268.959 515.462 294.697 549.471 313.713C583.48 332.729 614.595 335.057 657.287 331.176C699.979 327.296 711.557 288.058 731.818 286.506C752.078 284.954 770.168 303.665 787.535 307.934C804.901 312.202 809.966 331.176 846.87 331.176" stroke="#ECE9F1" stroke-width="3.33623" stroke-linecap="round" stroke-linejoin="round"/>
<g id="Group 1">
<path id="260M" d="M37.5955 177.262C38.5842 176.468 39.3587 175.818 39.9192 175.312C40.4797 174.799 40.9507 174.265 41.3321 173.713C41.7213 173.152 41.9159 172.603 41.9159 172.066C41.9159 171.56 41.7914 171.163 41.5423 170.875C41.301 170.579 40.9078 170.431 40.3629 170.431C39.8336 170.431 39.421 170.599 39.1252 170.934C38.8372 171.261 38.6815 171.7 38.6581 172.253H37.6305C37.6617 171.381 37.9264 170.708 38.4246 170.233C38.9228 169.758 39.565 169.521 40.3512 169.521C41.1531 169.521 41.7875 169.743 42.2546 170.186C42.7294 170.63 42.9668 171.241 42.9668 172.02C42.9668 172.666 42.7722 173.296 42.383 173.911C42.0016 174.518 41.5656 175.055 41.0752 175.523C40.5848 175.982 39.9581 176.519 39.1952 177.134H43.2121V178.021H37.5955V177.262ZM49.1462 171.681C48.9749 170.817 48.4417 170.385 47.5464 170.385C46.8536 170.385 46.3359 170.653 45.9934 171.19C45.6509 171.72 45.4835 172.596 45.4913 173.818C45.6704 173.413 45.9662 173.098 46.3788 172.872C46.7991 172.638 47.2662 172.522 47.78 172.522C48.5818 172.522 49.2201 172.771 49.695 173.269C50.1776 173.767 50.4189 174.456 50.4189 175.336C50.4189 175.865 50.3138 176.34 50.1037 176.76C49.9013 177.181 49.5899 177.515 49.1695 177.765C48.7569 178.014 48.2548 178.138 47.6632 178.138C46.8614 178.138 46.2347 177.959 45.7832 177.601C45.3317 177.243 45.0165 176.749 44.8374 176.118C44.6584 175.488 44.5689 174.709 44.5689 173.783C44.5689 170.926 45.5653 169.497 47.5581 169.497C48.321 169.497 48.9204 169.704 49.3563 170.116C49.7923 170.529 50.0492 171.05 50.127 171.681H49.1462ZM47.5581 173.421C47.2234 173.421 46.9081 173.491 46.6123 173.631C46.3165 173.763 46.0752 173.97 45.8883 174.25C45.7093 174.522 45.6198 174.857 45.6198 175.254C45.6198 175.846 45.791 176.328 46.1335 176.702C46.4761 177.068 46.9665 177.251 47.6048 177.251C48.1497 177.251 48.5818 177.083 48.9009 176.749C49.2279 176.406 49.3914 175.947 49.3914 175.371C49.3914 174.764 49.2357 174.289 48.9243 173.946C48.6129 173.596 48.1575 173.421 47.5581 173.421ZM51.8524 173.806C51.8524 172.467 52.0704 171.424 52.5063 170.677C52.9423 169.922 53.7052 169.544 54.795 169.544C55.877 169.544 56.636 169.922 57.072 170.677C57.5079 171.424 57.7259 172.467 57.7259 173.806C57.7259 175.168 57.5079 176.227 57.072 176.982C56.636 177.737 55.877 178.115 54.795 178.115C53.7052 178.115 52.9423 177.737 52.5063 176.982C52.0704 176.227 51.8524 175.168 51.8524 173.806ZM56.675 173.806C56.675 173.129 56.6283 172.557 56.5348 172.09C56.4492 171.615 56.2663 171.233 55.986 170.945C55.7136 170.657 55.3166 170.513 54.795 170.513C54.2656 170.513 53.8609 170.657 53.5806 170.945C53.3082 171.233 53.1252 171.615 53.0318 172.09C52.9462 172.557 52.9034 173.129 52.9034 173.806C52.9034 174.507 52.9462 175.094 53.0318 175.569C53.1252 176.044 53.3082 176.426 53.5806 176.714C53.8609 177.002 54.2656 177.146 54.795 177.146C55.3166 177.146 55.7136 177.002 55.986 176.714C56.2663 176.426 56.4492 176.044 56.5348 175.569C56.6283 175.094 56.675 174.507 56.675 173.806ZM67.6153 170.034V178.115H66.5527V172.09L63.8671 178.115H63.1197L60.4224 172.078V178.115H59.3598V170.034H60.5041L63.4934 176.714L66.4827 170.034H67.6153Z" fill="#A2A3A5"/>
<path id="220M" d="M37.5955 237.315C38.5842 236.521 39.3587 235.871 39.9192 235.365C40.4797 234.851 40.9507 234.318 41.3321 233.765C41.7213 233.204 41.9159 232.656 41.9159 232.118C41.9159 231.612 41.7914 231.215 41.5423 230.927C41.301 230.632 40.9078 230.484 40.3629 230.484C39.8336 230.484 39.421 230.651 39.1252 230.986C38.8372 231.313 38.6815 231.753 38.6581 232.305H37.6305C37.6617 231.433 37.9264 230.76 38.4246 230.285C38.9228 229.81 39.565 229.573 40.3512 229.573C41.1531 229.573 41.7875 229.795 42.2546 230.238C42.7294 230.682 42.9668 231.293 42.9668 232.072C42.9668 232.718 42.7722 233.348 42.383 233.963C42.0016 234.571 41.5656 235.108 41.0752 235.575C40.5848 236.034 39.9581 236.571 39.1952 237.186H43.2121V238.074H37.5955V237.315ZM44.312 237.315C45.3006 236.521 46.0752 235.871 46.6356 235.365C47.1961 234.851 47.6671 234.318 48.0485 233.765C48.4378 233.204 48.6324 232.656 48.6324 232.118C48.6324 231.612 48.5078 231.215 48.2587 230.927C48.0174 230.632 47.6243 230.484 47.0794 230.484C46.55 230.484 46.1374 230.651 45.8416 230.986C45.5536 231.313 45.3979 231.753 45.3746 232.305H44.347C44.3781 231.433 44.6428 230.76 45.141 230.285C45.6392 229.81 46.2814 229.573 47.0677 229.573C47.8695 229.573 48.5039 229.795 48.971 230.238C49.4459 230.682 49.6833 231.293 49.6833 232.072C49.6833 232.718 49.4887 233.348 49.0995 233.963C48.718 234.571 48.2821 235.108 47.7917 235.575C47.3012 236.034 46.6746 236.571 45.9117 237.186H49.9285V238.074H44.312V237.315ZM51.1569 233.858C51.1569 232.519 51.3748 231.476 51.8108 230.729C52.2467 229.974 53.0096 229.596 54.0994 229.596C55.1815 229.596 55.9404 229.974 56.3764 230.729C56.8123 231.476 57.0303 232.519 57.0303 233.858C57.0303 235.221 56.8123 236.279 56.3764 237.034C55.9404 237.789 55.1815 238.167 54.0994 238.167C53.0096 238.167 52.2467 237.789 51.8108 237.034C51.3748 236.279 51.1569 235.221 51.1569 233.858ZM55.9794 233.858C55.9794 233.181 55.9327 232.609 55.8393 232.142C55.7536 231.667 55.5707 231.285 55.2904 230.997C55.018 230.709 54.621 230.565 54.0994 230.565C53.5701 230.565 53.1653 230.709 52.885 230.997C52.6126 231.285 52.4296 231.667 52.3362 232.142C52.2506 232.609 52.2078 233.181 52.2078 233.858C52.2078 234.559 52.2506 235.147 52.3362 235.621C52.4296 236.096 52.6126 236.478 52.885 236.766C53.1653 237.054 53.5701 237.198 54.0994 237.198C54.621 237.198 55.018 237.054 55.2904 236.766C55.5707 236.478 55.7536 236.096 55.8393 235.621C55.9327 235.147 55.9794 234.559 55.9794 233.858ZM66.9197 230.087V238.167H65.8571V232.142L63.1715 238.167H62.4241L59.7268 232.13V238.167H58.6642V230.087H59.8085L62.7978 236.766L65.7871 230.087H66.9197Z" fill="#A2A3A5"/>
<path id="180M" d="M37.4437 290.746V289.777H39.639V298.219H38.5647V290.746H37.4437ZM43.0055 293.828C42.5696 293.657 42.2349 293.408 42.0013 293.081C41.7678 292.754 41.651 292.357 41.651 291.89C41.651 291.47 41.7561 291.092 41.9663 290.757C42.1765 290.415 42.4879 290.146 42.9004 289.952C43.3208 289.749 43.8268 289.648 44.4184 289.648C45.01 289.648 45.5121 289.749 45.9247 289.952C46.3451 290.146 46.6604 290.415 46.8706 290.757C47.0885 291.092 47.1975 291.47 47.1975 291.89C47.1975 292.342 47.0768 292.739 46.8355 293.081C46.5942 293.416 46.2634 293.665 45.843 293.828C46.3256 293.976 46.7071 294.237 46.9873 294.611C47.2753 294.977 47.4194 295.42 47.4194 295.942C47.4194 296.448 47.2948 296.892 47.0457 297.273C46.7966 297.647 46.4424 297.939 45.9831 298.149C45.5316 298.351 45.01 298.452 44.4184 298.452C43.8268 298.452 43.3052 298.351 42.8537 298.149C42.41 297.939 42.0636 297.647 41.8145 297.273C41.5654 296.892 41.4408 296.448 41.4408 295.942C41.4408 295.42 41.581 294.973 41.8612 294.599C42.1414 294.225 42.5229 293.969 43.0055 293.828ZM46.1699 292.019C46.1699 291.544 46.0143 291.178 45.7029 290.921C45.3915 290.664 44.9633 290.536 44.4184 290.536C43.8813 290.536 43.457 290.664 43.1456 290.921C42.8343 291.178 42.6786 291.548 42.6786 292.03C42.6786 292.466 42.8382 292.816 43.1573 293.081C43.4843 293.346 43.9046 293.478 44.4184 293.478C44.94 293.478 45.3604 293.346 45.6795 293.081C46.0065 292.809 46.1699 292.454 46.1699 292.019ZM44.4184 294.296C43.8424 294.296 43.3714 294.432 43.0055 294.704C42.6397 294.969 42.4567 295.37 42.4567 295.907C42.4567 296.405 42.6319 296.806 42.9822 297.11C43.3403 297.413 43.819 297.565 44.4184 297.565C45.0178 297.565 45.4927 297.413 45.843 297.11C46.1933 296.806 46.3684 296.405 46.3684 295.907C46.3684 295.385 46.1894 294.988 45.8313 294.716C45.4732 294.436 45.0023 294.296 44.4184 294.296ZM48.8306 293.91C48.8306 292.571 49.0486 291.528 49.4845 290.781C49.9204 290.026 50.6833 289.648 51.7732 289.648C52.8552 289.648 53.6142 290.026 54.0501 290.781C54.4861 291.528 54.704 292.571 54.704 293.91C54.704 295.272 54.4861 296.331 54.0501 297.086C53.6142 297.841 52.8552 298.219 51.7732 298.219C50.6833 298.219 49.9204 297.841 49.4845 297.086C49.0486 296.331 48.8306 295.272 48.8306 293.91ZM53.6531 293.91C53.6531 293.233 53.6064 292.661 53.513 292.194C53.4274 291.719 53.2444 291.337 52.9642 291.049C52.6917 290.761 52.2947 290.617 51.7732 290.617C51.2438 290.617 50.839 290.761 50.5588 291.049C50.2863 291.337 50.1034 291.719 50.01 292.194C49.9243 292.661 49.8815 293.233 49.8815 293.91C49.8815 294.611 49.9243 295.199 50.01 295.673C50.1034 296.148 50.2863 296.53 50.5588 296.818C50.839 297.106 51.2438 297.25 51.7732 297.25C52.2947 297.25 52.6917 297.106 52.9642 296.818C53.2444 296.53 53.4274 296.148 53.513 295.673C53.6064 295.199 53.6531 294.611 53.6531 293.91ZM64.5935 290.139V298.219H63.5309V292.194L60.8452 298.219H60.0979L57.4006 292.182V298.219H56.338V290.139H57.4823L60.4716 296.818L63.4608 290.139H64.5935Z" fill="#A2A3A5"/>
<path id="140M" d="M37.4437 350.798V349.829H39.639V358.271H38.5647V350.798H37.4437ZM41.2073 356.391V355.585L45.3059 349.911H46.5786V355.469H47.7463V356.391H46.5786V358.271H45.5277V356.391H41.2073ZM45.5744 351.02L42.4334 355.469H45.5744V351.02ZM48.8078 353.962C48.8078 352.623 49.0258 351.58 49.4617 350.833C49.8976 350.078 50.6605 349.7 51.7504 349.7C52.8324 349.7 53.5914 350.078 54.0273 350.833C54.4633 351.58 54.6812 352.623 54.6812 353.962C54.6812 355.325 54.4633 356.383 54.0273 357.138C53.5914 357.894 52.8324 358.271 51.7504 358.271C50.6605 358.271 49.8976 357.894 49.4617 357.138C49.0258 356.383 48.8078 355.325 48.8078 353.962ZM53.6303 353.962C53.6303 353.285 53.5836 352.713 53.4902 352.246C53.4046 351.771 53.2216 351.39 52.9414 351.102C52.6689 350.814 52.2719 350.67 51.7504 350.67C51.221 350.67 50.8162 350.814 50.536 351.102C50.2635 351.39 50.0806 351.771 49.9872 352.246C49.9015 352.713 49.8587 353.285 49.8587 353.962C49.8587 354.663 49.9015 355.251 49.9872 355.726C50.0806 356.2 50.2635 356.582 50.536 356.87C50.8162 357.158 51.221 357.302 51.7504 357.302C52.2719 357.302 52.6689 357.158 52.9414 356.87C53.2216 356.582 53.4046 356.2 53.4902 355.726C53.5836 355.251 53.6303 354.663 53.6303 353.962ZM64.5707 350.191V358.271H63.5081V352.246L60.8224 358.271H60.0751L57.3778 352.234V358.271H56.3152V350.191H57.4595L60.4488 356.87L63.438 350.191H64.5707Z" fill="#A2A3A5"/>
</g>
<g id="Group 2">
<line id="Line 1" x1="92.0483" y1="173.872" x2="847.704" y2="173.872" stroke="#ECE9F1" stroke-width="0.834058"/>
<line id="Line 2" x1="92.0478" y1="233.925" x2="847.704" y2="233.925" stroke="#ECE9F1" stroke-width="0.834058"/>
<line id="Line 3" x1="92.0478" y1="293.977" x2="847.704" y2="293.977" stroke="#ECE9F1" stroke-width="0.834058"/>
<line id="Line 4" x1="92.0478" y1="354.029" x2="847.704" y2="354.029" stroke="#ECE9F1" stroke-width="0.834058"/>
</g>
<g id="Group 3">
<path id="Shape_6" d="M92.0479 340.929C125.248 335.787 152.549 304.431 192.163 299.161C213.276 296.352 230.191 301.819 249.062 310.314C267.934 318.809 264.24 322.478 306.682 329.027C341.707 334.432 350.869 276.162 385.19 278.4C419.51 280.639 435.384 210.581 471.62 216.429C507.855 222.277 515.095 207.157 549.156 235.813C583.217 264.469 614.686 197.674 657.444 191.825C700.202 185.977 711.338 248.049 731.63 245.71C751.922 243.37 770.192 287.601 787.585 294.034C804.978 300.467 809.91 277.098 846.87 277.098" stroke="#422F8A" stroke-opacity="0.87" stroke-width="3.33623" stroke-linecap="round" stroke-linejoin="round"/>
<path id="Shape_7" d="M192.163 299.161C152.549 304.431 125.248 335.787 92.0479 340.929V353.612H846.87V277.098C809.91 277.098 804.978 300.467 787.585 294.034C770.192 287.601 751.922 243.37 731.63 245.71C711.338 248.049 700.202 185.977 657.444 191.825C614.686 197.674 583.217 264.469 549.156 235.813C515.095 207.157 507.855 222.277 471.62 216.429C435.384 210.581 419.51 280.639 385.19 278.4C350.869 276.162 341.707 334.432 306.682 329.027C264.24 322.478 267.934 318.809 249.062 310.314C230.191 301.819 213.276 296.352 192.163 299.161Z" fill="url(#paint0_linear)"/>
</g>
<g id="Group 4">
<path id="1" d="M92.4916 376.654V375.685H94.6868V384.127H93.6126V376.654H92.4916Z" fill="#A2A3A5"/>
<path id="5" d="M220.014 376.607H215.916V379.269C216.095 379.02 216.36 378.818 216.71 378.662C217.06 378.499 217.438 378.417 217.842 378.417C218.489 378.417 219.014 378.553 219.419 378.826C219.824 379.09 220.112 379.437 220.283 379.865C220.462 380.285 220.552 380.733 220.552 381.208C220.552 381.768 220.446 382.27 220.236 382.714C220.026 383.158 219.703 383.508 219.267 383.765C218.839 384.022 218.306 384.15 217.667 384.15C216.85 384.15 216.188 383.94 215.682 383.52C215.176 383.099 214.869 382.539 214.76 381.838H215.799C215.9 382.282 216.114 382.628 216.441 382.877C216.768 383.127 217.181 383.251 217.679 383.251C218.294 383.251 218.757 383.068 219.069 382.702C219.38 382.329 219.536 381.838 219.536 381.231C219.536 380.624 219.38 380.157 219.069 379.83C218.757 379.495 218.298 379.328 217.691 379.328C217.278 379.328 216.916 379.429 216.605 379.631C216.301 379.826 216.079 380.095 215.939 380.437H214.935V375.673H220.014V376.607Z" fill="#A2A3A5"/>
<path id="10" d="M337.173 376.654V375.685H339.368V384.127H338.294V376.654H337.173ZM341.193 379.818C341.193 378.479 341.411 377.436 341.847 376.689C342.283 375.934 343.046 375.556 344.136 375.556C345.218 375.556 345.977 375.934 346.413 376.689C346.849 377.436 347.066 378.479 347.066 379.818C347.066 381.18 346.849 382.239 346.413 382.994C345.977 383.749 345.218 384.127 344.136 384.127C343.046 384.127 342.283 383.749 341.847 382.994C341.411 382.239 341.193 381.18 341.193 379.818ZM346.016 379.818C346.016 379.141 345.969 378.569 345.875 378.102C345.79 377.627 345.607 377.245 345.327 376.957C345.054 376.669 344.657 376.525 344.136 376.525C343.606 376.525 343.201 376.669 342.921 376.957C342.649 377.245 342.466 377.627 342.372 378.102C342.287 378.569 342.244 379.141 342.244 379.818C342.244 380.519 342.287 381.106 342.372 381.581C342.466 382.056 342.649 382.438 342.921 382.726C343.201 383.014 343.606 383.158 344.136 383.158C344.657 383.158 345.054 383.014 345.327 382.726C345.607 382.438 345.79 382.056 345.875 381.581C345.969 381.106 346.016 380.519 346.016 379.818Z" fill="#A2A3A5"/>
<path id="15" d="M462.281 376.654V375.685H464.476V384.127H463.402V376.654H462.281ZM471.685 376.607H467.586V379.269C467.765 379.02 468.03 378.818 468.38 378.662C468.73 378.499 469.108 378.417 469.513 378.417C470.159 378.417 470.684 378.553 471.089 378.826C471.494 379.09 471.782 379.437 471.953 379.865C472.132 380.285 472.222 380.733 472.222 381.208C472.222 381.768 472.117 382.27 471.906 382.714C471.696 383.158 471.373 383.508 470.937 383.765C470.509 384.022 469.976 384.15 469.337 384.15C468.52 384.15 467.858 383.94 467.352 383.52C466.846 383.099 466.539 382.539 466.43 381.838H467.469C467.57 382.282 467.784 382.628 468.111 382.877C468.438 383.127 468.851 383.251 469.349 383.251C469.964 383.251 470.427 383.068 470.739 382.702C471.05 382.329 471.206 381.838 471.206 381.231C471.206 380.624 471.05 380.157 470.739 379.83C470.427 379.495 469.968 379.328 469.361 379.328C468.948 379.328 468.586 379.429 468.275 379.631C467.971 379.826 467.749 380.095 467.609 380.437H466.605V375.673H471.685V376.607Z" fill="#A2A3A5"/>
<path id="20" d="M586.47 383.274C587.459 382.48 588.234 381.83 588.794 381.324C589.355 380.811 589.826 380.277 590.207 379.725C590.596 379.164 590.791 378.615 590.791 378.078C590.791 377.572 590.666 377.175 590.417 376.887C590.176 376.591 589.783 376.444 589.238 376.444C588.709 376.444 588.296 376.611 588 376.946C587.712 377.273 587.556 377.712 587.533 378.265H586.505C586.537 377.393 586.801 376.72 587.3 376.245C587.798 375.77 588.44 375.533 589.226 375.533C590.028 375.533 590.662 375.755 591.13 376.198C591.604 376.642 591.842 377.253 591.842 378.032C591.842 378.678 591.647 379.308 591.258 379.923C590.877 380.53 590.441 381.068 589.95 381.535C589.46 381.994 588.833 382.531 588.07 383.146H592.087V384.033H586.47V383.274ZM593.315 379.818C593.315 378.479 593.533 377.436 593.969 376.689C594.405 375.934 595.168 375.556 596.258 375.556C597.34 375.556 598.099 375.934 598.535 376.689C598.971 377.436 599.189 378.479 599.189 379.818C599.189 381.18 598.971 382.239 598.535 382.994C598.099 383.749 597.34 384.127 596.258 384.127C595.168 384.127 594.405 383.749 593.969 382.994C593.533 382.239 593.315 381.18 593.315 379.818ZM598.138 379.818C598.138 379.141 598.091 378.569 597.998 378.102C597.912 377.627 597.729 377.245 597.449 376.957C597.176 376.669 596.779 376.525 596.258 376.525C595.729 376.525 595.324 376.669 595.044 376.957C594.771 377.245 594.588 377.627 594.495 378.102C594.409 378.569 594.366 379.141 594.366 379.818C594.366 380.519 594.409 381.106 594.495 381.581C594.588 382.056 594.771 382.438 595.044 382.726C595.324 383.014 595.729 383.158 596.258 383.158C596.779 383.158 597.176 383.014 597.449 382.726C597.729 382.438 597.912 382.056 597.998 381.581C598.091 381.106 598.138 380.519 598.138 379.818Z" fill="#A2A3A5"/>
<path id="25" d="M711.579 383.274C712.568 382.48 713.342 381.83 713.903 381.324C714.463 380.811 714.934 380.277 715.316 379.725C715.705 379.164 715.9 378.615 715.9 378.078C715.9 377.572 715.775 377.175 715.526 376.887C715.285 376.591 714.892 376.444 714.347 376.444C713.817 376.444 713.405 376.611 713.109 376.946C712.821 377.273 712.665 377.712 712.642 378.265H711.614C711.645 377.393 711.91 376.72 712.408 376.245C712.906 375.77 713.549 375.533 714.335 375.533C715.137 375.533 715.771 375.755 716.238 376.198C716.713 376.642 716.951 377.253 716.951 378.032C716.951 378.678 716.756 379.308 716.367 379.923C715.985 380.53 715.549 381.068 715.059 381.535C714.568 381.994 713.942 382.531 713.179 383.146H717.196V384.033H711.579V383.274ZM723.807 376.607H719.709V379.269C719.888 379.02 720.152 378.818 720.503 378.662C720.853 378.499 721.23 378.417 721.635 378.417C722.281 378.417 722.807 378.553 723.212 378.826C723.616 379.09 723.904 379.437 724.076 379.865C724.255 380.285 724.344 380.733 724.344 381.208C724.344 381.768 724.239 382.27 724.029 382.714C723.819 383.158 723.496 383.508 723.06 383.765C722.632 384.022 722.098 384.15 721.46 384.15C720.643 384.15 719.981 383.94 719.475 383.52C718.969 383.099 718.662 382.539 718.553 381.838H719.592C719.693 382.282 719.907 382.628 720.234 382.877C720.561 383.127 720.974 383.251 721.472 383.251C722.087 383.251 722.55 383.068 722.861 382.702C723.173 382.329 723.328 381.838 723.328 381.231C723.328 380.624 723.173 380.157 722.861 379.83C722.55 379.495 722.091 379.328 721.483 379.328C721.071 379.328 720.709 379.429 720.397 379.631C720.094 379.826 719.872 380.095 719.732 380.437H718.728V375.673H723.807V376.607Z" fill="#A2A3A5"/>
<path id="30" d="M833.362 377.81C833.417 377.094 833.693 376.533 834.191 376.128C834.689 375.723 835.336 375.521 836.13 375.521C836.659 375.521 837.114 375.618 837.496 375.813C837.885 376 838.177 376.257 838.371 376.584C838.574 376.911 838.675 377.28 838.675 377.693C838.675 378.176 838.535 378.592 838.255 378.942C837.982 379.293 837.624 379.518 837.18 379.62V379.678C837.686 379.803 838.087 380.048 838.383 380.414C838.679 380.78 838.827 381.258 838.827 381.85C838.827 382.294 838.726 382.695 838.523 383.053C838.321 383.403 838.017 383.679 837.612 383.882C837.208 384.084 836.721 384.185 836.153 384.185C835.328 384.185 834.65 383.971 834.121 383.543C833.592 383.107 833.296 382.492 833.234 381.698H834.261C834.316 382.165 834.506 382.547 834.833 382.842C835.16 383.138 835.596 383.286 836.141 383.286C836.686 383.286 837.099 383.146 837.379 382.866C837.667 382.578 837.811 382.208 837.811 381.757C837.811 381.173 837.616 380.752 837.227 380.495C836.838 380.239 836.25 380.11 835.464 380.11H835.195V379.223H835.476C836.192 379.215 836.733 379.098 837.099 378.872C837.465 378.639 837.648 378.281 837.648 377.798C837.648 377.385 837.511 377.055 837.239 376.806C836.974 376.556 836.593 376.432 836.094 376.432C835.612 376.432 835.223 376.556 834.927 376.806C834.631 377.055 834.456 377.389 834.401 377.81H833.362ZM840.262 379.818C840.262 378.479 840.48 377.436 840.915 376.689C841.351 375.934 842.114 375.556 843.204 375.556C844.286 375.556 845.045 375.934 845.481 376.689C845.917 377.436 846.135 378.479 846.135 379.818C846.135 381.18 845.917 382.239 845.481 382.994C845.045 383.749 844.286 384.127 843.204 384.127C842.114 384.127 841.351 383.749 840.915 382.994C840.48 382.239 840.262 381.18 840.262 379.818ZM845.084 379.818C845.084 379.141 845.037 378.569 844.944 378.102C844.858 377.627 844.675 377.245 844.395 376.957C844.123 376.669 843.726 376.525 843.204 376.525C842.675 376.525 842.27 376.669 841.99 376.957C841.717 377.245 841.534 377.627 841.441 378.102C841.355 378.569 841.312 379.141 841.312 379.818C841.312 380.519 841.355 381.106 841.441 381.581C841.534 382.056 841.717 382.438 841.99 382.726C842.27 383.014 842.675 383.158 843.204 383.158C843.726 383.158 844.123 383.014 844.395 382.726C844.675 382.438 844.858 382.056 844.944 381.581C845.037 381.106 845.084 380.519 845.084 379.818Z" fill="#A2A3A5"/>
</g>
<g id="Group 6">
<line id="Line 5" x1="417.747" y1="256.861" x2="417.747" y2="353.612" stroke="#422F8A" stroke-opacity="0.87" stroke-width="0.834058" stroke-dasharray="3.67 3.67"/>
<g id="Tooltip">
<g id="Shape_8" filter="url(#filter1_dd)">
<path fill-rule="evenodd" clip-rule="evenodd" d="M420.217 238.636C418.623 240.695 416.038 240.695 414.443 238.636L410.909 234.298C410.174 233.395 409.806 232.943 409.352 232.618C408.95 232.33 408.499 232.116 408.022 231.986C407.483 231.839 406.901 231.839 405.736 231.839H364.976C359.399 231.839 357.377 231.259 355.338 230.168C353.299 229.078 351.699 227.478 350.609 225.439C349.518 223.4 348.938 221.378 348.938 215.801V174.481C348.938 168.904 349.518 166.881 350.609 164.843C351.699 162.804 353.299 161.204 355.338 160.113C357.377 159.023 359.399 158.442 364.976 158.442H470.519C476.096 158.442 478.118 159.023 480.157 160.113C482.196 161.204 483.796 162.804 484.886 164.843C485.976 166.881 486.557 168.904 486.557 174.481V215.801C486.557 221.378 485.976 223.4 484.886 225.439C483.796 227.478 482.196 229.078 480.157 230.168C478.118 231.259 476.096 231.839 470.519 231.839H432.096C429.766 231.839 428.601 231.839 427.523 232.133C426.569 232.393 425.668 232.821 424.864 233.397C423.956 234.047 423.22 234.95 421.749 236.757L420.217 238.636Z" fill="white"/>
</g>
<g id="Frame 29" clip-path="url(#clip1)">
<path id="&#226;&#134;&#170; Label" d="M364.039 172.468V172.962H362.772V177.119H362.164V172.962H360.89V172.468H364.039ZM366.602 173.396C366.878 173.396 367.127 173.456 367.349 173.576C367.571 173.692 367.745 173.867 367.87 174.103C367.999 174.339 368.063 174.626 368.063 174.964V177.119H367.462V175.051C367.462 174.686 367.371 174.408 367.189 174.217C367.007 174.021 366.757 173.923 366.442 173.923C366.121 173.923 365.866 174.023 365.674 174.223C365.487 174.423 365.394 174.715 365.394 175.097V177.119H364.787V172.181H365.394V173.983C365.514 173.796 365.679 173.652 365.888 173.549C366.101 173.447 366.339 173.396 366.602 173.396ZM369.368 172.869C369.253 172.869 369.155 172.829 369.075 172.749C368.995 172.669 368.955 172.571 368.955 172.455C368.955 172.339 368.995 172.242 369.075 172.161C369.155 172.081 369.253 172.041 369.368 172.041C369.48 172.041 369.573 172.081 369.649 172.161C369.729 172.242 369.769 172.339 369.769 172.455C369.769 172.571 369.729 172.669 369.649 172.749C369.573 172.829 369.48 172.869 369.368 172.869ZM369.662 173.463V177.119H369.055V173.463H369.662ZM371.991 177.179C371.711 177.179 371.46 177.132 371.237 177.039C371.015 176.941 370.839 176.808 370.71 176.639C370.581 176.465 370.51 176.267 370.497 176.045H371.124C371.142 176.227 371.226 176.376 371.378 176.492C371.533 176.608 371.736 176.665 371.985 176.665C372.216 176.665 372.398 176.614 372.532 176.512C372.665 176.41 372.732 176.281 372.732 176.125C372.732 175.965 372.661 175.847 372.519 175.771C372.376 175.691 372.156 175.613 371.858 175.538C371.587 175.467 371.364 175.395 371.191 175.324C371.022 175.249 370.875 175.14 370.75 174.997C370.63 174.85 370.57 174.659 370.57 174.423C370.57 174.237 370.626 174.065 370.737 173.91C370.848 173.754 371.006 173.632 371.211 173.543C371.415 173.449 371.649 173.403 371.911 173.403C372.316 173.403 372.643 173.505 372.892 173.709C373.141 173.914 373.275 174.194 373.293 174.55H372.685C372.672 174.359 372.594 174.205 372.452 174.09C372.314 173.974 372.127 173.916 371.891 173.916C371.673 173.916 371.5 173.963 371.371 174.056C371.242 174.15 371.177 174.272 371.177 174.423C371.177 174.544 371.215 174.644 371.291 174.724C371.371 174.799 371.469 174.862 371.584 174.911C371.704 174.955 371.869 175.006 372.078 175.064C372.341 175.135 372.554 175.206 372.719 175.277C372.883 175.344 373.023 175.447 373.139 175.584C373.259 175.722 373.321 175.902 373.326 176.125C373.326 176.325 373.27 176.505 373.159 176.665C373.048 176.826 372.89 176.952 372.685 177.046C372.485 177.135 372.254 177.179 371.991 177.179ZM380.679 172.502V177.119H380.072V173.676L378.537 177.119H378.11L376.569 173.669V177.119H375.962V172.502H376.616L378.324 176.318L380.032 172.502H380.679ZM383.304 177.179C382.961 177.179 382.65 177.101 382.37 176.946C382.094 176.79 381.876 176.57 381.716 176.285C381.56 175.996 381.482 175.662 381.482 175.284C381.482 174.911 381.562 174.581 381.722 174.297C381.887 174.008 382.109 173.787 382.39 173.636C382.67 173.48 382.984 173.403 383.33 173.403C383.677 173.403 383.991 173.48 384.271 173.636C384.552 173.787 384.772 174.005 384.932 174.29C385.096 174.575 385.179 174.906 385.179 175.284C385.179 175.662 385.094 175.996 384.925 176.285C384.761 176.57 384.536 176.79 384.251 176.946C383.967 177.101 383.651 177.179 383.304 177.179ZM383.304 176.645C383.522 176.645 383.726 176.594 383.918 176.492C384.109 176.39 384.262 176.236 384.378 176.031C384.498 175.827 384.558 175.578 384.558 175.284C384.558 174.991 384.5 174.741 384.385 174.537C384.269 174.332 384.118 174.181 383.931 174.083C383.744 173.981 383.542 173.93 383.324 173.93C383.101 173.93 382.897 173.981 382.71 174.083C382.528 174.181 382.381 174.332 382.27 174.537C382.158 174.741 382.103 174.991 382.103 175.284C382.103 175.582 382.156 175.834 382.263 176.038C382.374 176.243 382.521 176.396 382.703 176.499C382.886 176.596 383.086 176.645 383.304 176.645ZM387.759 173.396C388.203 173.396 388.564 173.532 388.84 173.803C389.115 174.07 389.253 174.457 389.253 174.964V177.119H388.653V175.051C388.653 174.686 388.562 174.408 388.379 174.217C388.197 174.021 387.948 173.923 387.632 173.923C387.312 173.923 387.056 174.023 386.865 174.223C386.678 174.423 386.584 174.715 386.584 175.097V177.119H385.977V173.463H386.584V173.983C386.704 173.796 386.867 173.652 387.071 173.549C387.28 173.447 387.51 173.396 387.759 173.396ZM390.986 173.963V176.118C390.986 176.296 391.024 176.423 391.099 176.499C391.175 176.57 391.306 176.605 391.493 176.605H391.94V177.119H391.393C391.055 177.119 390.801 177.041 390.632 176.886C390.463 176.73 390.379 176.474 390.379 176.118V173.963H389.905V173.463H390.379V172.542H390.986V173.463H391.94V173.963H390.986ZM394.491 173.396C394.766 173.396 395.015 173.456 395.238 173.576C395.46 173.692 395.634 173.867 395.758 174.103C395.887 174.339 395.952 174.626 395.952 174.964V177.119H395.351V175.051C395.351 174.686 395.26 174.408 395.078 174.217C394.895 174.021 394.646 173.923 394.33 173.923C394.01 173.923 393.754 174.023 393.563 174.223C393.376 174.423 393.283 174.715 393.283 175.097V177.119H392.676V172.181H393.283V173.983C393.403 173.796 393.568 173.652 393.777 173.549C393.99 173.447 394.228 173.396 394.491 173.396Z" fill="#3C3C43" fill-opacity="0.6"/>
<path id="&#226;&#134;&#170; Label_2" d="M361.722 195.614C362.138 195.284 362.328 195.131 362.291 195.155C363.49 194.164 364.432 193.351 365.117 192.715C365.814 192.079 366.402 191.412 366.879 190.715C367.356 190.017 367.594 189.338 367.594 188.678C367.594 188.176 367.478 187.785 367.246 187.504C367.013 187.222 366.665 187.082 366.2 187.082C365.735 187.082 365.368 187.259 365.099 187.614C364.842 187.956 364.713 188.445 364.713 189.082H361.686C361.71 188.042 361.93 187.173 362.346 186.476C362.775 185.779 363.331 185.265 364.016 184.935C364.713 184.604 365.484 184.439 366.328 184.439C367.784 184.439 368.879 184.812 369.613 185.559C370.359 186.305 370.732 187.277 370.732 188.476C370.732 189.785 370.285 191.002 369.392 192.128C368.499 193.241 367.362 194.329 365.98 195.394H370.934V197.944H361.722V195.614ZM372.205 195.614C372.621 195.284 372.811 195.131 372.774 195.155C373.973 194.164 374.915 193.351 375.6 192.715C376.297 192.079 376.884 191.412 377.361 190.715C377.838 190.017 378.077 189.338 378.077 188.678C378.077 188.176 377.961 187.785 377.728 187.504C377.496 187.222 377.147 187.082 376.682 187.082C376.218 187.082 375.851 187.259 375.581 187.614C375.325 187.956 375.196 188.445 375.196 189.082H372.169C372.193 188.042 372.413 187.173 372.829 186.476C373.257 185.779 373.814 185.265 374.499 184.935C375.196 184.604 375.967 184.439 376.811 184.439C378.267 184.439 379.361 184.812 380.095 185.559C380.842 186.305 381.215 187.277 381.215 188.476C381.215 189.785 380.768 191.002 379.875 192.128C378.982 193.241 377.845 194.329 376.462 195.394H381.417V197.944H372.205V195.614ZM382.798 191.247C382.798 189.143 383.202 187.485 384.009 186.274C384.829 185.063 386.144 184.458 387.954 184.458C389.765 184.458 391.074 185.063 391.881 186.274C392.701 187.485 393.11 189.143 393.11 191.247C393.11 193.375 392.701 195.045 391.881 196.256C391.074 197.467 389.765 198.073 387.954 198.073C386.144 198.073 384.829 197.467 384.009 196.256C383.202 195.045 382.798 193.375 382.798 191.247ZM390.028 191.247C390.028 190.011 389.893 189.063 389.624 188.403C389.355 187.73 388.798 187.393 387.954 187.393C387.11 187.393 386.554 187.73 386.284 188.403C386.015 189.063 385.881 190.011 385.881 191.247C385.881 192.079 385.93 192.77 386.028 193.32C386.125 193.859 386.321 194.299 386.615 194.641C386.921 194.972 387.367 195.137 387.954 195.137C388.541 195.137 388.982 194.972 389.275 194.641C389.581 194.299 389.783 193.859 389.881 193.32C389.979 192.77 390.028 192.079 390.028 191.247ZM398.456 195.229L396.42 200.495H394.419L395.484 195.229H398.456ZM400.146 188.513C400.195 187.204 400.624 186.195 401.431 185.485C402.238 184.776 403.333 184.421 404.715 184.421C405.633 184.421 406.416 184.58 407.064 184.898C407.725 185.216 408.22 185.65 408.55 186.201C408.893 186.751 409.064 187.369 409.064 188.054C409.064 188.861 408.862 189.522 408.459 190.036C408.055 190.537 407.584 190.88 407.046 191.063V191.137C407.743 191.369 408.294 191.754 408.697 192.293C409.101 192.831 409.303 193.522 409.303 194.366C409.303 195.125 409.125 195.797 408.771 196.385C408.428 196.96 407.92 197.412 407.248 197.742C406.587 198.073 405.798 198.238 404.881 198.238C403.413 198.238 402.238 197.877 401.357 197.155C400.489 196.434 400.03 195.345 399.981 193.889H403.027C403.039 194.427 403.192 194.855 403.486 195.174C403.78 195.479 404.208 195.632 404.77 195.632C405.248 195.632 405.615 195.498 405.871 195.229C406.141 194.947 406.275 194.58 406.275 194.128C406.275 193.54 406.085 193.118 405.706 192.862C405.339 192.592 404.746 192.458 403.926 192.458H403.339V189.907H403.926C404.55 189.907 405.052 189.803 405.431 189.595C405.822 189.375 406.018 188.99 406.018 188.439C406.018 187.999 405.896 187.656 405.651 187.412C405.407 187.167 405.07 187.045 404.642 187.045C404.177 187.045 403.829 187.185 403.596 187.467C403.376 187.748 403.247 188.097 403.211 188.513H400.146ZM411.22 195.742V193.21L417.018 184.916H420.523V193.027H422.027V195.742H420.523V198.128H417.385V195.742H411.22ZM417.605 188.366L414.523 193.027H417.605V188.366ZM423.454 195.614C423.87 195.284 424.06 195.131 424.023 195.155C425.222 194.164 426.164 193.351 426.849 192.715C427.546 192.079 428.133 191.412 428.61 190.715C429.087 190.017 429.326 189.338 429.326 188.678C429.326 188.176 429.21 187.785 428.977 187.504C428.745 187.222 428.396 187.082 427.931 187.082C427.467 187.082 427.1 187.259 426.83 187.614C426.574 187.956 426.445 188.445 426.445 189.082H423.417C423.442 188.042 423.662 187.173 424.078 186.476C424.506 185.779 425.063 185.265 425.748 184.935C426.445 184.604 427.216 184.439 428.06 184.439C429.516 184.439 430.61 184.812 431.344 185.559C432.091 186.305 432.464 187.277 432.464 188.476C432.464 189.785 432.017 191.002 431.124 192.128C430.231 193.241 429.094 194.329 427.711 195.394H432.665V197.944H423.454V195.614ZM437.735 195.229L435.698 200.495H433.698L434.763 195.229H437.735ZM438.985 187.65V184.733H444.068V198.128H440.802V187.65H438.985ZM446.104 195.614C446.52 195.284 446.71 195.131 446.673 195.155C447.872 194.164 448.814 193.351 449.499 192.715C450.196 192.079 450.783 191.412 451.26 190.715C451.737 190.017 451.976 189.338 451.976 188.678C451.976 188.176 451.86 187.785 451.627 187.504C451.395 187.222 451.046 187.082 450.581 187.082C450.116 187.082 449.749 187.259 449.48 187.614C449.223 187.956 449.095 188.445 449.095 189.082H446.067C446.092 188.042 446.312 187.173 446.728 186.476C447.156 185.779 447.713 185.265 448.398 184.935C449.095 184.604 449.866 184.439 450.71 184.439C452.165 184.439 453.26 184.812 453.994 185.559C454.74 186.305 455.114 187.277 455.114 188.476C455.114 189.785 454.667 191.002 453.774 192.128C452.881 193.241 451.743 194.329 450.361 195.394H455.315V197.944H446.104V195.614ZM456.807 188.513C456.856 187.204 457.284 186.195 458.091 185.485C458.899 184.776 459.994 184.421 461.376 184.421C462.293 184.421 463.076 184.58 463.725 184.898C464.385 185.216 464.881 185.65 465.211 186.201C465.553 186.751 465.725 187.369 465.725 188.054C465.725 188.861 465.523 189.522 465.119 190.036C464.716 190.537 464.245 190.88 463.706 191.063V191.137C464.404 191.369 464.954 191.754 465.358 192.293C465.761 192.831 465.963 193.522 465.963 194.366C465.963 195.125 465.786 195.797 465.431 196.385C465.089 196.96 464.581 197.412 463.908 197.742C463.248 198.073 462.459 198.238 461.541 198.238C460.073 198.238 458.899 197.877 458.018 197.155C457.149 196.434 456.691 195.345 456.642 193.889H459.688C459.7 194.427 459.853 194.855 460.147 195.174C460.44 195.479 460.868 195.632 461.431 195.632C461.908 195.632 462.275 195.498 462.532 195.229C462.801 194.947 462.936 194.58 462.936 194.128C462.936 193.54 462.746 193.118 462.367 192.862C462 192.592 461.407 192.458 460.587 192.458H460V189.907H460.587C461.211 189.907 461.712 189.803 462.092 189.595C462.483 189.375 462.679 188.99 462.679 188.439C462.679 187.999 462.556 187.656 462.312 187.412C462.067 187.167 461.731 187.045 461.303 187.045C460.838 187.045 460.489 187.185 460.257 187.467C460.036 187.748 459.908 188.097 459.871 188.513H456.807Z" fill="#11263C"/>
<path id="&#226;&#134;&#170; Label_3" d="M366.352 215.551C365.891 215.551 365.478 215.471 365.111 215.311C364.75 215.144 364.467 214.918 364.26 214.631C364.053 214.337 363.946 214 363.94 213.62H364.911C364.944 213.947 365.077 214.224 365.311 214.451C365.551 214.671 365.898 214.781 366.352 214.781C366.785 214.781 367.126 214.674 367.373 214.461C367.626 214.24 367.753 213.96 367.753 213.62C367.753 213.353 367.68 213.136 367.533 212.969C367.386 212.802 367.203 212.676 366.982 212.589C366.762 212.502 366.465 212.409 366.092 212.309C365.631 212.189 365.261 212.068 364.981 211.948C364.707 211.828 364.47 211.641 364.27 211.388C364.076 211.128 363.98 210.781 363.98 210.347C363.98 209.967 364.076 209.63 364.27 209.336C364.463 209.042 364.734 208.816 365.081 208.655C365.434 208.495 365.838 208.415 366.292 208.415C366.946 208.415 367.479 208.579 367.893 208.906C368.313 209.233 368.55 209.666 368.604 210.207H367.603C367.569 209.94 367.429 209.706 367.182 209.506C366.936 209.299 366.609 209.196 366.202 209.196C365.821 209.196 365.511 209.296 365.271 209.496C365.031 209.69 364.911 209.963 364.911 210.317C364.911 210.57 364.981 210.777 365.121 210.937C365.267 211.098 365.444 211.221 365.651 211.308C365.865 211.388 366.162 211.481 366.542 211.588C367.002 211.715 367.373 211.842 367.653 211.968C367.933 212.088 368.173 212.279 368.374 212.539C368.574 212.792 368.674 213.139 368.674 213.58C368.674 213.92 368.584 214.24 368.404 214.541C368.223 214.841 367.956 215.084 367.603 215.271C367.249 215.458 366.832 215.551 366.352 215.551ZM375.018 212.529C375.018 212.702 375.008 212.886 374.988 213.079H370.605C370.638 213.62 370.821 214.043 371.155 214.35C371.495 214.651 371.906 214.801 372.386 214.801C372.78 214.801 373.107 214.711 373.367 214.531C373.634 214.344 373.821 214.097 373.927 213.79H374.908C374.762 214.317 374.468 214.747 374.028 215.081C373.587 215.408 373.04 215.571 372.386 215.571C371.866 215.571 371.399 215.455 370.985 215.221C370.578 214.988 370.258 214.657 370.024 214.23C369.791 213.797 369.674 213.296 369.674 212.729C369.674 212.162 369.787 211.665 370.014 211.238C370.241 210.811 370.558 210.484 370.965 210.257C371.379 210.023 371.852 209.907 372.386 209.907C372.907 209.907 373.367 210.02 373.767 210.247C374.168 210.474 374.475 210.787 374.688 211.188C374.908 211.581 375.018 212.028 375.018 212.529ZM374.078 212.339C374.078 211.992 374.001 211.695 373.847 211.448C373.694 211.194 373.484 211.004 373.217 210.877C372.957 210.744 372.666 210.677 372.346 210.677C371.886 210.677 371.492 210.824 371.165 211.118C370.845 211.411 370.661 211.818 370.615 212.339H374.078ZM377.131 211.008C377.312 210.694 377.578 210.434 377.932 210.227C378.292 210.013 378.709 209.907 379.183 209.907C379.67 209.907 380.111 210.023 380.504 210.257C380.905 210.49 381.218 210.821 381.445 211.248C381.672 211.668 381.785 212.159 381.785 212.719C381.785 213.273 381.672 213.767 381.445 214.2C381.218 214.634 380.905 214.971 380.504 215.211C380.111 215.451 379.67 215.571 379.183 215.571C378.716 215.571 378.302 215.468 377.942 215.261C377.588 215.048 377.318 214.784 377.131 214.471V218.084H376.221V209.997H377.131V211.008ZM380.855 212.719C380.855 212.305 380.771 211.945 380.604 211.638C380.438 211.331 380.211 211.098 379.924 210.937C379.644 210.777 379.333 210.697 378.993 210.697C378.659 210.697 378.349 210.781 378.062 210.947C377.782 211.108 377.555 211.344 377.382 211.658C377.215 211.965 377.131 212.322 377.131 212.729C377.131 213.143 377.215 213.506 377.382 213.82C377.555 214.127 377.782 214.364 378.062 214.531C378.349 214.691 378.659 214.771 378.993 214.771C379.333 214.771 379.644 214.691 379.924 214.531C380.211 214.364 380.438 214.127 380.604 213.82C380.771 213.506 380.855 213.139 380.855 212.719ZM384.095 210.747V213.98C384.095 214.247 384.152 214.437 384.265 214.551C384.379 214.657 384.576 214.711 384.856 214.711H385.527V215.481H384.706C384.199 215.481 383.818 215.365 383.565 215.131C383.311 214.898 383.185 214.514 383.185 213.98V210.747H382.474V209.997H383.185V208.615H384.095V209.997H385.527V210.747H384.095Z" fill="#3C3C43" fill-opacity="0.6"/>
</g>
</g>
<g id="Selector" filter="url(#filter2_dd)">
<rect x="408.99" y="248.521" width="16.6811" height="16.6811" rx="8.34057" fill="#422F8A" fill-opacity="0.87"/>
<rect x="410.658" y="250.189" width="13.3449" height="13.3449" rx="6.67246" stroke="white" stroke-width="3.33623"/>
</g>
</g>
</g>
</g>
</g>
<g id="Eth &#62; Usd">
<path id="ETH" opacity="0.4" d="M92.9714 463H98.8154V461.632H94.4834V459.328H98.3834V457.96H94.4834V455.872H98.5994V454.504H92.9714V463ZM102.047 463H103.559V455.872H106.163V454.504H99.4434V455.872H102.047V463ZM107.198 463H108.71V459.256H112.682V463H114.194V454.504H112.682V457.888H108.71V454.504H107.198V463ZM121.911 463H123.351V454.504H122.043L119.475 456.64L120.315 457.636L121.911 456.16V463ZM126.277 458.752C126.277 462.772 128.401 463.144 129.349 463.144C130.297 463.144 132.421 462.772 132.421 458.752C132.421 454.732 130.297 454.36 129.349 454.36C128.401 454.36 126.277 454.732 126.277 458.752ZM127.717 458.752C127.717 457.696 127.909 455.728 129.349 455.728C130.789 455.728 130.981 457.696 130.981 458.752C130.981 459.808 130.789 461.776 129.349 461.776C127.909 461.776 127.717 459.808 127.717 458.752ZM138.958 454.504H134.122L134.038 459.088C134.542 458.836 135.19 458.68 135.814 458.68C136.87 458.68 137.806 459.136 137.806 460.324C137.806 461.152 137.194 461.776 136.33 461.776C135.598 461.776 135.13 461.404 134.938 460.792L133.426 461.2C133.822 462.508 134.83 463.144 136.174 463.144C137.914 463.144 139.246 462.028 139.246 460.204C139.246 458.488 138.082 457.384 136.414 457.384C136.114 457.384 135.73 457.42 135.502 457.492L135.538 455.8H138.958V454.504Z" fill="#4C4C66"/>
<path id="ETH_2" opacity="0.4" d="M213.971 463H219.815V461.632H215.483V459.328H219.383V457.96H215.483V455.872H219.599V454.504H213.971V463ZM223.047 463H224.559V455.872H227.163V454.504H220.443V455.872H223.047V463ZM228.198 463H229.71V459.256H233.682V463H235.194V454.504H233.682V457.888H229.71V454.504H228.198V463ZM243.715 463H245.155V461.272H246.391V459.976H245.155V454.504H243.523L240.103 459.844V461.272H243.715V463ZM243.715 459.976H241.567L243.691 456.544H243.715V459.976ZM247.301 455.872H251.453L247.985 463H249.677L253.073 455.824V454.504H247.301V455.872ZM254.402 455.872H258.554L255.086 463H256.778L260.174 455.824V454.504H254.402V455.872Z" fill="#4C4C66"/>
<path id="ETH_3" opacity="0.4" d="M337.618 463H343.306V461.704H339.37L341.998 459.268C342.754 458.572 343.306 457.84 343.306 456.772C343.306 455.14 342.082 454.36 340.558 454.36C339.022 454.36 337.882 455.188 337.738 456.76L339.25 456.88C339.346 456.184 339.85 455.728 340.558 455.728C341.218 455.728 341.794 456.148 341.794 456.844C341.794 457.432 341.314 457.9 340.918 458.284L337.618 461.476V463ZM348.032 463H349.472V461.272H350.708V459.976H349.472V454.504H347.84L344.42 459.844V461.272H348.032V463ZM348.032 459.976H345.884L348.008 456.544H348.032V459.976ZM357.173 460.912C357.173 462.148 358.169 463.144 359.405 463.144C360.641 463.144 361.637 462.148 361.637 460.912C361.637 459.676 360.641 458.68 359.405 458.68C358.169 458.68 357.173 459.676 357.173 460.912ZM360.485 460.912C360.485 461.512 360.005 461.992 359.405 461.992C358.805 461.992 358.325 461.512 358.325 460.912C358.325 460.312 358.805 459.832 359.405 459.832C360.005 459.832 360.485 460.312 360.485 460.912ZM351.473 456.592C351.473 457.828 352.469 458.824 353.705 458.824C354.941 458.824 355.937 457.828 355.937 456.592C355.937 455.356 354.941 454.36 353.705 454.36C352.469 454.36 351.473 455.356 351.473 456.592ZM354.785 456.592C354.785 457.192 354.305 457.672 353.705 457.672C353.105 457.672 352.625 457.192 352.625 456.592C352.625 455.992 353.105 455.512 353.705 455.512C354.305 455.512 354.785 455.992 354.785 456.592ZM353.573 462.928L354.569 463.384L359.561 454.576L358.565 454.12L353.573 462.928Z" fill="#4C4C66"/>
<path id="ETH_4" opacity="0.4" d="M462.975 463H468.819V461.632H464.487V459.328H468.387V457.96H464.487V455.872H468.603V454.504H462.975V463ZM472.051 463H473.563V455.872H476.167V454.504H469.447V455.872H472.051V463ZM477.202 463H478.714V459.256H482.686V463H484.198V454.504H482.686V457.888H478.714V454.504H477.202V463ZM491.363 459.22H491.711C492.587 459.22 493.595 459.412 493.595 460.516C493.595 461.308 492.935 461.848 492.167 461.848C491.399 461.848 490.967 461.44 490.787 460.744L489.251 461.152C489.623 462.568 490.775 463.144 492.167 463.144C493.679 463.144 495.035 462.256 495.035 460.636C495.035 459.592 494.459 458.728 493.379 458.572V458.548C494.279 458.32 494.831 457.54 494.831 456.628C494.831 455.128 493.571 454.36 492.107 454.36C490.859 454.36 489.755 454.924 489.383 456.184L490.907 456.592C491.111 456.004 491.603 455.656 492.179 455.656C492.887 455.656 493.391 456.124 493.391 456.772C493.391 457.804 492.563 457.924 491.735 457.924H491.363V459.22ZM499.821 463H501.261V461.272H502.497V459.976H501.261V454.504H499.629L496.209 459.844V461.272H499.821V463ZM499.821 459.976H497.673L499.797 456.544H499.821V459.976ZM503.718 462.16C503.718 462.676 504.174 463.072 504.678 463.072C505.206 463.072 505.638 462.652 505.638 462.136C505.638 461.62 505.194 461.224 504.678 461.224C504.15 461.224 503.718 461.644 503.718 462.16ZM506.957 455.872H511.109L507.641 463H509.333L512.729 455.824V454.504H506.957V455.872ZM514.371 463H515.811V460.06H515.835L518.127 463H520.035L517.407 459.856L519.879 457.24H518.031L515.811 459.628V453.928H514.371V463Z" fill="#4C4C66"/>
</g>
<g id="+132%">
<path id="+132%_2" d="M102.726 420.096H105.234V422.604H106.092V420.096H108.6V419.238H106.092V416.73H105.234V419.238H102.726V420.096ZM112.296 423H113.352V415.212H112.417L110.25 417.005L110.866 417.742L112.296 416.422V423ZM115.944 421.438C116.296 422.615 117.264 423.132 118.452 423.132C119.827 423.132 121.048 422.373 121.048 420.877C121.048 419.92 120.498 419.084 119.519 418.919V418.897C120.311 418.666 120.85 417.951 120.85 417.137C120.85 415.696 119.739 415.014 118.463 415.014C117.429 415.014 116.516 415.487 116.109 416.477L117.187 416.84C117.418 416.301 117.913 415.938 118.485 415.938C119.233 415.938 119.794 416.378 119.794 417.203C119.794 417.973 119.409 418.424 117.803 418.424V419.348C118.793 419.348 119.992 419.502 119.992 420.8C119.992 421.636 119.299 422.208 118.485 422.208C117.66 422.208 117.308 421.845 117.055 421.097L115.944 421.438ZM122.057 423H127.161V422.076H123.245L125.808 419.601C126.501 418.93 127.161 418.193 127.161 417.17C127.161 415.74 126.05 415.014 124.708 415.014C123.366 415.014 122.343 415.663 122.134 417.038L123.278 417.137C123.41 416.4 123.938 415.938 124.697 415.938C125.434 415.938 126.039 416.411 126.039 417.181C126.039 417.819 125.61 418.358 125.181 418.776L122.057 421.878V423ZM128.07 416.961C128.07 418.039 128.939 418.908 130.017 418.908C131.095 418.908 131.964 418.039 131.964 416.961C131.964 415.883 131.095 415.014 130.017 415.014C128.939 415.014 128.07 415.883 128.07 416.961ZM128.928 416.961C128.928 416.356 129.412 415.872 130.017 415.872C130.622 415.872 131.106 416.356 131.106 416.961C131.106 417.566 130.622 418.05 130.017 418.05C129.412 418.05 128.928 417.566 128.928 416.961ZM132.734 421.251C132.734 422.329 133.603 423.198 134.681 423.198C135.759 423.198 136.628 422.329 136.628 421.251C136.628 420.173 135.759 419.304 134.681 419.304C133.603 419.304 132.734 420.173 132.734 421.251ZM133.592 421.251C133.592 420.646 134.076 420.162 134.681 420.162C135.286 420.162 135.77 420.646 135.77 421.251C135.77 421.856 135.286 422.34 134.681 422.34C134.076 422.34 133.592 421.856 133.592 421.251ZM135.143 415.201L134.483 414.86L129.588 423L130.248 423.341L135.143 415.201Z" fill="#2BB596"/>
<path id="Up Arrow" d="M95.0051 420.606L94.2475 421.515C93.9685 421.85 93.5163 421.85 93.2373 421.515C92.9584 421.18 92.9584 420.638 93.2373 420.303L93.9949 419.394L92 417H97V423L95.0051 420.606Z" fill="#31D0AD"/>
</g>
<g id="+132%_3">
<path id="+132%_4" d="M223.726 420.096H226.234V422.604H227.092V420.096H229.6V419.238H227.092V416.73H226.234V419.238H223.726V420.096ZM233.296 423H234.352V415.212H233.417L231.25 417.005L231.866 417.742L233.296 416.422V423ZM236.944 421.438C237.296 422.615 238.264 423.132 239.452 423.132C240.827 423.132 242.048 422.373 242.048 420.877C242.048 419.92 241.498 419.084 240.519 418.919V418.897C241.311 418.666 241.85 417.951 241.85 417.137C241.85 415.696 240.739 415.014 239.463 415.014C238.429 415.014 237.516 415.487 237.109 416.477L238.187 416.84C238.418 416.301 238.913 415.938 239.485 415.938C240.233 415.938 240.794 416.378 240.794 417.203C240.794 417.973 240.409 418.424 238.803 418.424V419.348C239.793 419.348 240.992 419.502 240.992 420.8C240.992 421.636 240.299 422.208 239.485 422.208C238.66 422.208 238.308 421.845 238.055 421.097L236.944 421.438ZM243.057 423H248.161V422.076H244.245L246.808 419.601C247.501 418.93 248.161 418.193 248.161 417.17C248.161 415.74 247.05 415.014 245.708 415.014C244.366 415.014 243.343 415.663 243.134 417.038L244.278 417.137C244.41 416.4 244.938 415.938 245.697 415.938C246.434 415.938 247.039 416.411 247.039 417.181C247.039 417.819 246.61 418.358 246.181 418.776L243.057 421.878V423ZM249.07 416.961C249.07 418.039 249.939 418.908 251.017 418.908C252.095 418.908 252.964 418.039 252.964 416.961C252.964 415.883 252.095 415.014 251.017 415.014C249.939 415.014 249.07 415.883 249.07 416.961ZM249.928 416.961C249.928 416.356 250.412 415.872 251.017 415.872C251.622 415.872 252.106 416.356 252.106 416.961C252.106 417.566 251.622 418.05 251.017 418.05C250.412 418.05 249.928 417.566 249.928 416.961ZM253.734 421.251C253.734 422.329 254.603 423.198 255.681 423.198C256.759 423.198 257.628 422.329 257.628 421.251C257.628 420.173 256.759 419.304 255.681 419.304C254.603 419.304 253.734 420.173 253.734 421.251ZM254.592 421.251C254.592 420.646 255.076 420.162 255.681 420.162C256.286 420.162 256.77 420.646 256.77 421.251C256.77 421.856 256.286 422.34 255.681 422.34C255.076 422.34 254.592 421.856 254.592 421.251ZM256.143 415.201L255.483 414.86L250.588 423L251.248 423.341L256.143 415.201Z" fill="#2BB596"/>
<path id="Up Arrow_2" d="M216.005 420.606L215.247 421.515C214.969 421.85 214.516 421.85 214.237 421.515C213.958 421.18 213.958 420.638 214.237 420.303L214.995 419.394L213 417H218V423L216.005 420.606Z" fill="#31D0AD"/>
</g>
<g id="+132%_5">
<path id="+132%_6" d="M346.726 420.096H349.234V422.604H350.092V420.096H352.6V419.238H350.092V416.73H349.234V419.238H346.726V420.096ZM356.296 423H357.352V415.212H356.417L354.25 417.005L354.866 417.742L356.296 416.422V423ZM359.944 421.438C360.296 422.615 361.264 423.132 362.452 423.132C363.827 423.132 365.048 422.373 365.048 420.877C365.048 419.92 364.498 419.084 363.519 418.919V418.897C364.311 418.666 364.85 417.951 364.85 417.137C364.85 415.696 363.739 415.014 362.463 415.014C361.429 415.014 360.516 415.487 360.109 416.477L361.187 416.84C361.418 416.301 361.913 415.938 362.485 415.938C363.233 415.938 363.794 416.378 363.794 417.203C363.794 417.973 363.409 418.424 361.803 418.424V419.348C362.793 419.348 363.992 419.502 363.992 420.8C363.992 421.636 363.299 422.208 362.485 422.208C361.66 422.208 361.308 421.845 361.055 421.097L359.944 421.438ZM366.057 423H371.161V422.076H367.245L369.808 419.601C370.501 418.93 371.161 418.193 371.161 417.17C371.161 415.74 370.05 415.014 368.708 415.014C367.366 415.014 366.343 415.663 366.134 417.038L367.278 417.137C367.41 416.4 367.938 415.938 368.697 415.938C369.434 415.938 370.039 416.411 370.039 417.181C370.039 417.819 369.61 418.358 369.181 418.776L366.057 421.878V423ZM372.07 416.961C372.07 418.039 372.939 418.908 374.017 418.908C375.095 418.908 375.964 418.039 375.964 416.961C375.964 415.883 375.095 415.014 374.017 415.014C372.939 415.014 372.07 415.883 372.07 416.961ZM372.928 416.961C372.928 416.356 373.412 415.872 374.017 415.872C374.622 415.872 375.106 416.356 375.106 416.961C375.106 417.566 374.622 418.05 374.017 418.05C373.412 418.05 372.928 417.566 372.928 416.961ZM376.734 421.251C376.734 422.329 377.603 423.198 378.681 423.198C379.759 423.198 380.628 422.329 380.628 421.251C380.628 420.173 379.759 419.304 378.681 419.304C377.603 419.304 376.734 420.173 376.734 421.251ZM377.592 421.251C377.592 420.646 378.076 420.162 378.681 420.162C379.286 420.162 379.77 420.646 379.77 421.251C379.77 421.856 379.286 422.34 378.681 422.34C378.076 422.34 377.592 421.856 377.592 421.251ZM379.143 415.201L378.483 414.86L373.588 423L374.248 423.341L379.143 415.201Z" fill="#2BB596"/>
<path id="Up Arrow_3" d="M339.005 420.606L338.247 421.515C337.969 421.85 337.516 421.85 337.237 421.515C336.958 421.18 336.958 420.638 337.237 420.303L337.995 419.394L336 417H341V423L339.005 420.606Z" fill="#31D0AD"/>
</g>
<g id="+132%_7">
<path id="+132%_8" d="M472.726 420.096H475.234V422.604H476.092V420.096H478.6V419.238H476.092V416.73H475.234V419.238H472.726V420.096ZM482.296 423H483.352V415.212H482.417L480.25 417.005L480.866 417.742L482.296 416.422V423ZM485.944 421.438C486.296 422.615 487.264 423.132 488.452 423.132C489.827 423.132 491.048 422.373 491.048 420.877C491.048 419.92 490.498 419.084 489.519 418.919V418.897C490.311 418.666 490.85 417.951 490.85 417.137C490.85 415.696 489.739 415.014 488.463 415.014C487.429 415.014 486.516 415.487 486.109 416.477L487.187 416.84C487.418 416.301 487.913 415.938 488.485 415.938C489.233 415.938 489.794 416.378 489.794 417.203C489.794 417.973 489.409 418.424 487.803 418.424V419.348C488.793 419.348 489.992 419.502 489.992 420.8C489.992 421.636 489.299 422.208 488.485 422.208C487.66 422.208 487.308 421.845 487.055 421.097L485.944 421.438ZM492.057 423H497.161V422.076H493.245L495.808 419.601C496.501 418.93 497.161 418.193 497.161 417.17C497.161 415.74 496.05 415.014 494.708 415.014C493.366 415.014 492.343 415.663 492.134 417.038L493.278 417.137C493.41 416.4 493.938 415.938 494.697 415.938C495.434 415.938 496.039 416.411 496.039 417.181C496.039 417.819 495.61 418.358 495.181 418.776L492.057 421.878V423ZM498.07 416.961C498.07 418.039 498.939 418.908 500.017 418.908C501.095 418.908 501.964 418.039 501.964 416.961C501.964 415.883 501.095 415.014 500.017 415.014C498.939 415.014 498.07 415.883 498.07 416.961ZM498.928 416.961C498.928 416.356 499.412 415.872 500.017 415.872C500.622 415.872 501.106 416.356 501.106 416.961C501.106 417.566 500.622 418.05 500.017 418.05C499.412 418.05 498.928 417.566 498.928 416.961ZM502.734 421.251C502.734 422.329 503.603 423.198 504.681 423.198C505.759 423.198 506.628 422.329 506.628 421.251C506.628 420.173 505.759 419.304 504.681 419.304C503.603 419.304 502.734 420.173 502.734 421.251ZM503.592 421.251C503.592 420.646 504.076 420.162 504.681 420.162C505.286 420.162 505.77 420.646 505.77 421.251C505.77 421.856 505.286 422.34 504.681 422.34C504.076 422.34 503.592 421.856 503.592 421.251ZM505.143 415.201L504.483 414.86L499.588 423L500.248 423.341L505.143 415.201Z" fill="#2BB596"/>
<path id="Up Arrow_4" d="M465.005 420.606L464.247 421.515C463.969 421.85 463.516 421.85 463.237 421.515C462.958 421.18 462.958 420.638 463.237 420.303L463.995 419.394L462 417H467V423L465.005 420.606Z" fill="#31D0AD"/>
</g>
<path id="465,22" opacity="0.7" d="M216.668 443H217.802L221.68 433.088H220.434L217.284 441.236H217.256L214.204 433.088H212.874L216.668 443ZM221.451 439.724C221.451 441.768 222.935 443.168 224.951 443.168C226.967 443.168 228.451 441.768 228.451 439.724C228.451 437.68 226.967 436.28 224.951 436.28C222.935 436.28 221.451 437.68 221.451 439.724ZM222.627 439.724C222.627 438.352 223.537 437.288 224.951 437.288C226.365 437.288 227.275 438.352 227.275 439.724C227.275 441.096 226.365 442.16 224.951 442.16C223.537 442.16 222.627 441.096 222.627 439.724ZM230.239 443H231.331V432.416H230.239V443ZM239.217 436.448H238.125V439.64C238.125 441.138 237.509 442.16 236.095 442.16C235.073 442.16 234.597 441.474 234.597 440.382V436.448H233.505V440.494C233.505 442.076 234.275 443.168 235.997 443.168C237.075 443.168 237.887 442.566 238.181 441.922H238.209C238.209 442.286 238.237 442.65 238.237 443H239.273C239.273 442.566 239.217 442.048 239.217 441.446V436.448ZM241.284 443H242.376V439.808C242.376 438.31 242.992 437.288 244.406 437.288C245.302 437.288 245.666 437.848 245.666 439.29V443H246.758V439.22C246.758 438.044 247.528 437.288 248.452 437.288C249.726 437.288 250.048 438.17 250.048 439.08V443H251.14V439.024C251.14 437.33 250.524 436.28 248.648 436.28C247.654 436.28 247.052 436.756 246.576 437.526C246.366 437.078 245.918 436.28 244.504 436.28C243.426 436.28 242.614 436.882 242.32 437.526H242.292C242.292 437.162 242.264 436.798 242.264 436.448H241.228C241.228 436.882 241.284 437.4 241.284 438.002V443ZM258.232 441.166C257.714 441.824 257.084 442.16 256.146 442.16C254.956 442.16 254.088 441.194 254.004 440.06H259.296V439.71C259.296 437.54 258.036 436.28 256.188 436.28C254.256 436.28 252.828 437.694 252.828 439.724C252.828 441.628 254.088 443.168 256.146 443.168C257.364 443.168 258.288 442.804 259.058 441.81L258.232 441.166ZM254.004 439.136C254.144 438.03 254.942 437.288 256.146 437.288C257.35 437.288 258.078 438.03 258.12 439.136H254.004Z" fill="#4C4C66"/>
<path id="465,22_2" opacity="0.7" d="M99.882 433.088H92.154V434.18H95.43V443H96.606V434.18H99.882V433.088ZM99.7899 443H100.882V439.808C100.882 438.31 101.47 437.372 102.8 437.372C102.996 437.372 103.206 437.4 103.388 437.456L103.458 436.35C103.304 436.294 103.15 436.28 103.01 436.28C101.932 436.28 101.12 436.882 100.826 437.526H100.798C100.798 437.162 100.77 436.798 100.77 436.448H99.7339C99.7339 436.882 99.7899 437.4 99.7899 438.002V443ZM105.314 438.002C105.832 437.526 106.56 437.288 107.26 437.288C108.282 437.288 108.884 437.778 108.884 438.73V438.926H108.464C106.854 438.926 104.334 439.052 104.334 441.222C104.334 442.496 105.44 443.168 106.77 443.168C107.764 443.168 108.492 442.692 108.926 442.02H108.954C108.954 442.3 108.954 442.706 109.024 443H110.074C110.018 442.664 109.976 442.244 109.976 441.866V439.052C109.976 437.204 109.164 436.28 107.232 436.28C106.28 436.28 105.3 436.602 104.628 437.288L105.314 438.002ZM108.884 439.85V440.27C108.856 441.334 108.212 442.244 106.952 442.244C106.126 442.244 105.51 441.936 105.51 441.11C105.51 440.228 106.406 439.85 107.792 439.85H108.884ZM111.972 443H113.064V439.808C113.064 438.31 113.68 437.288 115.094 437.288C116.116 437.288 116.592 437.974 116.592 439.066V443H117.684V438.954C117.684 437.372 116.914 436.28 115.192 436.28C114.114 436.28 113.302 436.882 113.008 437.526H112.98C112.98 437.162 112.952 436.798 112.952 436.448H111.916C111.916 436.882 111.972 437.4 111.972 438.002V443ZM119.023 441.95C119.667 442.874 120.465 443.168 121.571 443.168C122.873 443.168 124.189 442.594 124.189 441.11C124.189 439.794 123.209 439.374 122.047 439.15C121.179 438.982 120.395 438.744 120.395 438.198C120.395 437.582 121.081 437.288 121.683 437.288C122.327 437.288 122.789 437.61 123.069 438.072L123.979 437.47C123.531 436.63 122.677 436.28 121.753 436.28C120.535 436.28 119.303 436.938 119.303 438.212C119.303 439.57 120.367 439.836 121.613 440.116C122.313 440.27 123.013 440.452 123.013 441.152C123.013 441.866 122.257 442.16 121.571 442.16C120.801 442.16 120.325 441.81 119.891 441.278L119.023 441.95ZM125.656 446.192H126.748V441.838H126.776C127.182 442.58 128.12 443.168 129.296 443.168C131.13 443.168 132.572 441.684 132.572 439.724C132.572 437.736 131.186 436.28 129.128 436.28C128.176 436.28 127.378 436.7 126.776 437.4H126.748V436.448H125.656V446.192ZM126.748 439.724C126.748 438.352 127.658 437.288 129.072 437.288C130.486 437.288 131.396 438.352 131.396 439.724C131.396 441.096 130.486 442.16 129.072 442.16C127.658 442.16 126.748 441.096 126.748 439.724ZM140.799 443H141.933L145.811 433.088H144.565L141.415 441.236H141.387L138.335 433.088H137.005L140.799 443ZM145.582 439.724C145.582 441.768 147.066 443.168 149.082 443.168C151.098 443.168 152.582 441.768 152.582 439.724C152.582 437.68 151.098 436.28 149.082 436.28C147.066 436.28 145.582 437.68 145.582 439.724ZM146.758 439.724C146.758 438.352 147.668 437.288 149.082 437.288C150.496 437.288 151.406 438.352 151.406 439.724C151.406 441.096 150.496 442.16 149.082 442.16C147.668 442.16 146.758 441.096 146.758 439.724ZM154.37 443H155.462V432.416H154.37V443ZM158.546 441.404C158.084 441.404 157.706 441.782 157.706 442.244C157.706 442.706 158.112 443.084 158.546 443.084C158.98 443.084 159.386 442.706 159.386 442.244C159.386 441.782 159.008 441.404 158.546 441.404Z" fill="#4C4C66"/>
<path id="465,22_3" opacity="0.7" d="M336.084 443H337.414L338.436 440.564H343.392L344.4 443H345.772L341.558 433.088H340.452L336.084 443ZM342.944 439.472H338.898L340.956 434.6H340.984L342.944 439.472ZM353.739 433.088H346.011V434.18H349.287V443H350.463V434.18H353.739V433.088ZM355.128 443H356.304V438.38H361.596V443H362.772V433.088H361.596V437.288H356.304V433.088H355.128V443Z" fill="#4C4C66"/>
<path id="465,22_4" opacity="0.7" d="M463.232 443H464.408V434.684H464.436L467.992 443H468.706L472.262 434.684H472.29V443H473.466V433.088H471.758L468.37 440.858H468.342L464.982 433.088H463.232V443ZM475.737 443H476.829V439.556L480.077 443H481.687L478.201 439.43L481.365 436.448H479.811L476.829 439.332V432.416H475.737V443ZM486.321 436.448H484.389V434.586H483.297V436.448H481.869V437.372H483.297V440.97C483.297 442.328 483.549 443.168 485.103 443.168C485.509 443.168 485.999 443.098 486.377 442.93L486.335 441.936C486.041 442.09 485.691 442.16 485.369 442.16C484.403 442.16 484.389 441.488 484.389 440.648V437.372H486.321V436.448ZM499.718 434.39C498.878 433.298 497.562 432.836 496.218 432.836C493.278 432.836 491.178 435.132 491.178 438.044C491.178 441.054 493.376 443.252 496.218 443.252C497.8 443.252 499.088 442.706 499.97 441.516L499.088 440.774C498.388 441.67 497.422 442.16 496.218 442.16C493.992 442.16 492.438 440.34 492.438 438.044C492.438 435.874 494.006 433.928 496.218 433.928C497.17 433.928 498.108 434.334 498.696 435.132L499.718 434.39ZM502.015 438.002C502.533 437.526 503.261 437.288 503.961 437.288C504.983 437.288 505.585 437.778 505.585 438.73V438.926H505.165C503.555 438.926 501.035 439.052 501.035 441.222C501.035 442.496 502.141 443.168 503.471 443.168C504.465 443.168 505.193 442.692 505.627 442.02H505.655C505.655 442.3 505.655 442.706 505.725 443H506.775C506.719 442.664 506.677 442.244 506.677 441.866V439.052C506.677 437.204 505.865 436.28 503.933 436.28C502.981 436.28 502.001 436.602 501.329 437.288L502.015 438.002ZM505.585 439.85V440.27C505.557 441.334 504.913 442.244 503.653 442.244C502.827 442.244 502.211 441.936 502.211 441.11C502.211 440.228 503.107 439.85 504.493 439.85H505.585ZM508.617 446.192H509.709V441.838H509.737C510.143 442.58 511.081 443.168 512.257 443.168C514.091 443.168 515.533 441.684 515.533 439.724C515.533 437.736 514.147 436.28 512.089 436.28C511.137 436.28 510.339 436.7 509.737 437.4H509.709V436.448H508.617V446.192ZM509.709 439.724C509.709 438.352 510.619 437.288 512.033 437.288C513.447 437.288 514.357 438.352 514.357 439.724C514.357 441.096 513.447 442.16 512.033 442.16C510.619 442.16 509.709 441.096 509.709 439.724Z" fill="#4C4C66"/>
<g id="Group 98">
<g id="WISEgd 1" clip-path="url(#clip2)">
<g id="Layer x0020 1">
<g id="2402674049952">
<path id="Vector" fill-rule="evenodd" clip-rule="evenodd" d="M41.4799 26.0351H43.982L43.73 35.9314C54.0877 36.583 57.4659 38.244 65.7738 44.4724C72.4499 39.5127 79.5268 35.989 88.0465 35.9371L88.0351 25.9948L90.583 26.0294L90.417 35.3028C90.3654 38.0825 90.0448 37.9037 87.348 38.267C77.6659 39.5761 73.9443 40.8218 65.9226 47.6846C57.9983 41.6811 53.6927 38.9418 44.3942 38.3132C41.4398 38.1113 41.102 37.9614 41.3081 35.5104L41.4741 26.0294L41.4799 26.0351Z" fill="#151A3A"/>
<path id="Vector_2" fill-rule="evenodd" clip-rule="evenodd" d="M35.817 31.5889H38.3192L38.4108 36.8138C38.6684 41.958 43.0256 40.9546 46.2721 41.4505C55.9141 42.9269 59.3151 45.9373 66.2031 52.4021C72.7933 43.9707 80.729 41.71 90.892 41.0122C92.3349 40.9142 93.5144 38.89 93.5373 37.5462L93.6518 31.6581L96.1997 31.6927L95.9363 37.4424C95.7932 40.5105 93.606 43.4632 90.4225 43.6535C78.6392 44.3744 72.9364 47.7193 66.1286 56.3583C59.4983 48.6997 54.7575 44.5936 44.1937 43.7804C39.9338 43.7746 36.1606 42.4713 36.006 37.5462L35.817 31.5889Z" fill="#151A3A"/>
<path id="Vector_3" fill-rule="evenodd" clip-rule="evenodd" d="M30 37.0847L32.9258 37.0501C33.2751 41.6983 36.0291 46.3292 41.5429 46.6637C51.8204 47.2866 60.615 51.0582 65.0066 61.0928L65.8654 63.0479H66.3808C66.7816 61.6984 67.0907 61.0467 67.732 59.7953C73.0111 51.1908 79.607 47.1366 89.7586 46.8483C95.4842 46.1908 98.5245 43.0882 99.1257 36.9751L102 36.952C101.33 43.1112 97.305 49.0974 90.7835 49.726C88.0981 49.9798 86.1113 49.9163 83.363 50.6314C77.2767 52.2231 72.427 56.0582 69.381 62.3847C67.9267 65.6661 67.3427 67.9441 67.2969 71.5427L64.7146 71.5024C64.4627 67.7595 64.0332 64.1898 61.8976 60.9775C55.7368 51.7214 51.62 50.5103 41.2509 49.4377C33.8476 48.6706 30.9905 43.4976 30.0115 37.0789L30 37.0847Z" fill="#29ABB5"/>
<path id="Vector_4" fill-rule="evenodd" clip-rule="evenodd" d="M66.0429 33.9765C69.2435 33.9765 72.3068 34.5878 75.1123 35.7008L71.03 37.529L71.0128 37.5924C69.4153 37.2175 67.7492 37.0157 66.0372 37.0157C64.4226 37.0157 62.848 37.1945 61.3364 37.529L57.1224 35.6374C59.8878 34.5647 62.8938 33.9765 66.0372 33.9765H66.0429ZM90.0391 52.5348C90.583 54.5936 90.875 56.7563 90.875 58.9939C90.875 72.8059 79.7558 84.0055 66.0429 84.0055C52.33 84.0055 41.2108 72.8059 41.2108 58.9939C41.2108 56.7563 41.5028 54.5879 42.0525 52.5233L45.1558 52.6501C44.5546 54.6571 44.2339 56.7851 44.2339 58.9881C44.2339 71.122 54.0019 80.9605 66.0486 80.9605C78.0954 80.9605 87.8633 71.122 87.8633 58.9881C87.8633 56.7851 87.5427 54.6628 86.9415 52.6617L90.0448 52.5348H90.0391Z" fill="#151A3A"/>
<path id="Vector_5" fill-rule="evenodd" clip-rule="evenodd" d="M80.0594 54.9337C81.2046 55.9141 81.9317 57.379 81.9317 59.011C81.9317 61.9638 79.5556 64.3628 76.6183 64.3628C75.0037 64.3628 73.5551 63.6362 72.576 62.4828L74.2765 60.2682C74.7231 61.1045 75.6049 61.6754 76.6126 61.6754C78.0784 61.6754 79.2636 60.4816 79.2636 59.0053C79.2636 57.9845 78.6967 57.1021 77.8608 56.6523L80.0537 54.9337H80.0594Z" fill="#151A3A"/>
<path id="Vector_6" fill-rule="evenodd" clip-rule="evenodd" d="M52.0439 54.9337C50.8988 55.9141 50.1717 57.379 50.1717 59.011C50.1717 61.9638 52.5478 64.3628 55.4851 64.3628C57.1054 64.3628 58.5483 63.6362 59.5274 62.4828L57.8269 60.2682C57.3803 61.1045 56.4985 61.6754 55.4908 61.6754C54.025 61.6754 52.8398 60.4816 52.8398 59.0053C52.8398 57.9845 53.4067 57.1021 54.2426 56.6523L52.0497 54.9337H52.0439Z" fill="#151A3A"/>
</g>
</g>
</g>
</g>
</g>
<defs>
<filter id="filter0_d" x="0" y="0" width="892" height="500" filterUnits="userSpaceOnUse" color-interpolation-filters="sRGB">
<feFlood flood-opacity="0" result="BackgroundImageFix"/>
<feColorMatrix in="SourceAlpha" type="matrix" values="0 0 0 0 0 0 0 0 0 0 0 0 0 0 0 0 0 0 127 0" result="hardAlpha"/>
<feOffset dx="5" dy="5"/>
<feGaussianBlur stdDeviation="5"/>
<feColorMatrix type="matrix" values="0 0 0 0 0.7 0 0 0 0 0.7 0 0 0 0 0.7 0 0 0 0.15 0"/>
<feBlend mode="normal" in2="BackgroundImageFix" result="effect1_dropShadow"/>
<feBlend mode="normal" in="SourceGraphic" in2="effect1_dropShadow" result="shape"/>
</filter>
<filter id="filter1_dd" x="335.593" y="151.77" width="164.309" height="108.427" filterUnits="userSpaceOnUse" color-interpolation-filters="sRGB">
<feFlood flood-opacity="0" result="BackgroundImageFix"/>
<feColorMatrix in="SourceAlpha" type="matrix" values="0 0 0 0 0 0 0 0 0 0 0 0 0 0 0 0 0 0 127 0" result="hardAlpha"/>
<feOffset dy="6.67246"/>
<feGaussianBlur stdDeviation="6.67246"/>
<feColorMatrix type="matrix" values="0 0 0 0 0.196487 0 0 0 0 0.196487 0 0 0 0 0.279476 0 0 0 0.06 0"/>
<feBlend mode="multiply" in2="BackgroundImageFix" result="effect1_dropShadow"/>
<feColorMatrix in="SourceAlpha" type="matrix" values="0 0 0 0 0 0 0 0 0 0 0 0 0 0 0 0 0 0 127 0" result="hardAlpha"/>
<feOffset dy="6.67246"/>
<feGaussianBlur stdDeviation="3.33623"/>
<feColorMatrix type="matrix" values="0 0 0 0 0.196487 0 0 0 0 0.196487 0 0 0 0 0.279476 0 0 0 0.08 0"/>
<feBlend mode="multiply" in2="effect1_dropShadow" result="effect2_dropShadow"/>
<feBlend mode="normal" in="SourceGraphic" in2="effect2_dropShadow" result="shape"/>
</filter>
<filter id="filter2_dd" x="404.541" y="246.296" width="25.5778" height="25.5778" filterUnits="userSpaceOnUse" color-interpolation-filters="sRGB">
<feFlood flood-opacity="0" result="BackgroundImageFix"/>
<feColorMatrix in="SourceAlpha" type="matrix" values="0 0 0 0 0 0 0 0 0 0 0 0 0 0 0 0 0 0 127 0" result="hardAlpha"/>
<feOffset dy="2.22415"/>
<feGaussianBlur stdDeviation="2.22415"/>
<feColorMatrix type="matrix" values="0 0 0 0 0.196487 0 0 0 0 0.196487 0 0 0 0 0.279476 0 0 0 0.06 0"/>
<feBlend mode="multiply" in2="BackgroundImageFix" result="effect1_dropShadow"/>
<feColorMatrix in="SourceAlpha" type="matrix" values="0 0 0 0 0 0 0 0 0 0 0 0 0 0 0 0 0 0 127 0" result="hardAlpha"/>
<feOffset dy="2.22415"/>
<feGaussianBlur stdDeviation="1.11208"/>
<feColorMatrix type="matrix" values="0 0 0 0 0.196487 0 0 0 0 0.196487 0 0 0 0 0.279476 0 0 0 0.06 0"/>
<feBlend mode="multiply" in2="effect1_dropShadow" result="effect2_dropShadow"/>
<feBlend mode="normal" in="SourceGraphic" in2="effect2_dropShadow" result="shape"/>
</filter>
<linearGradient id="paint0_linear" x1="469.459" y1="191.437" x2="469.459" y2="421.449" gradientUnits="userSpaceOnUse">
<stop stop-color="#7459D9" stop-opacity="0.1"/>
<stop offset="0.998978" stop-color="white" stop-opacity="0"/>
</linearGradient>
<clipPath id="clip0">
<rect width="96.7507" height="23.3536" fill="white" transform="translate(37 117)"/>
</clipPath>
<clipPath id="clip1">
<rect width="106.759" height="50.3623" fill="white" transform="translate(360.614 170.119)"/>
</clipPath>
<clipPath id="clip2">
<rect width="72" height="58" fill="white" transform="translate(30 26)"/>
</clipPath>
</defs>
</svg>
