<svg width="257" height="80" viewBox="0 0 257 80" fill="none" xmlns="http://www.w3.org/2000/svg">
<g id="Group 2">
<g id="Group 1" filter="url(#filter0_d)">
<rect id="Rectangle 2" x="23" y="15" width="210" height="50" rx="10" fill="white"/>
<circle id="Ellipse 1" cx="76.5" cy="39.5" r="32.5" fill="white"/>
<mask id="mask0" style="mask-type:alpha" maskUnits="userSpaceOnUse" x="44" y="7" width="65" height="65">
<circle id="Ellipse 2" cx="76.5" cy="39.5" r="32.5" fill="white"/>
</mask>
<g mask="url(#mask0)">
</g>
</g>
<path id="Ellipse 3" d="M75.7643 11.1542C75.7591 9.32362 77.2433 7.81649 79.0633 8.01318C84.9638 8.65086 90.5701 11.0287 95.15 14.8807C100.579 19.4471 104.214 25.7897 105.41 32.7824C106.606 39.7751 105.285 46.9653 101.682 53.0764C98.079 59.1875 92.4268 63.8239 85.7291 66.1626C79.0315 68.5012 71.7218 68.3907 65.0979 65.8506C58.4741 63.3105 52.9647 58.5052 49.548 52.288C46.1314 46.0707 45.0285 38.8438 46.4353 31.8905C47.622 26.025 50.5298 20.6743 54.7509 16.5024C56.0529 15.2156 58.1526 15.4713 59.288 16.9072V16.9072C60.4234 18.3432 60.159 20.4133 58.898 21.7403C55.8867 24.9091 53.8084 28.8772 52.9327 33.2051C51.8368 38.6219 52.696 44.2519 55.3577 49.0953C58.0193 53.9387 62.3113 57.6821 67.4715 59.661C72.6317 61.6398 78.3262 61.7259 83.5438 59.904C88.7615 58.0822 93.1647 54.4702 95.9716 49.7095C98.7786 44.9488 99.8076 39.3474 98.876 33.8999C97.9444 28.4524 95.1124 23.5113 90.8829 19.9539C87.5037 17.1117 83.4071 15.2997 79.0779 14.694C77.2649 14.4404 75.7694 12.9848 75.7643 11.1542V11.1542Z" fill="#06E396"/>
<path id="90.62%" d="M60.541 40.5899C60.0996 41.0235 59.584 41.2402 58.9941 41.2402C58.2402 41.2402 57.6367 40.9824 57.1836 40.4668C56.7305 39.9473 56.5039 39.2481 56.5039 38.3692C56.5039 37.8106 56.625 37.2988 56.8672 36.834C57.1133 36.3652 57.4551 36.002 57.8926 35.7442C58.3301 35.4824 58.8223 35.3516 59.3691 35.3516C59.9316 35.3516 60.4316 35.4922 60.8691 35.7735C61.3066 36.0547 61.6465 36.459 61.8887 36.9863C62.1309 37.5137 62.2539 38.1172 62.2578 38.7969V39.4238C62.2578 40.8457 61.9043 41.9629 61.1973 42.7754C60.4902 43.5879 59.4883 44.0215 58.1914 44.0762L57.7754 44.082V42.6699L58.1504 42.6641C59.623 42.5977 60.4199 41.9063 60.541 40.5899ZM59.4102 39.9453C59.6836 39.9453 59.918 39.875 60.1133 39.7344C60.3125 39.5938 60.4629 39.4238 60.5645 39.2246V38.5274C60.5645 37.9531 60.4551 37.5078 60.2363 37.1914C60.0176 36.875 59.7246 36.7168 59.3574 36.7168C59.0176 36.7168 58.7383 36.8731 58.5195 37.1856C58.3008 37.4942 58.1914 37.8828 58.1914 38.3516C58.1914 38.8164 58.2969 39.1992 58.5078 39.5C58.7227 39.7969 59.0234 39.9453 59.4102 39.9453ZM69.2129 40.4727C69.2129 41.6524 68.9688 42.5547 68.4805 43.1797C67.9922 43.8047 67.2773 44.1172 66.3359 44.1172C65.4062 44.1172 64.6953 43.8106 64.2031 43.1973C63.7109 42.584 63.459 41.7051 63.4473 40.5606V38.9902C63.4473 37.7988 63.6934 36.8945 64.1855 36.2774C64.6816 35.6602 65.3945 35.3516 66.3242 35.3516C67.2539 35.3516 67.9648 35.6582 68.457 36.2715C68.9492 36.8809 69.2012 37.7578 69.2129 38.9024V40.4727ZM67.5195 38.75C67.5195 38.043 67.4219 37.5293 67.2266 37.209C67.0352 36.8848 66.7344 36.7227 66.3242 36.7227C65.9258 36.7227 65.6309 36.877 65.4395 37.1856C65.252 37.4902 65.1523 37.9688 65.1406 38.6211V40.6953C65.1406 41.3906 65.2344 41.9082 65.4219 42.2481C65.6133 42.584 65.918 42.752 66.3359 42.752C66.75 42.752 67.0488 42.5899 67.2324 42.2656C67.416 41.9414 67.5117 41.4453 67.5195 40.7774V38.75ZM70.5195 43.168C70.5195 42.8985 70.6094 42.6797 70.7891 42.5117C70.9727 42.3438 71.2012 42.2598 71.4746 42.2598C71.752 42.2598 71.9805 42.3438 72.1602 42.5117C72.3438 42.6797 72.4355 42.8985 72.4355 43.168C72.4355 43.4336 72.3457 43.6504 72.166 43.8184C71.9863 43.9824 71.7559 44.0645 71.4746 44.0645C71.1973 44.0645 70.9688 43.9824 70.7891 43.8184C70.6094 43.6504 70.5195 43.4336 70.5195 43.168ZM78.4473 35.3809V36.7754H78.2832C77.5176 36.7871 76.9004 36.9863 76.4316 37.3731C75.9668 37.7598 75.6875 38.2969 75.5938 38.9844C76.0469 38.5235 76.6191 38.293 77.3105 38.293C78.0527 38.293 78.6426 38.5586 79.0801 39.0899C79.5176 39.6211 79.7363 40.3203 79.7363 41.1875C79.7363 41.7422 79.6152 42.2442 79.373 42.6934C79.1348 43.1426 78.7949 43.4922 78.3535 43.7422C77.916 43.9922 77.4199 44.1172 76.8652 44.1172C75.9668 44.1172 75.2402 43.8047 74.6855 43.1797C74.1348 42.5547 73.8594 41.7207 73.8594 40.6777V40.0684C73.8594 39.1426 74.0332 38.3262 74.3809 37.6192C74.7324 36.9082 75.2344 36.3594 75.8867 35.9727C76.543 35.582 77.3027 35.3848 78.166 35.3809H78.4473ZM76.7949 39.6524C76.5215 39.6524 76.2734 39.7246 76.0508 39.8692C75.8281 40.0098 75.6641 40.1973 75.5586 40.4317V40.9473C75.5586 41.5137 75.6699 41.957 75.8926 42.2774C76.1152 42.5938 76.4277 42.752 76.8301 42.752C77.1934 42.752 77.4863 42.6094 77.709 42.3242C77.9355 42.0352 78.0488 41.6621 78.0488 41.2051C78.0488 40.7402 77.9355 40.3652 77.709 40.0801C77.4824 39.7949 77.1777 39.6524 76.7949 39.6524ZM86.5918 44H80.7441V42.8399L83.5039 39.8985C83.8828 39.4844 84.1621 39.1231 84.3418 38.8145C84.5254 38.5059 84.6172 38.2129 84.6172 37.9356C84.6172 37.5567 84.5215 37.2598 84.3301 37.0449C84.1387 36.8262 83.8652 36.7168 83.5098 36.7168C83.127 36.7168 82.8242 36.8496 82.6016 37.1152C82.3828 37.377 82.2734 37.7227 82.2734 38.1524H80.5742C80.5742 37.6328 80.6973 37.1582 80.9434 36.7285C81.1934 36.2988 81.5449 35.9629 81.998 35.7207C82.4512 35.4746 82.9648 35.3516 83.5391 35.3516C84.418 35.3516 85.0996 35.5625 85.584 35.9844C86.0723 36.4063 86.3164 37.002 86.3164 37.7715C86.3164 38.1934 86.207 38.6231 85.9883 39.0606C85.7695 39.4981 85.3945 40.0078 84.8633 40.5899L82.9238 42.6348H86.5918V44ZM87.6113 37.1094C87.6113 36.586 87.7812 36.1621 88.1211 35.8379C88.4609 35.5098 88.9062 35.3457 89.457 35.3457C90.0156 35.3457 90.4648 35.5078 90.8047 35.832C91.1445 36.1524 91.3145 36.5879 91.3145 37.1387V37.5606C91.3145 38.0879 91.1445 38.5117 90.8047 38.832C90.4648 39.1524 90.0195 39.3125 89.4688 39.3125C88.9141 39.3125 88.4648 39.1524 88.1211 38.832C87.7812 38.5078 87.6113 38.0723 87.6113 37.5254V37.1094ZM88.7363 37.5606C88.7363 37.7949 88.8027 37.9844 88.9355 38.1289C89.0723 38.2695 89.25 38.3399 89.4688 38.3399C89.6875 38.3399 89.8613 38.2676 89.9902 38.1231C90.1191 37.9785 90.1836 37.7852 90.1836 37.543V37.1094C90.1836 36.875 90.1191 36.6856 89.9902 36.541C89.8613 36.3965 89.6836 36.3242 89.457 36.3242C89.2422 36.3242 89.0684 36.3965 88.9355 36.541C88.8027 36.6817 88.7363 36.8789 88.7363 37.1328V37.5606ZM91.6895 41.9082C91.6895 41.3809 91.8613 40.957 92.2051 40.6367C92.5488 40.3125 92.9941 40.1504 93.541 40.1504C94.0957 40.1504 94.543 40.3106 94.8828 40.6309C95.2266 40.9473 95.3984 41.3848 95.3984 41.9434V42.3652C95.3984 42.8887 95.2305 43.3125 94.8945 43.6367C94.5586 43.957 94.1113 44.1172 93.5527 44.1172C92.9902 44.1172 92.5391 43.9551 92.1992 43.6309C91.8594 43.3067 91.6895 42.877 91.6895 42.3418V41.9082ZM92.8145 42.3652C92.8145 42.5801 92.8848 42.7637 93.0254 42.916C93.166 43.0684 93.3418 43.1445 93.5527 43.1445C94.0293 43.1445 94.2676 42.8809 94.2676 42.3535V41.9082C94.2676 41.6738 94.2012 41.4863 94.0684 41.3457C93.9355 41.2012 93.7598 41.1289 93.541 41.1289C93.3223 41.1289 93.1465 41.2012 93.0137 41.3457C92.8809 41.4863 92.8145 41.6797 92.8145 41.9258V42.3652ZM89.8027 43.3613L88.9766 42.916L93.1426 36.2481L93.9688 36.6934L89.8027 43.3613Z" fill="black"/>
<path id="Staked Percentage" d="M122.753 41.9483C122.753 41.6439 122.646 41.4111 122.431 41.25C122.216 41.0853 121.83 40.9134 121.271 40.7344C120.712 40.5518 120.27 40.3727 119.944 40.1973C119.056 39.7175 118.612 39.0711 118.612 38.2583C118.612 37.8358 118.73 37.4598 118.967 37.1304C119.207 36.7974 119.549 36.5378 119.993 36.3516C120.44 36.1654 120.942 36.0723 121.497 36.0723C122.055 36.0723 122.553 36.1743 122.99 36.3784C123.427 36.579 123.765 36.8636 124.005 37.2324C124.248 37.6013 124.37 38.0202 124.37 38.4893H122.759C122.759 38.1312 122.646 37.8537 122.42 37.6568C122.195 37.4562 121.878 37.356 121.47 37.356C121.076 37.356 120.77 37.4401 120.551 37.6084C120.333 37.7731 120.224 37.9916 120.224 38.2637C120.224 38.5179 120.351 38.731 120.605 38.9028C120.863 39.0747 121.241 39.2359 121.738 39.3862C122.655 39.662 123.323 40.0039 123.742 40.4121C124.161 40.8203 124.37 41.3288 124.37 41.9375C124.37 42.6143 124.114 43.146 123.602 43.5327C123.09 43.9159 122.401 44.1074 121.534 44.1074C120.933 44.1074 120.385 43.9982 119.891 43.7798C119.396 43.5578 119.019 43.2552 118.757 42.8721C118.5 42.4889 118.371 42.0449 118.371 41.5401H119.987C119.987 42.403 120.503 42.8345 121.534 42.8345C121.917 42.8345 122.216 42.7575 122.431 42.6035C122.646 42.446 122.753 42.2276 122.753 41.9483ZM127.222 36.7598V38.1885H128.216V39.3272H127.222V42.2276C127.222 42.4424 127.263 42.5964 127.346 42.6895C127.428 42.7826 127.586 42.8291 127.818 42.8291C127.99 42.8291 128.142 42.8166 128.275 42.7915V43.9678C127.971 44.0609 127.657 44.1074 127.335 44.1074C126.246 44.1074 125.691 43.5578 125.67 42.4585V39.3272H124.821V38.1885H125.67V36.7598H127.222ZM132.448 44C132.377 43.8604 132.325 43.6867 132.292 43.479C131.917 43.898 131.428 44.1074 130.826 44.1074C130.257 44.1074 129.784 43.9427 129.408 43.6133C129.036 43.2839 128.85 42.8685 128.85 42.3672C128.85 41.7513 129.077 41.2787 129.532 40.9492C129.99 40.6198 130.651 40.4533 131.514 40.4497H132.228V40.1167C132.228 39.8482 132.158 39.6333 132.019 39.4722C131.882 39.3111 131.666 39.2305 131.369 39.2305C131.107 39.2305 130.901 39.2931 130.751 39.4185C130.604 39.5438 130.531 39.7157 130.531 39.9341H128.979C128.979 39.5975 129.082 39.286 129.29 38.9995C129.498 38.7131 129.791 38.4893 130.171 38.3281C130.55 38.1634 130.977 38.0811 131.449 38.0811C132.165 38.0811 132.733 38.2619 133.152 38.6236C133.574 38.9816 133.786 39.4865 133.786 40.1382V42.6572C133.789 43.2087 133.866 43.6258 134.017 43.9087V44H132.448ZM131.165 42.9204C131.394 42.9204 131.605 42.8703 131.798 42.77C131.992 42.6662 132.135 42.5283 132.228 42.3565V41.3574H131.648C130.871 41.3574 130.457 41.626 130.407 42.1631L130.402 42.2544C130.402 42.4478 130.47 42.6071 130.606 42.7324C130.742 42.8578 130.928 42.9204 131.165 42.9204ZM137.089 41.669L136.53 42.2276V44H134.978V35.75H136.53V40.3208L136.831 39.9341L138.319 38.1885H140.183L138.083 40.6109L140.365 44H138.582L137.089 41.669ZM143.421 44.1074C142.569 44.1074 141.875 43.846 141.337 43.3233C140.804 42.8005 140.537 42.104 140.537 41.2339V41.0835C140.537 40.4999 140.65 39.9789 140.875 39.5205C141.101 39.0586 141.42 38.7041 141.832 38.457C142.247 38.2064 142.72 38.0811 143.25 38.0811C144.044 38.0811 144.669 38.3317 145.124 38.833C145.582 39.3343 145.812 40.0451 145.812 40.9653V41.5991H142.111C142.161 41.9787 142.311 42.2831 142.562 42.5122C142.816 42.7414 143.137 42.856 143.523 42.856C144.121 42.856 144.589 42.6393 144.925 42.2061L145.688 43.0601C145.455 43.3895 145.14 43.6473 144.743 43.8335C144.345 44.0161 143.905 44.1074 143.421 44.1074ZM143.244 39.3379C142.936 39.3379 142.686 39.4417 142.492 39.6494C142.302 39.8571 142.181 40.1543 142.127 40.541H144.286V40.4175C144.279 40.0737 144.186 39.8088 144.007 39.6226C143.828 39.4328 143.574 39.3379 143.244 39.3379ZM146.456 41.0513C146.456 40.1454 146.658 39.4238 147.063 38.8867C147.471 38.3496 148.028 38.0811 148.733 38.0811C149.299 38.0811 149.766 38.2923 150.135 38.7149V35.75H151.693V44H150.291L150.216 43.3823C149.829 43.8657 149.331 44.1074 148.723 44.1074C148.039 44.1074 147.489 43.8389 147.074 43.3018C146.662 42.7611 146.456 42.0109 146.456 41.0513ZM148.008 41.1641C148.008 41.7083 148.103 42.1255 148.293 42.4155C148.483 42.7056 148.758 42.8506 149.12 42.8506C149.6 42.8506 149.938 42.6483 150.135 42.2437V39.9502C149.942 39.5456 149.607 39.3433 149.131 39.3433C148.382 39.3433 148.008 39.9502 148.008 41.1641ZM157.349 41.2446V44H155.737V36.1797H158.788C159.375 36.1797 159.891 36.2871 160.335 36.502C160.783 36.7168 161.126 37.023 161.366 37.4204C161.606 37.8143 161.726 38.2637 161.726 38.7686C161.726 39.5348 161.463 40.14 160.937 40.584C160.414 41.0244 159.689 41.2446 158.761 41.2446H157.349ZM157.349 39.9395H158.788C159.214 39.9395 159.538 39.8392 159.76 39.6387C159.986 39.4382 160.099 39.1517 160.099 38.7793C160.099 38.3962 159.986 38.0864 159.76 37.8501C159.535 37.6138 159.223 37.492 158.826 37.4849H157.349V39.9395ZM165.335 44.1074C164.483 44.1074 163.789 43.846 163.251 43.3233C162.718 42.8005 162.451 42.104 162.451 41.2339V41.0835C162.451 40.4999 162.564 39.9789 162.79 39.5205C163.015 39.0586 163.334 38.7041 163.746 38.457C164.161 38.2064 164.634 38.0811 165.164 38.0811C165.958 38.0811 166.583 38.3317 167.038 38.833C167.496 39.3343 167.726 40.0451 167.726 40.9653V41.5991H164.025C164.075 41.9787 164.225 42.2831 164.476 42.5122C164.73 42.7414 165.051 42.856 165.438 42.856C166.035 42.856 166.503 42.6393 166.839 42.2061L167.602 43.0601C167.369 43.3895 167.054 43.6473 166.657 43.8335C166.259 44.0161 165.819 44.1074 165.335 44.1074ZM165.158 39.3379C164.85 39.3379 164.6 39.4417 164.406 39.6494C164.216 39.8571 164.095 40.1543 164.041 40.541H166.2V40.4175C166.193 40.0737 166.1 39.8088 165.921 39.6226C165.742 39.4328 165.488 39.3379 165.158 39.3379ZM171.877 39.6441C171.666 39.6154 171.48 39.6011 171.319 39.6011C170.732 39.6011 170.347 39.7998 170.164 40.1973V44H168.612V38.1885H170.078L170.121 38.8814C170.433 38.3478 170.864 38.0811 171.416 38.0811C171.587 38.0811 171.749 38.1043 171.899 38.1509L171.877 39.6441ZM174.939 42.856C175.225 42.856 175.458 42.7772 175.637 42.6196C175.816 42.4621 175.909 42.2526 175.917 41.9912H177.372C177.368 42.3851 177.261 42.7468 177.05 43.0762C176.839 43.402 176.549 43.6563 176.18 43.8389C175.814 44.0179 175.41 44.1074 174.966 44.1074C174.135 44.1074 173.48 43.8443 173 43.3179C172.52 42.7879 172.28 42.0575 172.28 41.1265V41.0244C172.28 40.1292 172.518 39.4149 172.995 38.8814C173.471 38.3478 174.124 38.0811 174.955 38.0811C175.682 38.0811 176.264 38.2888 176.701 38.7041C177.141 39.1159 177.365 39.6655 177.372 40.353H175.917C175.909 40.0523 175.816 39.8088 175.637 39.6226C175.458 39.4328 175.222 39.3379 174.928 39.3379C174.567 39.3379 174.293 39.4704 174.106 39.7354C173.924 39.9968 173.833 40.4229 173.833 41.0137V41.1748C173.833 41.7728 173.924 42.2025 174.106 42.4639C174.289 42.7253 174.567 42.856 174.939 42.856ZM180.933 44.1074C180.081 44.1074 179.386 43.846 178.849 43.3233C178.316 42.8005 178.049 42.104 178.049 41.2339V41.0835C178.049 40.4999 178.162 39.9789 178.387 39.5205C178.613 39.0586 178.931 38.7041 179.343 38.457C179.759 38.2064 180.231 38.0811 180.761 38.0811C181.556 38.0811 182.181 38.3317 182.636 38.833C183.094 39.3343 183.323 40.0451 183.323 40.9653V41.5991H179.623C179.673 41.9787 179.823 42.2831 180.074 42.5122C180.328 42.7414 180.648 42.856 181.035 42.856C181.633 42.856 182.1 42.6393 182.437 42.2061L183.2 43.0601C182.967 43.3895 182.652 43.6473 182.254 43.8335C181.857 44.0161 181.417 44.1074 180.933 44.1074ZM180.756 39.3379C180.448 39.3379 180.197 39.4417 180.004 39.6494C179.814 39.8571 179.692 40.1543 179.639 40.541H181.798V40.4175C181.791 40.0737 181.698 39.8088 181.519 39.6226C181.34 39.4328 181.085 39.3379 180.756 39.3379ZM185.638 38.1885L185.687 38.8599C186.102 38.3407 186.659 38.0811 187.357 38.0811C187.973 38.0811 188.431 38.2619 188.732 38.6236C189.033 38.9852 189.187 39.5259 189.194 40.2456V44H187.642V40.2832C187.642 39.9538 187.57 39.7157 187.427 39.5689C187.284 39.4185 187.045 39.3433 186.712 39.3433C186.276 39.3433 185.948 39.5295 185.729 39.9019V44H184.177V38.1885H185.638ZM192.234 36.7598V38.1885H193.228V39.3272H192.234V42.2276C192.234 42.4424 192.275 42.5964 192.357 42.6895C192.44 42.7826 192.597 42.8291 192.83 42.8291C193.002 42.8291 193.154 42.8166 193.287 42.7915V43.9678C192.982 44.0609 192.669 44.1074 192.347 44.1074C191.258 44.1074 190.703 43.5578 190.682 42.4585V39.3272H189.833V38.1885H190.682V36.7598H192.234ZM197.46 44C197.388 43.8604 197.336 43.6867 197.304 43.479C196.928 43.898 196.439 44.1074 195.838 44.1074C195.269 44.1074 194.796 43.9427 194.42 43.6133C194.048 43.2839 193.861 42.8685 193.861 42.3672C193.861 41.7513 194.089 41.2787 194.543 40.9492C195.002 40.6198 195.662 40.4533 196.525 40.4497H197.24V40.1167C197.24 39.8482 197.17 39.6333 197.03 39.4722C196.894 39.3111 196.678 39.2305 196.38 39.2305C196.119 39.2305 195.913 39.2931 195.763 39.4185C195.616 39.5438 195.542 39.7157 195.542 39.9341H193.99C193.99 39.5975 194.094 39.286 194.302 38.9995C194.509 38.7131 194.803 38.4893 195.183 38.3281C195.562 38.1634 195.988 38.0811 196.461 38.0811C197.177 38.0811 197.745 38.2619 198.164 38.6236C198.586 38.9816 198.797 39.4865 198.797 40.1382V42.6572C198.801 43.2087 198.878 43.6258 199.028 43.9087V44H197.46ZM196.176 42.9204C196.405 42.9204 196.617 42.8703 196.81 42.77C197.003 42.6662 197.147 42.5283 197.24 42.3565V41.3574H196.66C195.883 41.3574 195.469 41.626 195.419 42.1631L195.414 42.2544C195.414 42.4478 195.482 42.6071 195.618 42.7324C195.754 42.8578 195.94 42.9204 196.176 42.9204ZM199.764 41.0513C199.764 40.1597 199.975 39.4417 200.398 38.8975C200.824 38.3532 201.397 38.0811 202.117 38.0811C202.754 38.0811 203.25 38.2995 203.604 38.7363L203.669 38.1885H205.076V43.8067C205.076 44.3151 204.96 44.7573 204.727 45.1333C204.498 45.5093 204.174 45.7958 203.755 45.9927C203.336 46.1896 202.845 46.2881 202.283 46.2881C201.857 46.2881 201.442 46.2022 201.037 46.0303C200.632 45.862 200.326 45.6436 200.119 45.375L200.806 44.4297C201.193 44.863 201.662 45.0796 202.213 45.0796C202.625 45.0796 202.946 44.9686 203.175 44.7466C203.404 44.5282 203.519 44.2166 203.519 43.812V43.5005C203.16 43.9051 202.69 44.1074 202.106 44.1074C201.408 44.1074 200.842 43.8353 200.409 43.291C199.979 42.7432 199.764 42.0181 199.764 41.1157V41.0513ZM201.316 41.1641C201.316 41.6904 201.422 42.104 201.633 42.4048C201.845 42.702 202.135 42.8506 202.503 42.8506C202.976 42.8506 203.314 42.6734 203.519 42.3189V39.875C203.311 39.5205 202.976 39.3433 202.514 39.3433C202.142 39.3433 201.848 39.4955 201.633 39.7998C201.422 40.1042 201.316 40.5589 201.316 41.1641ZM208.949 44.1074C208.097 44.1074 207.402 43.846 206.865 43.3233C206.331 42.8005 206.064 42.104 206.064 41.2339V41.0835C206.064 40.4999 206.177 39.9789 206.403 39.5205C206.628 39.0586 206.947 38.7041 207.359 38.457C207.774 38.2064 208.247 38.0811 208.777 38.0811C209.572 38.0811 210.197 38.3317 210.651 38.833C211.11 39.3343 211.339 40.0451 211.339 40.9653V41.5991H207.638C207.688 41.9787 207.839 42.2831 208.089 42.5122C208.344 42.7414 208.664 42.856 209.051 42.856C209.649 42.856 210.116 42.6393 210.453 42.2061L211.215 43.0601C210.983 43.3895 210.667 43.6473 210.27 43.8335C209.873 44.0161 209.432 44.1074 208.949 44.1074ZM208.771 39.3379C208.464 39.3379 208.213 39.4417 208.02 39.6494C207.83 39.8571 207.708 40.1543 207.654 40.541H209.813V40.4175C209.806 40.0737 209.713 39.8088 209.534 39.6226C209.355 39.4328 209.101 39.3379 208.771 39.3379Z" fill="black"/>
</g>
<defs>
<filter id="filter0_d" x="19" y="7.00001" width="218" height="73" filterUnits="userSpaceOnUse" color-interpolation-filters="sRGB">
<feFlood flood-opacity="0" result="BackgroundImageFix"/>
<feColorMatrix in="SourceAlpha" type="matrix" values="0 0 0 0 0 0 0 0 0 0 0 0 0 0 0 0 0 0 127 0" result="hardAlpha"/>
<feOffset dy="4"/>
<feGaussianBlur stdDeviation="2"/>
<feComposite in2="hardAlpha" operator="out"/>
<feColorMatrix type="matrix" values="0 0 0 0 0 0 0 0 0 0 0 0 0 0 0 0 0 0 0.25 0"/>
<feBlend mode="normal" in2="BackgroundImageFix" result="effect1_dropShadow"/>
<feBlend mode="normal" in="SourceGraphic" in2="effect1_dropShadow" result="shape"/>
</filter>
</defs>
</svg>
