<svg width="250" height="84" viewBox="0 0 250 84" fill="none" xmlns="http://www.w3.org/2000/svg">
<g id="Group 2">
<g id="Group 1" filter="url(#filter0_d)">
<rect id="Rectangle 2" x="10" y="18" width="230" height="50" rx="10" fill="white"/>
<circle id="Ellipse 1" cx="62.5" cy="43.5" r="32.5" fill="white"/>
<mask id="mask0" style="mask-type:alpha" maskUnits="userSpaceOnUse" x="30" y="11" width="65" height="65">
<circle id="Ellipse 2" cx="62.5" cy="43.5" r="32.5" fill="white"/>
</mask>
<g mask="url(#mask0)">
</g>
</g>
<path id="Ellipse 3" d="M31.2843 26.196C29.8631 25.3718 29.3667 23.54 30.3395 22.2161C31.8836 20.1149 33.7217 18.2397 35.8015 16.6503C37.8813 15.0608 40.1733 13.7795 42.6062 12.8414C44.1391 12.2503 45.7763 13.2103 46.1984 14.798V14.798C46.6205 16.3857 45.6642 17.9961 44.1497 18.6327C42.4646 19.341 40.8727 20.2623 39.414 21.3771C37.9552 22.492 36.6482 23.7861 35.5223 25.2261C34.5105 26.5203 32.7054 27.0202 31.2843 26.196V26.196Z" fill="#2724CA"/>
<path id="-12.24%" d="M45.6835 44.2769H42.6596V43.0254H45.6835V44.2769ZM50.4706 47H48.9184V41.0166L47.0654 41.5913V40.3291L50.3041 39.1689H50.4706V47ZM58.2119 47H52.8515V45.9365L55.3813 43.2402C55.7286 42.8607 55.9847 42.5295 56.1494 42.2466C56.3177 41.9637 56.4018 41.6951 56.4018 41.4409C56.4018 41.0936 56.3141 40.8215 56.1386 40.6245C55.9632 40.424 55.7125 40.3237 55.3867 40.3237C55.0358 40.3237 54.7583 40.4455 54.5542 40.689C54.3536 40.9289 54.2534 41.2458 54.2534 41.6396H52.6958C52.6958 41.1634 52.8086 40.7284 53.0341 40.3345C53.2633 39.9406 53.5856 39.6326 54.0009 39.4106C54.4163 39.1851 54.8872 39.0723 55.4135 39.0723C56.2192 39.0723 56.844 39.2656 57.288 39.6523C57.7356 40.0391 57.9594 40.5851 57.9594 41.2905C57.9594 41.6772 57.8592 42.0711 57.6587 42.4722C57.4581 42.8732 57.1144 43.3405 56.6274 43.874L54.8496 45.7485H58.2119V47ZM59.1479 46.2373C59.1479 45.9902 59.2303 45.7897 59.395 45.6357C59.5633 45.4818 59.7728 45.4048 60.0234 45.4048C60.2777 45.4048 60.4871 45.4818 60.6519 45.6357C60.8201 45.7897 60.9043 45.9902 60.9043 46.2373C60.9043 46.4808 60.8219 46.6795 60.6572 46.8335C60.4925 46.9839 60.2812 47.0591 60.0234 47.0591C59.7692 47.0591 59.5597 46.9839 59.395 46.8335C59.2303 46.6795 59.1479 46.4808 59.1479 46.2373ZM67.3995 47H62.0391V45.9365L64.5689 43.2402C64.9162 42.8607 65.1722 42.5295 65.337 42.2466C65.5052 41.9637 65.5894 41.6951 65.5894 41.4409C65.5894 41.0936 65.5017 40.8215 65.3262 40.6245C65.1508 40.424 64.9001 40.3237 64.5743 40.3237C64.2233 40.3237 63.9458 40.4455 63.7417 40.689C63.5412 40.9289 63.441 41.2458 63.441 41.6396H61.8833C61.8833 41.1634 61.9961 40.7284 62.2217 40.3345C62.4509 39.9406 62.7732 39.6326 63.1885 39.4106C63.6039 39.1851 64.0747 39.0723 64.6011 39.0723C65.4068 39.0723 66.0316 39.2656 66.4756 39.6523C66.9232 40.0391 67.147 40.5851 67.147 41.2905C67.147 41.6772 67.0468 42.0711 66.8462 42.4722C66.6457 42.8732 66.302 43.3405 65.815 43.874L64.0371 45.7485H67.3995V47ZM72.7828 44.0566H73.669V45.3081H72.7828V47H71.2305V45.3081H68.024L67.9542 44.3306L71.2144 39.1797H72.7828V44.0566ZM69.5011 44.0566H71.2305V41.2959L71.1285 41.4731L69.5011 44.0566ZM74.3204 40.6836C74.3204 40.2038 74.4762 39.8153 74.7877 39.5181C75.0992 39.2173 75.5074 39.0669 76.0123 39.0669C76.5244 39.0669 76.9362 39.2155 77.2477 39.5127C77.5592 39.8063 77.715 40.2056 77.715 40.7104V41.0972C77.715 41.5806 77.5592 41.9691 77.2477 42.2627C76.9362 42.5563 76.528 42.7031 76.0231 42.7031C75.5146 42.7031 75.1028 42.5563 74.7877 42.2627C74.4762 41.9655 74.3204 41.5662 74.3204 41.0649V40.6836ZM75.3517 41.0972C75.3517 41.312 75.4126 41.4857 75.5343 41.6182C75.6596 41.7471 75.8225 41.8115 76.0231 41.8115C76.2236 41.8115 76.3829 41.7453 76.5011 41.6128C76.6193 41.4803 76.6783 41.3031 76.6783 41.0811V40.6836C76.6783 40.4688 76.6193 40.2951 76.5011 40.1626C76.3829 40.0301 76.22 39.9639 76.0123 39.9639C75.8154 39.9639 75.656 40.0301 75.5343 40.1626C75.4126 40.2915 75.3517 40.4723 75.3517 40.7051V41.0972ZM78.0587 45.0825C78.0587 44.5991 78.2163 44.2106 78.5314 43.917C78.8465 43.6198 79.2547 43.4712 79.756 43.4712C80.2644 43.4712 80.6744 43.618 80.986 43.9116C81.3011 44.2017 81.4586 44.6027 81.4586 45.1147V45.5015C81.4586 45.9813 81.3046 46.3698 80.9967 46.667C80.6888 46.9606 80.2788 47.1074 79.7667 47.1074C79.2511 47.1074 78.8375 46.9588 78.526 46.6616C78.2145 46.3644 78.0587 45.9705 78.0587 45.48V45.0825ZM79.09 45.5015C79.09 45.6984 79.1544 45.8667 79.2833 46.0063C79.4122 46.146 79.5734 46.2158 79.7667 46.2158C80.2036 46.2158 80.422 45.9741 80.422 45.4907V45.0825C80.422 44.8677 80.3611 44.6958 80.2394 44.5669C80.1176 44.4344 79.9565 44.3682 79.756 44.3682C79.5555 44.3682 79.3943 44.4344 79.2726 44.5669C79.1508 44.6958 79.09 44.873 79.09 45.0986V45.5015ZM76.3292 46.4146L75.5719 46.0063L79.3907 39.894L80.1481 40.3022L76.3292 46.4146Z" fill="black"/>
<path id="Price Floor Percentage" d="M107.441 44.2446V47H105.83V39.1797H108.881C109.468 39.1797 109.984 39.2871 110.428 39.502C110.875 39.7168 111.219 40.0229 111.459 40.4204C111.699 40.8143 111.819 41.2637 111.819 41.7686C111.819 42.5348 111.556 43.14 111.029 43.584C110.507 44.0244 109.781 44.2446 108.854 44.2446H107.441ZM107.441 42.9395H108.881C109.307 42.9395 109.631 42.8392 109.853 42.6387C110.079 42.4382 110.191 42.1517 110.191 41.7793C110.191 41.3962 110.079 41.0864 109.853 40.8501C109.628 40.6138 109.316 40.492 108.919 40.4849H107.441V42.9395ZM115.929 42.644C115.718 42.6154 115.532 42.6011 115.371 42.6011C114.783 42.6011 114.399 42.7998 114.216 43.1973V47H112.664V41.1885H114.13L114.173 41.8813C114.484 41.3478 114.916 41.0811 115.467 41.0811C115.639 41.0811 115.8 41.1043 115.951 41.1509L115.929 42.644ZM118.154 47H116.597V41.1885H118.154V47ZM116.506 39.6846C116.506 39.4518 116.583 39.2603 116.736 39.1099C116.894 38.9595 117.107 38.8843 117.376 38.8843C117.641 38.8843 117.852 38.9595 118.009 39.1099C118.167 39.2603 118.246 39.4518 118.246 39.6846C118.246 39.9209 118.165 40.1143 118.004 40.2646C117.847 40.415 117.637 40.4902 117.376 40.4902C117.114 40.4902 116.903 40.415 116.742 40.2646C116.584 40.1143 116.506 39.9209 116.506 39.6846ZM121.69 45.856C121.977 45.856 122.209 45.7772 122.388 45.6196C122.567 45.4621 122.661 45.2526 122.668 44.9912H124.123C124.12 45.3851 124.012 45.7467 123.801 46.0762C123.59 46.402 123.3 46.6562 122.931 46.8389C122.566 47.0179 122.161 47.1074 121.717 47.1074C120.886 47.1074 120.231 46.8442 119.751 46.3179C119.271 45.7879 119.031 45.0575 119.031 44.1265V44.0244C119.031 43.1292 119.27 42.4149 119.746 41.8813C120.222 41.3478 120.876 41.0811 121.706 41.0811C122.433 41.0811 123.015 41.2887 123.452 41.7041C123.892 42.1159 124.116 42.6655 124.123 43.353H122.668C122.661 43.0522 122.567 42.8088 122.388 42.6226C122.209 42.4328 121.973 42.3379 121.679 42.3379C121.318 42.3379 121.044 42.4704 120.858 42.7354C120.675 42.9967 120.584 43.4229 120.584 44.0137V44.1748C120.584 44.7728 120.675 45.2025 120.858 45.4639C121.04 45.7253 121.318 45.856 121.69 45.856ZM127.519 47.1074C126.667 47.1074 125.972 46.846 125.435 46.3232C124.902 45.8005 124.635 45.104 124.635 44.2339V44.0835C124.635 43.4998 124.748 42.9788 124.973 42.5205C125.199 42.0586 125.518 41.7041 125.929 41.457C126.345 41.2064 126.817 41.0811 127.347 41.0811C128.142 41.0811 128.767 41.3317 129.222 41.833C129.68 42.3343 129.909 43.0451 129.909 43.9653V44.5991H126.209C126.259 44.9787 126.409 45.283 126.66 45.5122C126.914 45.7414 127.235 45.856 127.621 45.856C128.219 45.856 128.687 45.6393 129.023 45.2061L129.786 46.0601C129.553 46.3895 129.238 46.6473 128.841 46.8335C128.443 47.0161 128.003 47.1074 127.519 47.1074ZM127.342 42.3379C127.034 42.3379 126.783 42.4417 126.59 42.6494C126.4 42.8571 126.279 43.1543 126.225 43.541H128.384V43.4175C128.377 43.0737 128.284 42.8088 128.105 42.6226C127.926 42.4328 127.671 42.3379 127.342 42.3379ZM138.012 43.8042H134.918V47H133.307V39.1797H138.399V40.4849H134.918V42.5044H138.012V43.8042ZM140.704 47H139.147V38.75H140.704V47ZM141.581 44.0405C141.581 43.464 141.692 42.9502 141.914 42.499C142.136 42.0479 142.455 41.6987 142.871 41.4517C143.289 41.2046 143.775 41.0811 144.326 41.0811C145.11 41.0811 145.749 41.321 146.244 41.8008C146.741 42.2806 147.019 42.9323 147.076 43.7559L147.087 44.1533C147.087 45.0449 146.838 45.7611 146.34 46.3018C145.843 46.8389 145.175 47.1074 144.337 47.1074C143.499 47.1074 142.829 46.8389 142.328 46.3018C141.83 45.7646 141.581 45.0342 141.581 44.1104V44.0405ZM143.134 44.1533C143.134 44.7048 143.238 45.1273 143.445 45.4209C143.653 45.7109 143.95 45.856 144.337 45.856C144.713 45.856 145.006 45.7127 145.218 45.4263C145.429 45.1362 145.535 44.6743 145.535 44.0405C145.535 43.4998 145.429 43.0809 145.218 42.7837C145.006 42.4865 144.709 42.3379 144.326 42.3379C143.947 42.3379 143.653 42.4865 143.445 42.7837C143.238 43.0773 143.134 43.5339 143.134 44.1533ZM147.636 44.0405C147.636 43.464 147.747 42.9502 147.969 42.499C148.191 42.0479 148.51 41.6987 148.925 41.4517C149.344 41.2046 149.829 41.0811 150.381 41.0811C151.165 41.0811 151.804 41.321 152.298 41.8008C152.796 42.2806 153.074 42.9323 153.131 43.7559L153.142 44.1533C153.142 45.0449 152.893 45.7611 152.395 46.3018C151.897 46.8389 151.229 47.1074 150.392 47.1074C149.554 47.1074 148.884 46.8389 148.383 46.3018C147.885 45.7646 147.636 45.0342 147.636 44.1104V44.0405ZM149.188 44.1533C149.188 44.7048 149.292 45.1273 149.5 45.4209C149.708 45.7109 150.005 45.856 150.392 45.856C150.768 45.856 151.061 45.7127 151.272 45.4263C151.484 45.1362 151.589 44.6743 151.589 44.0405C151.589 43.4998 151.484 43.0809 151.272 42.7837C151.061 42.4865 150.764 42.3379 150.381 42.3379C150.001 42.3379 149.708 42.4865 149.5 42.7837C149.292 43.0773 149.188 43.5339 149.188 44.1533ZM157.198 42.644C156.987 42.6154 156.801 42.6011 156.64 42.6011C156.052 42.6011 155.667 42.7998 155.485 43.1973V47H153.933V41.1885H155.399L155.442 41.8813C155.753 41.3478 156.185 41.0811 156.736 41.0811C156.908 41.0811 157.069 41.1043 157.22 41.1509L157.198 42.644ZM162.073 44.2446V47H160.461V39.1797H163.512C164.1 39.1797 164.615 39.2871 165.059 39.502C165.507 39.7168 165.85 40.0229 166.09 40.4204C166.33 40.8143 166.45 41.2637 166.45 41.7686C166.45 42.5348 166.187 43.14 165.661 43.584C165.138 44.0244 164.413 44.2446 163.485 44.2446H162.073ZM162.073 42.9395H163.512C163.938 42.9395 164.262 42.8392 164.484 42.6387C164.71 42.4382 164.823 42.1517 164.823 41.7793C164.823 41.3962 164.71 41.0864 164.484 40.8501C164.259 40.6138 163.947 40.492 163.55 40.4849H162.073V42.9395ZM169.895 47.1074C169.042 47.1074 168.348 46.846 167.811 46.3232C167.277 45.8005 167.01 45.104 167.01 44.2339V44.0835C167.01 43.4998 167.123 42.9788 167.349 42.5205C167.574 42.0586 167.893 41.7041 168.305 41.457C168.72 41.2064 169.193 41.0811 169.723 41.0811C170.518 41.0811 171.143 41.3317 171.597 41.833C172.056 42.3343 172.285 43.0451 172.285 43.9653V44.5991H168.584C168.634 44.9787 168.785 45.283 169.035 45.5122C169.289 45.7414 169.61 45.856 169.997 45.856C170.595 45.856 171.062 45.6393 171.399 45.2061L172.161 46.0601C171.928 46.3895 171.613 46.6473 171.216 46.8335C170.818 47.0161 170.378 47.1074 169.895 47.1074ZM169.717 42.3379C169.409 42.3379 169.159 42.4417 168.965 42.6494C168.776 42.8571 168.654 43.1543 168.6 43.541H170.759V43.4175C170.752 43.0737 170.659 42.8088 170.48 42.6226C170.301 42.4328 170.047 42.3379 169.717 42.3379ZM176.272 42.644C176.06 42.6154 175.874 42.6011 175.713 42.6011C175.126 42.6011 174.741 42.7998 174.558 43.1973V47H173.006V41.1885H174.472L174.515 41.8813C174.827 41.3478 175.258 41.0811 175.81 41.0811C175.982 41.0811 176.143 41.1043 176.293 41.1509L176.272 42.644ZM179.168 45.856C179.455 45.856 179.687 45.7772 179.866 45.6196C180.045 45.4621 180.139 45.2526 180.146 44.9912H181.601C181.598 45.3851 181.49 45.7467 181.279 46.0762C181.068 46.402 180.778 46.6562 180.409 46.8389C180.044 47.0179 179.639 47.1074 179.195 47.1074C178.364 47.1074 177.709 46.8442 177.229 46.3179C176.749 45.7879 176.509 45.0575 176.509 44.1265V44.0244C176.509 43.1292 176.748 42.4149 177.224 41.8813C177.7 41.3478 178.354 41.0811 179.184 41.0811C179.911 41.0811 180.493 41.2887 180.93 41.7041C181.37 42.1159 181.594 42.6655 181.601 43.353H180.146C180.139 43.0522 180.045 42.8088 179.866 42.6226C179.687 42.4328 179.451 42.3379 179.157 42.3379C178.796 42.3379 178.522 42.4704 178.336 42.7354C178.153 42.9967 178.062 43.4229 178.062 44.0137V44.1748C178.062 44.7728 178.153 45.2025 178.336 45.4639C178.518 45.7253 178.796 45.856 179.168 45.856ZM184.997 47.1074C184.145 47.1074 183.45 46.846 182.913 46.3232C182.38 45.8005 182.113 45.104 182.113 44.2339V44.0835C182.113 43.4998 182.226 42.9788 182.451 42.5205C182.677 42.0586 182.996 41.7041 183.407 41.457C183.823 41.2064 184.295 41.0811 184.825 41.0811C185.62 41.0811 186.245 41.3317 186.7 41.833C187.158 42.3343 187.387 43.0451 187.387 43.9653V44.5991H183.687C183.737 44.9787 183.887 45.283 184.138 45.5122C184.392 45.7414 184.713 45.856 185.099 45.856C185.697 45.856 186.165 45.6393 186.501 45.2061L187.264 46.0601C187.031 46.3895 186.716 46.6473 186.319 46.8335C185.921 47.0161 185.481 47.1074 184.997 47.1074ZM184.82 42.3379C184.512 42.3379 184.261 42.4417 184.068 42.6494C183.878 42.8571 183.757 43.1543 183.703 43.541H185.862V43.4175C185.855 43.0737 185.762 42.8088 185.583 42.6226C185.404 42.4328 185.149 42.3379 184.82 42.3379ZM189.537 41.1885L189.586 41.8599C190.001 41.3407 190.558 41.0811 191.256 41.0811C191.872 41.0811 192.33 41.2619 192.631 41.6235C192.932 41.9852 193.086 42.5259 193.093 43.2456V47H191.541V43.2832C191.541 42.9538 191.469 42.7157 191.326 42.5688C191.183 42.4185 190.945 42.3433 190.612 42.3433C190.175 42.3433 189.847 42.5295 189.629 42.9019V47H188.076V41.1885H189.537ZM195.968 39.7598V41.1885H196.962V42.3271H195.968V45.2275C195.968 45.4424 196.009 45.5964 196.092 45.6895C196.174 45.7826 196.332 45.8291 196.564 45.8291C196.736 45.8291 196.888 45.8166 197.021 45.7915V46.9678C196.716 47.0609 196.403 47.1074 196.081 47.1074C194.992 47.1074 194.437 46.5578 194.416 45.4585V42.3271H193.567V41.1885H194.416V39.7598H195.968ZM201.029 47C200.958 46.8604 200.906 46.6867 200.873 46.479C200.497 46.8979 200.009 47.1074 199.407 47.1074C198.838 47.1074 198.365 46.9427 197.989 46.6133C197.617 46.2839 197.431 45.8685 197.431 45.3672C197.431 44.7513 197.658 44.2786 198.113 43.9492C198.571 43.6198 199.232 43.4533 200.095 43.4497H200.809V43.1167C200.809 42.8481 200.739 42.6333 200.599 42.4722C200.463 42.311 200.247 42.2305 199.95 42.2305C199.688 42.2305 199.482 42.2931 199.332 42.4185C199.185 42.5438 199.112 42.7157 199.112 42.9341H197.559C197.559 42.5975 197.663 42.286 197.871 41.9995C198.079 41.7131 198.372 41.4893 198.752 41.3281C199.131 41.1634 199.557 41.0811 200.03 41.0811C200.746 41.0811 201.314 41.2619 201.733 41.6235C202.155 41.9816 202.367 42.4865 202.367 43.1382V45.6572C202.37 46.2087 202.447 46.6258 202.597 46.9087V47H201.029ZM199.745 45.9204C199.975 45.9204 200.186 45.8703 200.379 45.77C200.573 45.6662 200.716 45.5283 200.809 45.3564V44.3574H200.229C199.452 44.3574 199.038 44.626 198.988 45.1631L198.983 45.2544C198.983 45.4478 199.051 45.6071 199.187 45.7324C199.323 45.8577 199.509 45.9204 199.745 45.9204ZM203.168 44.0513C203.168 43.1597 203.38 42.4417 203.802 41.8975C204.228 41.3532 204.801 41.0811 205.521 41.0811C206.158 41.0811 206.654 41.2995 207.009 41.7363L207.073 41.1885H208.48V46.8066C208.48 47.3151 208.364 47.7573 208.131 48.1333C207.902 48.5093 207.578 48.7957 207.159 48.9927C206.74 49.1896 206.25 49.2881 205.687 49.2881C205.261 49.2881 204.846 49.2021 204.441 49.0303C204.037 48.862 203.731 48.6436 203.523 48.375L204.21 47.4297C204.597 47.863 205.066 48.0796 205.618 48.0796C206.029 48.0796 206.35 47.9686 206.579 47.7466C206.808 47.5282 206.923 47.2166 206.923 46.812V46.5005C206.565 46.9051 206.094 47.1074 205.51 47.1074C204.812 47.1074 204.246 46.8353 203.813 46.291C203.383 45.7432 203.168 45.0181 203.168 44.1157V44.0513ZM204.721 44.1641C204.721 44.6904 204.826 45.104 205.037 45.4048C205.249 45.702 205.539 45.8506 205.908 45.8506C206.38 45.8506 206.719 45.6733 206.923 45.3188V42.875C206.715 42.5205 206.38 42.3433 205.918 42.3433C205.546 42.3433 205.252 42.4954 205.037 42.7998C204.826 43.1042 204.721 43.5589 204.721 44.1641ZM212.188 47.1074C211.336 47.1074 210.641 46.846 210.104 46.3232C209.57 45.8005 209.304 45.104 209.304 44.2339V44.0835C209.304 43.4998 209.416 42.9788 209.642 42.5205C209.868 42.0586 210.186 41.7041 210.598 41.457C211.013 41.2064 211.486 41.0811 212.016 41.0811C212.811 41.0811 213.436 41.3317 213.891 41.833C214.349 42.3343 214.578 43.0451 214.578 43.9653V44.5991H210.877C210.927 44.9787 211.078 45.283 211.329 45.5122C211.583 45.7414 211.903 45.856 212.29 45.856C212.888 45.856 213.355 45.6393 213.692 45.2061L214.455 46.0601C214.222 46.3895 213.907 46.6473 213.509 46.8335C213.112 47.0161 212.671 47.1074 212.188 47.1074ZM212.011 42.3379C211.703 42.3379 211.452 42.4417 211.259 42.6494C211.069 42.8571 210.947 43.1543 210.893 43.541H213.053V43.4175C213.045 43.0737 212.952 42.8088 212.773 42.6226C212.594 42.4328 212.34 42.3379 212.011 42.3379Z" fill="black"/>
</g>
<defs>
<filter id="filter0_d" x="6" y="11" width="238" height="73" filterUnits="userSpaceOnUse" color-interpolation-filters="sRGB">
<feFlood flood-opacity="0" result="BackgroundImageFix"/>
<feColorMatrix in="SourceAlpha" type="matrix" values="0 0 0 0 0 0 0 0 0 0 0 0 0 0 0 0 0 0 127 0" result="hardAlpha"/>
<feOffset dy="4"/>
<feGaussianBlur stdDeviation="2"/>
<feComposite in2="hardAlpha" operator="out"/>
<feColorMatrix type="matrix" values="0 0 0 0 0 0 0 0 0 0 0 0 0 0 0 0 0 0 0.25 0"/>
<feBlend mode="normal" in2="BackgroundImageFix" result="effect1_dropShadow"/>
<feBlend mode="normal" in="SourceGraphic" in2="effect1_dropShadow" result="shape"/>
</filter>
</defs>
</svg>
