<svg width="20" height="20" viewBox="0 0 20 20" fill="none" xmlns="http://www.w3.org/2000/svg">
<g id="healthicons:high-level-outline">
<g id="Group">
<path id="Vector" d="M2.54538 10C2.7275 8.35001 3.45408 6.80771 4.61038 5.61667L5.88371 6.88958L6.4733 6.30042L5.22288 5.05042C6.45594 4.02913 7.98456 3.43112 9.5833 3.34458V5.41667H10.4166V3.34458C12.0154 3.43109 13.544 4.02911 14.777 5.05042L13.577 6.25L14.1666 6.83917L15.3895 5.61625C16.5459 6.8074 17.2725 8.34987 17.4545 10H15.7016V10.8333H17.5C17.5017 12.5712 16.8966 14.2552 15.7891 15.5946L14.3641 14.1696L13.7745 14.7588L15.2237 16.2075L15.2183 16.2125L15.7979 16.8113C16.6009 16.0358 17.2393 15.1063 17.675 14.0785C18.1106 13.0506 18.3345 11.9455 18.3333 10.8292C18.3333 6.22917 14.602 2.5 9.99996 2.5C5.39788 2.5 1.66663 6.22875 1.66663 10.8292C1.66412 13.0248 2.53158 15.132 4.07913 16.6896L4.6708 16.1033L4.66288 16.095L5.91538 14.8429L5.32621 14.2538L4.10996 15.4696C3.06569 14.15 2.4983 12.5161 2.49996 10.8333H4.18871V10H2.54538Z" fill="#2724CA"/>
<path id="Vector_2" fillRule="evenodd" clipRule="evenodd" d="M14.7837 11.9254L8.96665 12.4625C8.80566 12.4934 8.66149 12.582 8.56123 12.7117L7.87873 13.7242C7.80248 14.2296 7.85665 14.4309 8.15582 14.7575L9.2529 15.2925C9.40457 15.355 9.57373 15.3592 9.72832 15.3059L15.0267 12.8592C15.8146 12.5854 15.6037 11.7688 14.7842 11.9259L14.7837 11.9254ZM9.50748 14.4896L12.8633 12.9396L9.18332 13.2792L8.68248 14.0217C8.67998 14.0554 8.6804 14.0759 8.68123 14.0863L9.50748 14.4896ZM8.67498 14.0754L8.67665 14.0788C8.67581 14.0778 8.67511 14.0766 8.67457 14.0754H8.67498ZM14.7933 12.0538L14.7946 12.0529L14.7933 12.0538Z" fill="#2724CA"/>
</g>
</g>
</svg>
