<svg width="191" height="42" viewBox="0 0 191 42" fill="none" xmlns="http://www.w3.org/2000/svg">
<g id="Group 98">
<g id="Group 97">
<g id="Group 1">
<path id="WiseSoft, LLC" d="M59.46 14.6207H61.0865L62.98 8.67308H63.0043L64.8978 14.6207H66.585L69.0975 6.02701H67.1797L65.7353 11.6833H65.711L63.9268 6.02701H62.1668L60.3703 11.5376H60.3461L58.9745 6.02701H56.911L59.46 14.6207ZM69.7408 14.6207H71.5615V8.72163H69.7408V14.6207ZM69.5952 6.86453C69.5952 7.44715 70.0685 7.92053 70.6512 7.92053C71.2338 7.92053 71.7072 7.44715 71.7072 6.86453C71.7072 6.28191 71.2338 5.80853 70.6512 5.80853C70.0685 5.80853 69.5952 6.28191 69.5952 6.86453ZM77.3242 9.3528C76.778 8.77018 75.9162 8.57598 75.1394 8.57598C73.9013 8.57598 72.6632 9.18287 72.6632 10.5666C72.6632 12.8121 75.7341 12.011 75.7341 12.9578C75.7341 13.2734 75.3214 13.3826 74.9087 13.3826C74.3625 13.3826 73.962 13.152 73.6221 12.7393L72.5176 13.9652C73.1002 14.56 74.0105 14.7663 74.8359 14.7663C76.0983 14.7663 77.5548 14.3294 77.5548 12.8243C77.5548 10.5787 74.4839 11.3191 74.4839 10.4452C74.4839 10.0932 74.848 9.9597 75.1515 9.9597C75.5885 9.9597 75.9405 10.1296 76.2075 10.4574L77.3242 9.3528ZM82.7971 12.6665C82.4936 13.0791 82.0931 13.3826 81.4983 13.3826C80.7943 13.3826 80.2724 12.9335 80.1267 12.2416H84.3507V11.6711C84.3507 9.78977 83.2826 8.57598 81.5833 8.57598C79.7626 8.57598 78.306 9.78977 78.306 11.6711C78.306 13.5525 79.7626 14.7663 81.5833 14.7663C82.53 14.7663 83.4889 14.3415 84.0715 13.6011L82.7971 12.6665ZM80.1267 11.0036C80.1753 10.4331 80.6122 9.88687 81.4133 9.88687C82.0688 9.88687 82.5422 10.3967 82.53 11.0036H80.1267ZM91.2356 6.70674C90.5073 6.06342 89.5727 5.80853 88.6016 5.80853C86.9145 5.80853 85.3244 6.76743 85.3244 8.60025C85.3244 11.4648 89.3542 10.6151 89.3542 12.1931C89.3542 12.8 88.6623 13.0913 88.0433 13.0913C87.4121 13.0913 86.781 12.7878 86.3925 12.278L85.0452 13.7589C85.8585 14.5114 86.8295 14.8391 87.9341 14.8391C89.7062 14.8391 91.2477 13.9288 91.2477 12.011C91.2477 9.0008 87.2908 10.0083 87.2908 8.44246C87.2908 7.79915 88.0312 7.55639 88.5652 7.55639C89.0265 7.55639 89.6334 7.73846 89.9368 8.12687L91.2356 6.70674ZM92.2093 11.6711C92.2093 13.5525 93.6658 14.7663 95.4865 14.7663C97.3072 14.7663 98.7637 13.5525 98.7637 11.6711C98.7637 9.78977 97.3072 8.57598 95.4865 8.57598C93.6658 8.57598 92.2093 9.78977 92.2093 11.6711ZM94.03 11.6711C94.03 10.7851 94.5762 10.1782 95.4865 10.1782C96.3969 10.1782 96.9431 10.7851 96.9431 11.6711C96.9431 12.5572 96.3969 13.1641 95.4865 13.1641C94.5762 13.1641 94.03 12.5572 94.03 11.6711ZM100.467 14.6207H102.288V10.1782H103.635V8.72163H102.288V7.78701C102.288 7.01018 102.579 6.82811 103.162 6.82811C103.38 6.82811 103.55 6.87667 103.757 6.94949L103.842 5.40798C103.502 5.32301 103.138 5.29874 102.774 5.29874C100.795 5.29874 100.467 6.39115 100.467 7.67777V8.72163H99.2657V10.1782H100.467V14.6207ZM108.346 8.72163H106.744V6.97377H104.923V8.72163H103.758V10.1782H104.923V12.982C104.923 14.2687 105.858 14.7663 107.072 14.7663C107.497 14.7663 107.946 14.7299 108.346 14.5843V13.067C108.188 13.2127 107.8 13.2369 107.606 13.2369C106.817 13.2369 106.744 12.7757 106.744 12.1445V10.1782H108.346V8.72163ZM108.835 16.0772H110.388L111.481 12.6543H109.733L108.835 16.0772ZM116.758 14.6207H122.16V12.8728H118.652V6.02701H116.758V14.6207ZM123.278 14.6207H128.679V12.8728H125.171V6.02701H123.278V14.6207ZM136.801 7.07087C136.072 6.13625 134.858 5.80853 133.9 5.80853C131.217 5.80853 129.263 7.56853 129.263 10.3238C129.263 13.0791 131.217 14.8391 133.9 14.8391C135.077 14.8391 136.291 14.3658 137.007 13.3462L135.429 12.1688C135.041 12.7514 134.421 13.0913 133.657 13.0913C132.285 13.0913 131.229 11.926 131.229 10.3238C131.229 8.72163 132.285 7.55639 133.717 7.55639C134.421 7.55639 134.968 7.81129 135.344 8.26039L136.801 7.07087Z" fill="#151A3A"/>
<path id="DECENTRALIZED FINANCE" d="M57.5146 27.7241H59.2989C61.2531 27.7241 62.2959 26.3878 62.2959 24.9898C62.2959 23.9779 61.732 22.2554 59.4225 22.2554H57.5146V27.7241ZM58.2561 22.9506H59.3684C61.145 22.9506 61.508 24.2946 61.508 24.9898C61.508 26.3415 60.4421 27.0289 59.1908 27.0289H58.2561V22.9506ZM63.3634 27.7241H67.0324V27.0289H64.1049V25.2756H66.7002V24.5804H64.1049V22.9506H66.8933V22.2554H63.3634V27.7241ZM72.5113 22.9661C72.0711 22.3867 71.3141 22.1164 70.5957 22.1164C68.9119 22.1164 67.7455 23.3368 67.7455 25.0361C67.7455 26.411 68.8192 27.8632 70.5571 27.8632C71.8084 27.8632 72.465 27.1294 72.6272 26.9054L72.0015 26.4342C71.6771 26.8899 71.1982 27.168 70.5726 27.168C69.2981 27.168 68.5334 26.187 68.5334 25.0361C68.5334 23.7925 69.3444 22.8116 70.5726 22.8116C71.0746 22.8116 71.5844 23.0356 71.8934 23.4372L72.5113 22.9661ZM73.524 27.7241H77.1929V27.0289H74.2655V25.2756H76.8608V24.5804H74.2655V22.9506H77.0539V22.2554H73.524V27.7241ZM78.246 27.7241H78.9875V23.2287H79.0029L82.0462 27.7241H82.9886V22.2554H82.2471V26.7509H82.2316L79.2192 22.2554H78.246V27.7241ZM85.5368 27.7241H86.2783V22.9506H88.0394V22.2554H83.7757V22.9506H85.5368V27.7241ZM88.8289 27.7241H89.5704V25.3142H90.3969L91.7873 27.7241H92.7142L91.1616 25.2292C91.9881 25.1365 92.5056 24.48 92.5056 23.7848C92.5056 23.0974 92.1503 22.2554 90.7522 22.2554H88.8289V27.7241ZM89.5704 22.9043H90.5437C91.1307 22.9043 91.7178 23.0433 91.7178 23.7848C91.7178 24.5263 91.1307 24.6654 90.5437 24.6654H89.5704V22.9043ZM92.8557 27.7241H93.7208L94.2615 26.3724H96.8646L97.413 27.7241H98.2781L95.9377 22.2554H95.2657L92.8557 27.7241ZM94.5242 25.7236L95.5592 23.2132H95.5746L96.5942 25.7236H94.5242ZM98.9895 27.7241H102.241V27.0289H99.731V22.2554H98.9895V27.7241ZM102.995 27.7241H103.736V22.2554H102.995V27.7241ZM104.689 27.7241H108.775V27.0289H105.631L108.729 22.9506V22.2554H104.782V22.9506H107.802L104.689 27.0289V27.7241ZM109.723 27.7241H113.392V27.0289H110.465V25.2756H113.06V24.5804H110.465V22.9506H113.253V22.2554H109.723V27.7241ZM114.322 27.7241H116.106C118.06 27.7241 119.103 26.3878 119.103 24.9898C119.103 23.9779 118.539 22.2554 116.23 22.2554H114.322V27.7241ZM115.063 22.9506H116.176C117.952 22.9506 118.315 24.2946 118.315 24.9898C118.315 26.3415 117.249 27.0289 115.998 27.0289H115.063V22.9506ZM122.32 27.7241H123.062V25.3605H125.572V24.6654H123.062V22.9506H125.758V22.2554H122.32V27.7241ZM126.756 27.7241H127.497V22.2554H126.756V27.7241ZM128.905 27.7241H129.647V23.2287H129.662L132.706 27.7241H133.648V22.2554H132.907V26.7509H132.891L129.879 22.2554H128.905V27.7241ZM134.358 27.7241H135.223L135.764 26.3724H138.367L138.915 27.7241H139.78L137.44 22.2554H136.768L134.358 27.7241ZM136.026 25.7236L137.061 23.2132H137.077L138.096 25.7236H136.026ZM140.492 27.7241H141.233V23.2287H141.249L144.292 27.7241H145.234V22.2554H144.493V26.7509H144.477L141.465 22.2554H140.492V27.7241ZM151.065 22.9661C150.625 22.3867 149.868 22.1164 149.15 22.1164C147.466 22.1164 146.299 23.3368 146.299 25.0361C146.299 26.411 147.373 27.8632 149.111 27.8632C150.362 27.8632 151.019 27.1294 151.181 26.9054L150.555 26.4342C150.231 26.8899 149.752 27.168 149.126 27.168C147.852 27.168 147.087 26.187 147.087 25.0361C147.087 23.7925 147.898 22.8116 149.126 22.8116C149.629 22.8116 150.138 23.0356 150.447 23.4372L151.065 22.9661ZM152.078 27.7241H155.747V27.0289H152.819V25.2756H155.415V24.5804H152.819V22.9506H155.608V22.2554H152.078V27.7241Z" fill="#151A3A"/>
</g>
</g>
<g id="WISEgd 1" clip-path="url(#clip0)">
<g id="Layer x0020 1">
<g id="2402674049952">
<path id="Vector" fill-rule="evenodd" clip-rule="evenodd" d="M8.31298 0.0253267H10.1249L9.94242 7.19157C17.4428 7.66347 19.8891 8.86619 25.9051 13.3764C30.7395 9.78494 35.8642 7.23333 42.0337 7.19574L42.0254 -0.00390625L43.8704 0.0211505L43.7502 6.73637C43.7129 8.74926 43.4807 8.6198 41.5278 8.8829C34.5167 9.83088 31.8217 10.7329 26.0129 15.7025C20.2746 11.3552 17.1567 9.37151 10.4234 8.91631C8.28396 8.77014 8.03934 8.66156 8.1886 6.88671L8.30884 0.0211505L8.31298 0.0253267Z" fill="#151A3A"/>
<path id="Vector_2" fill-rule="evenodd" clip-rule="evenodd" d="M4.21222 4.047H6.02409L6.09043 7.83057C6.27701 11.5557 9.43223 10.829 11.7831 11.1882C18.7652 12.2573 21.228 14.4372 26.2159 19.1187C30.9881 13.0131 36.7347 11.3761 44.0941 10.8708C45.1389 10.7998 45.993 9.33398 46.0096 8.36094L46.0925 4.09711L47.9376 4.12217L47.7469 8.28577C47.6432 10.5075 46.0594 12.6456 43.7541 12.7835C35.2213 13.3055 31.0918 15.7276 26.162 21.9835C21.3607 16.4376 17.9277 13.4642 10.278 12.8753C7.19331 12.8712 4.46099 11.9274 4.34904 8.36094L4.21222 4.047Z" fill="#151A3A"/>
<path id="Vector_3" fill-rule="evenodd" clip-rule="evenodd" d="M0 8.02671L2.11869 8.00166C2.3716 11.3676 4.3659 14.7211 8.35865 14.9633C15.801 15.4143 22.1695 18.1455 25.3496 25.4119L25.9715 26.8277H26.3447C26.6349 25.8504 26.8588 25.3785 27.3232 24.4723C31.1459 18.2415 35.9223 15.3057 43.2734 15.0969C47.4196 14.6208 49.6212 12.3741 50.0566 7.94737L52.1379 7.93066C51.6528 12.3908 48.7381 16.7256 44.0156 17.1808C42.0711 17.3645 40.6323 17.3186 38.6422 17.8364C34.2348 18.9891 30.723 21.7662 28.5173 26.3474C27.4641 28.7236 27.0412 30.3732 27.0081 32.9791L25.1382 32.9499C24.9557 30.2396 24.6448 27.6545 23.0982 25.3284C18.637 18.6257 15.6559 17.7487 8.1472 16.972C2.78622 16.4166 0.717285 12.6706 0.00829231 8.02254L0 8.02671Z" fill="#29ABB5"/>
<path id="Vector_4" fill-rule="evenodd" clip-rule="evenodd" d="M26.1 5.77594C28.4177 5.77594 30.6359 6.21861 32.6675 7.0246L29.7113 8.34844L29.6989 8.39437C28.5421 8.12293 27.3355 7.97676 26.0958 7.97676C24.9266 7.97676 23.7864 8.10622 22.6918 8.34844L19.6403 6.97867C21.6429 6.2019 23.8196 5.77594 26.0958 5.77594H26.1ZM43.4765 19.2147C43.8704 20.7056 44.0819 22.2717 44.0819 23.892C44.0819 33.8938 36.03 42.0039 26.1 42.0039C16.1699 42.0039 8.1181 33.8938 8.1181 23.892C8.1181 22.2717 8.32956 20.7014 8.72759 19.2064L10.9748 19.2982C10.5395 20.7515 10.3073 22.2925 10.3073 23.8878C10.3073 32.6744 17.3806 39.7989 26.1041 39.7989C34.8276 39.7989 41.901 32.6744 41.901 23.8878C41.901 22.2925 41.6688 20.7557 41.2335 19.3066L43.4807 19.2147H43.4765Z" fill="#151A3A"/>
<path id="Vector_5" fill-rule="evenodd" clip-rule="evenodd" d="M36.2501 20.9519C37.0793 21.6618 37.6059 22.7226 37.6059 23.9044C37.6059 26.0426 35.8852 27.7799 33.7582 27.7799C32.589 27.7799 31.54 27.2537 30.8311 26.4185L32.0625 24.8148C32.3859 25.4204 33.0244 25.8338 33.7541 25.8338C34.8155 25.8338 35.6738 24.9693 35.6738 23.9003C35.6738 23.1611 35.2633 22.5221 34.658 22.1964L36.2459 20.9519H36.2501Z" fill="#151A3A"/>
<path id="Vector_6" fill-rule="evenodd" clip-rule="evenodd" d="M15.9628 20.9519C15.1336 21.6618 14.6071 22.7226 14.6071 23.9044C14.6071 26.0426 16.3277 27.7799 18.4547 27.7799C19.6281 27.7799 20.6729 27.2537 21.3819 26.4185L20.1505 24.8148C19.8271 25.4204 19.1886 25.8338 18.4588 25.8338C17.3974 25.8338 16.5392 24.9693 16.5392 23.9003C16.5392 23.1611 16.9496 22.5221 17.555 22.1964L15.967 20.9519H15.9628Z" fill="#151A3A"/>
</g>
</g>
</g>
</g>
<defs>
<clipPath id="clip0">
<rect width="52.1379" height="42" fill="white"/>
</clipPath>
</defs>
</svg>
