<svg width="15" height="15" viewBox="0 0 15 15" fill="none" xmlns="http://www.w3.org/2000/svg">
<path fillRule="evenodd" clipRule="evenodd" d="M12.1184 1.17365C10.9351 1.17365 9.97588 2.13288 9.97588 3.31616V11.8862C9.97588 13.0695 10.9351 14.0287 12.1184 14.0287C13.3017 14.0287 14.2609 13.0695 14.2609 11.8862C14.2609 10.7029 13.3017 9.7437 12.1184 9.7437H3.54834C2.36506 9.7437 1.40582 10.7029 1.40582 11.8862C1.40582 13.0695 2.36506 14.0287 3.54834 14.0287C4.73161 14.0287 5.69085 13.0695 5.69085 11.8862V3.31616C5.69085 2.13288 4.73161 1.17365 3.54834 1.17365C2.36506 1.17365 1.40582 2.13288 1.40582 3.31616C1.40582 4.49944 2.36506 5.45867 3.54834 5.45867H12.1184C13.3017 5.45867 14.2609 4.49944 14.2609 3.31616C14.2609 2.13288 13.3017 1.17365 12.1184 1.17365Z" stroke="white" strokeOpacity="0.87" strokeWidth="1.42834" strokeLinecap="round" strokeLinejoin="round"/>
</svg>
