<svg width="20" height="17" viewBox="0 0 20 17" fill="none" xmlns="http://www.w3.org/2000/svg">
<g id="Group">
<path id="Vector" d="M3.75 4.37498C3.75 4.20922 3.81585 4.05025 3.93306 3.93304C4.05027 3.81583 4.20924 3.74998 4.375 3.74998H13.125C13.2908 3.74998 13.4497 3.81583 13.5669 3.93304C13.6842 4.05025 13.75 4.20922 13.75 4.37498C13.75 4.54074 13.6842 4.69971 13.5669 4.81692C13.4497 4.93413 13.2908 4.99998 13.125 4.99998H4.375C4.20924 4.99998 4.05027 4.93413 3.93306 4.81692C3.81585 4.69971 3.75 4.54074 3.75 4.37498Z" fill="#2724CA"/>
<path id="Vector_2" d="M10.6251 7.49995C10.4593 7.49995 10.3003 7.5658 10.1831 7.68301C10.0659 7.80022 10.0001 7.95919 10.0001 8.12495C10.0001 8.29071 10.0659 8.44969 10.1831 8.5669C10.3003 8.68411 10.4593 8.74995 10.6251 8.74995H13.1251C13.2908 8.74995 13.4498 8.68411 13.567 8.5669C13.6842 8.44969 13.7501 8.29071 13.7501 8.12495C13.7501 7.95919 13.6842 7.80022 13.567 7.68301C13.4498 7.5658 13.2908 7.49995 13.1251 7.49995H10.6251Z" fill="#2724CA"/>
<path id="Vector_3" d="M10.0001 11.875C10.0001 11.7093 10.0659 11.5503 10.1831 11.4331C10.3003 11.3159 10.4593 11.25 10.6251 11.25H13.1251C13.2908 11.25 13.4498 11.3159 13.567 11.4331C13.6842 11.5503 13.7501 11.7093 13.7501 11.875C13.7501 12.0408 13.6842 12.1998 13.567 12.317C13.4498 12.4342 13.2908 12.5 13.1251 12.5H10.6251C10.4593 12.5 10.3003 12.4342 10.1831 12.317C10.0659 12.1998 10.0001 12.0408 10.0001 11.875Z" fill="#2724CA"/>
<path id="Vector_4" d="M4.375 7.49995C4.20924 7.49995 4.05027 7.5658 3.93306 7.68301C3.81585 7.80022 3.75 7.95919 3.75 8.12495V11.875C3.75 12.0407 3.81585 12.1997 3.93306 12.3169C4.05027 12.4341 4.20924 12.5 4.375 12.5H8.125C8.29076 12.5 8.44973 12.4341 8.56694 12.3169C8.68415 12.1997 8.75 12.0407 8.75 11.875V8.12495C8.75 7.95919 8.68415 7.80022 8.56694 7.68301C8.44973 7.5658 8.29076 7.49995 8.125 7.49995H4.375ZM5 11.25V8.74995H7.5V11.25H5Z" fill="#2724CA"/>
<path id="Vector_5" d="M0 2.5C0 1.83696 0.263392 1.20107 0.732233 0.732233C1.20107 0.263392 1.83696 0 2.5 0H15C15.663 0 16.2989 0.263392 16.7678 0.732233C17.2366 1.20107 17.5 1.83696 17.5 2.5V3.75C18.163 3.75 18.7989 4.01339 19.2678 4.48223C19.7366 4.95107 20 5.58696 20 6.25V13.125C20 13.9538 19.6708 14.7487 19.0847 15.3347C18.4987 15.9208 17.7038 16.25 16.875 16.25H3.125C2.2962 16.25 1.50134 15.9208 0.915291 15.3347C0.32924 14.7487 0 13.9538 0 13.125V2.5ZM16.25 2.5C16.25 2.16848 16.1183 1.85054 15.8839 1.61612C15.6495 1.3817 15.3315 1.25 15 1.25H2.5C2.16848 1.25 1.85054 1.3817 1.61612 1.61612C1.3817 1.85054 1.25 2.16848 1.25 2.5V13.125C1.25 13.6223 1.44754 14.0992 1.79917 14.4508C2.15081 14.8025 2.62772 15 3.125 15H16.875C17.3723 15 17.8492 14.8025 18.2008 14.4508C18.5525 14.0992 18.75 13.6223 18.75 13.125V6.25C18.75 5.91848 18.6183 5.60054 18.3839 5.36612C18.1495 5.1317 17.8315 5 17.5 5V13.125C17.5 13.2908 17.4342 13.4497 17.3169 13.5669C17.1997 13.6842 17.0408 13.75 16.875 13.75C16.7092 13.75 16.5503 13.6842 16.4331 13.5669C16.3158 13.4497 16.25 13.2908 16.25 13.125V2.5Z" fill="#2724CA"/>
</g>
</svg>
