<svg width="12" height="20" viewBox="0 0 12 20" fill="none" xmlns="http://www.w3.org/2000/svg">
<path id="Vector" d="M7.9111 9.2H3.9111C3.29816 9.2 2.71032 8.95651 2.27691 8.52309C1.84349 8.08968 1.6 7.50184 1.6 6.8889C1.6 6.27596 1.84349 5.68812 2.27691 5.25471C2.71032 4.82129 3.29816 4.5778 3.9111 4.5778H10.3111V2.9778H6.9111V0H5.3111V2.9778H3.9111C2.87381 2.9778 1.87901 3.38986 1.14553 4.12333C0.412061 4.85681 0 5.85161 0 6.8889C0 7.92619 0.412061 8.92099 1.14553 9.65447C1.87901 10.3879 2.87381 10.8 3.9111 10.8H7.9111C8.52383 10.8007 9.11127 11.0444 9.54453 11.4777C9.9778 11.9109 10.2215 12.4984 10.2222 13.1111V13.2889C10.2215 13.9016 9.9778 14.4891 9.54453 14.9223C9.11127 15.3556 8.52383 15.5993 7.9111 15.6H1.14075V17.2H5.3111V20H6.9111V17.2H7.9111C8.94803 17.1988 9.94216 16.7864 10.6754 16.0532C11.4086 15.32 11.821 14.3258 11.8222 13.2889V13.1111C11.821 12.0742 11.4086 11.08 10.6754 10.3468C9.94216 9.6136 8.94803 9.20117 7.9111 9.2Z" fill="#2724CA"/>
</svg>
