<svg width="258" height="100" viewBox="0 0 258 100" fill="none" xmlns="http://www.w3.org/2000/svg">
<g id="price-floor-percent">
<g id="Group 11" filter="url(#filter0_d)">
<rect id="Rectangle 10" x="4" y="10" width="250" height="75" rx="8" fill="white"/>
<g id="Ellipse 3">
<circle cx="59.5" cy="47.5" r="42.5" fill="white"/>
<circle cx="59.5" cy="47.5" r="42.5" fill="white"/>
<circle cx="59.5" cy="47.5" r="42.5" fill="white"/>
<circle cx="59.5" cy="47.5" r="42.5" fill="white"/>
</g>
<mask id="mask0" style="mask-type:alpha" maskUnits="userSpaceOnUse" x="17" y="5" width="85" height="85">
<g id="Ellipse 4">
<circle cx="59.5" cy="47.5" r="42.5" fill="white"/>
<circle cx="59.5" cy="47.5" r="42.5" fill="white"/>
<circle cx="59.5" cy="47.5" r="42.5" fill="white"/>
<circle cx="59.5" cy="47.5" r="42.5" fill="white"/>
</g>
</mask>
<g mask="url(#mask0)">
</g>
</g>
<path id="Ellipse 5" d="M28.9891 34.4117C27.051 33.4112 26.274 31.0148 27.4727 29.1926C30.106 25.1896 33.4892 21.7177 37.448 18.9753C41.4069 16.233 45.8464 14.286 50.5196 13.2278C52.6469 12.746 54.6172 14.3158 54.8727 16.4819V16.4819C55.1281 18.648 53.5683 20.585 51.4554 21.1264C48.0631 21.9954 44.8415 23.4623 41.9457 25.4682C39.0499 27.4742 36.5443 29.9747 34.5383 32.845C33.2889 34.6328 30.9272 35.4122 28.9891 34.4117V34.4117Z" fill="#2724CA"/>
<path id="-12.24%" d="M38.9434 48.0293H35.6445V46.6641H38.9434V48.0293ZM44.8257 51H43.1323V44.4727L41.1109 45.0996V43.7227L44.6441 42.457H44.8257V51ZM53.9307 51H48.083V49.8399L50.8428 46.8984C51.2217 46.4844 51.501 46.1231 51.6807 45.8145C51.8643 45.5059 51.9561 45.2129 51.9561 44.9356C51.9561 44.5566 51.8604 44.2598 51.669 44.0449C51.4776 43.8262 51.2041 43.7168 50.8487 43.7168C50.4659 43.7168 50.1631 43.8496 49.9405 44.1152C49.7217 44.377 49.6123 44.7227 49.6123 45.1524H47.9131C47.9131 44.6328 48.0362 44.1582 48.2823 43.7285C48.5323 43.2988 48.8838 42.9629 49.337 42.7207C49.7901 42.4746 50.3038 42.3516 50.878 42.3516C51.7569 42.3516 52.4385 42.5625 52.9229 42.9844C53.4112 43.4063 53.6553 44.002 53.6553 44.7715C53.6553 45.1934 53.5459 45.6231 53.3272 46.0606C53.1084 46.4981 52.7334 47.0078 52.2022 47.5899L50.2627 49.6348H53.9307V51ZM55.6119 50.168C55.6119 49.8984 55.7017 49.6797 55.8814 49.5117C56.065 49.3438 56.2935 49.2598 56.567 49.2598C56.8443 49.2598 57.0728 49.3438 57.2525 49.5117C57.4361 49.6797 57.5279 49.8984 57.5279 50.168C57.5279 50.4336 57.438 50.6504 57.2584 50.8184C57.0787 50.9824 56.8482 51.0645 56.567 51.0645C56.2896 51.0645 56.0611 50.9824 55.8814 50.8184C55.7017 50.6504 55.6119 50.4336 55.6119 50.168ZM65.2735 51H59.4259V49.8399L62.1856 46.8984C62.5645 46.4844 62.8438 46.1231 63.0235 45.8145C63.2071 45.5059 63.2989 45.2129 63.2989 44.9356C63.2989 44.5566 63.2032 44.2598 63.0118 44.0449C62.8204 43.8262 62.547 43.7168 62.1915 43.7168C61.8087 43.7168 61.5059 43.8496 61.2833 44.1152C61.0645 44.377 60.9552 44.7227 60.9552 45.1524H59.2559C59.2559 44.6328 59.379 44.1582 59.6251 43.7285C59.8751 43.2988 60.2266 42.9629 60.6798 42.7207C61.1329 42.4746 61.6466 42.3516 62.2208 42.3516C63.0997 42.3516 63.7813 42.5625 64.2657 42.9844C64.754 43.4063 64.9981 44.002 64.9981 44.7715C64.9981 45.1934 64.8888 45.6231 64.67 46.0606C64.4513 46.4981 64.0763 47.0078 63.545 47.5899L61.6055 49.6348H65.2735V51ZM71.8062 47.7891H72.773V49.1543H71.8062V51H70.1129V49.1543H66.6148L66.5387 48.0879L70.0953 42.4688H71.8062V47.7891ZM68.2262 47.7891H70.1129V44.7774L70.0016 44.9707L68.2262 47.7891ZM74.1437 44.1094C74.1437 43.5859 74.3136 43.1621 74.6534 42.8379C74.9933 42.5098 75.4386 42.3457 75.9894 42.3457C76.548 42.3457 76.9972 42.5078 77.337 42.832C77.6769 43.1524 77.8468 43.5879 77.8468 44.1387V44.5606C77.8468 45.0879 77.6769 45.5117 77.337 45.832C76.9972 46.1524 76.5519 46.3125 76.0011 46.3125C75.4464 46.3125 74.9972 46.1524 74.6534 45.832C74.3136 45.5078 74.1437 45.0723 74.1437 44.5254V44.1094ZM75.2687 44.5606C75.2687 44.7949 75.3351 44.9844 75.4679 45.1289C75.6046 45.2695 75.7823 45.3399 76.0011 45.3399C76.2198 45.3399 76.3937 45.2676 76.5226 45.1231C76.6515 44.9785 76.7159 44.7852 76.7159 44.543V44.1094C76.7159 43.875 76.6515 43.6856 76.5226 43.541C76.3937 43.3965 76.2159 43.3242 75.9894 43.3242C75.7745 43.3242 75.6007 43.3965 75.4679 43.541C75.3351 43.6816 75.2687 43.8789 75.2687 44.1328V44.5606ZM78.2218 48.9082C78.2218 48.3809 78.3937 47.957 78.7374 47.6367C79.0812 47.3125 79.5265 47.1504 80.0734 47.1504C80.628 47.1504 81.0753 47.3106 81.4152 47.6309C81.7589 47.9473 81.9308 48.3848 81.9308 48.9434V49.3652C81.9308 49.8887 81.7628 50.3125 81.4269 50.6367C81.0909 50.957 80.6437 51.1172 80.0851 51.1172C79.5226 51.1172 79.0714 50.9551 78.7316 50.6309C78.3917 50.3066 78.2218 49.877 78.2218 49.3418V48.9082ZM79.3468 49.3652C79.3468 49.5801 79.4171 49.7637 79.5577 49.916C79.6984 50.0684 79.8741 50.1445 80.0851 50.1445C80.5616 50.1445 80.7999 49.8809 80.7999 49.3535V48.9082C80.7999 48.6738 80.7335 48.4863 80.6007 48.3457C80.4679 48.2012 80.2921 48.1289 80.0734 48.1289C79.8546 48.1289 79.6788 48.2012 79.546 48.3457C79.4132 48.4863 79.3468 48.6797 79.3468 48.9258V49.3652ZM76.3351 50.3613L75.5089 49.916L79.6749 43.2481L80.5011 43.6934L76.3351 50.3613Z" fill="#000427"/>
<path id="Price Floor Percentage" d="M100.52 47.9941V51H98.7617V42.4688H102.09C102.73 42.4688 103.293 42.5859 103.777 42.8203C104.266 43.0547 104.641 43.3887 104.902 43.8223C105.164 44.252 105.295 44.7422 105.295 45.293C105.295 46.1289 105.008 46.7891 104.434 47.2734C103.863 47.7539 103.072 47.9941 102.061 47.9941H100.52ZM100.52 46.5703H102.09C102.555 46.5703 102.908 46.4609 103.15 46.2422C103.396 46.0234 103.52 45.7109 103.52 45.3047C103.52 44.8867 103.396 44.5488 103.15 44.291C102.904 44.0332 102.564 43.9004 102.131 43.8926H100.52V46.5703ZM110.439 46.2481C110.209 46.2168 110.005 46.2012 109.83 46.2012C109.189 46.2012 108.769 46.418 108.57 46.8516V51H106.876V44.6602H108.476L108.523 45.416C108.863 44.834 109.334 44.543 109.935 44.543C110.123 44.543 110.298 44.5684 110.462 44.6191L110.439 46.2481ZM113.526 51H111.827V44.6602H113.526V51ZM111.728 43.0195C111.728 42.7656 111.812 42.5566 111.98 42.3926C112.151 42.2285 112.384 42.1465 112.677 42.1465C112.966 42.1465 113.196 42.2285 113.368 42.3926C113.54 42.5566 113.626 42.7656 113.626 43.0195C113.626 43.2774 113.538 43.4883 113.362 43.6524C113.19 43.8164 112.962 43.8984 112.677 43.8984C112.392 43.8984 112.161 43.8164 111.985 43.6524C111.814 43.4883 111.728 43.2774 111.728 43.0195ZM118.044 49.752C118.356 49.752 118.61 49.666 118.805 49.4941C119.001 49.3223 119.102 49.0938 119.11 48.8086H120.698C120.694 49.2383 120.577 49.6328 120.346 49.9922C120.116 50.3477 119.799 50.625 119.397 50.8242C118.999 51.0195 118.557 51.1172 118.073 51.1172C117.167 51.1172 116.452 50.8301 115.928 50.2559C115.405 49.6777 115.143 48.8809 115.143 47.8652V47.7539C115.143 46.7774 115.403 45.9981 115.922 45.416C116.442 44.834 117.155 44.543 118.061 44.543C118.854 44.543 119.489 44.7695 119.965 45.2227C120.446 45.6719 120.69 46.2715 120.698 47.0215H119.11C119.102 46.6934 119.001 46.4277 118.805 46.2246C118.61 46.0176 118.352 45.9141 118.032 45.9141C117.637 45.9141 117.338 46.0586 117.135 46.3477C116.936 46.6328 116.836 47.0977 116.836 47.7422V47.918C116.836 48.5703 116.936 49.0391 117.135 49.3242C117.335 49.6094 117.637 49.752 118.044 49.752ZM125.063 51.1172C124.133 51.1172 123.375 50.832 122.789 50.2617C122.207 49.6914 121.916 48.9316 121.916 47.9824V47.8184C121.916 47.1816 122.039 46.6133 122.285 46.1133C122.531 45.6094 122.879 45.2227 123.328 44.9531C123.781 44.6797 124.297 44.543 124.875 44.543C125.742 44.543 126.424 44.8164 126.92 45.3633C127.42 45.9102 127.67 46.6856 127.67 47.6895V48.3809H123.633C123.688 48.7949 123.852 49.127 124.125 49.377C124.402 49.627 124.752 49.752 125.174 49.752C125.826 49.752 126.336 49.5156 126.703 49.043L127.535 49.9746C127.281 50.334 126.938 50.6152 126.504 50.8184C126.07 51.0176 125.59 51.1172 125.063 51.1172ZM124.869 45.9141C124.533 45.9141 124.26 46.0274 124.049 46.2539C123.842 46.4805 123.709 46.8047 123.65 47.2266H126.006V47.0918C125.998 46.7168 125.897 46.4277 125.701 46.2246C125.506 46.0176 125.229 45.9141 124.869 45.9141ZM137.829 47.5137H134.454V51H132.696V42.4688H138.251V43.8926H134.454V46.0957H137.829V47.5137ZM141.426 51H139.727V42H141.426V51ZM143.043 47.7715C143.043 47.1426 143.164 46.582 143.406 46.0899C143.649 45.5977 143.996 45.2168 144.449 44.9473C144.906 44.6777 145.436 44.543 146.037 44.543C146.893 44.543 147.59 44.8047 148.129 45.3281C148.672 45.8516 148.975 46.5625 149.037 47.4609L149.049 47.8945C149.049 48.8672 148.778 49.6484 148.235 50.2383C147.692 50.8242 146.963 51.1172 146.049 51.1172C145.135 51.1172 144.404 50.8242 143.858 50.2383C143.315 49.6524 143.043 48.8555 143.043 47.8477V47.7715ZM144.736 47.8945C144.736 48.4961 144.85 48.957 145.076 49.2774C145.303 49.5938 145.627 49.752 146.049 49.752C146.459 49.752 146.779 49.5957 147.01 49.2832C147.24 48.9668 147.356 48.4629 147.356 47.7715C147.356 47.1816 147.24 46.7246 147.01 46.4004C146.779 46.0762 146.455 45.9141 146.037 45.9141C145.623 45.9141 145.303 46.0762 145.076 46.4004C144.85 46.7207 144.736 47.2188 144.736 47.8945ZM150.308 47.7715C150.308 47.1426 150.429 46.582 150.672 46.0899C150.914 45.5977 151.261 45.2168 151.715 44.9473C152.172 44.6777 152.701 44.543 153.302 44.543C154.158 44.543 154.855 44.8047 155.394 45.3281C155.937 45.8516 156.24 46.5625 156.302 47.4609L156.314 47.8945C156.314 48.8672 156.043 49.6484 155.5 50.2383C154.957 50.8242 154.228 51.1172 153.314 51.1172C152.4 51.1172 151.67 50.8242 151.123 50.2383C150.58 49.6524 150.308 48.8555 150.308 47.8477V47.7715ZM152.002 47.8945C152.002 48.4961 152.115 48.957 152.341 49.2774C152.568 49.5938 152.892 49.752 153.314 49.752C153.724 49.752 154.045 49.5957 154.275 49.2832C154.506 48.9668 154.621 48.4629 154.621 47.7715C154.621 47.1816 154.506 46.7246 154.275 46.4004C154.045 46.0762 153.72 45.9141 153.302 45.9141C152.888 45.9141 152.568 46.0762 152.341 46.4004C152.115 46.7207 152.002 47.2188 152.002 47.8945ZM161.4 46.2481C161.169 46.2168 160.966 46.2012 160.79 46.2012C160.15 46.2012 159.73 46.418 159.53 46.8516V51H157.837V44.6602H159.437L159.484 45.416C159.823 44.834 160.294 44.543 160.896 44.543C161.083 44.543 161.259 44.5684 161.423 44.6191L161.4 46.2481ZM168.037 47.9941V51H166.28V42.4688H169.608C170.248 42.4688 170.811 42.5859 171.295 42.8203C171.783 43.0547 172.158 43.3887 172.42 43.8223C172.682 44.252 172.813 44.7422 172.813 45.293C172.813 46.1289 172.526 46.7891 171.951 47.2734C171.381 47.7539 170.59 47.9941 169.578 47.9941H168.037ZM168.037 46.5703H169.608C170.073 46.5703 170.426 46.4609 170.668 46.2422C170.914 46.0234 171.037 45.7109 171.037 45.3047C171.037 44.8867 170.914 44.5488 170.668 44.291C170.422 44.0332 170.082 43.9004 169.649 43.8926H168.037V46.5703ZM177.23 51.1172C176.301 51.1172 175.543 50.832 174.957 50.2617C174.375 49.6914 174.084 48.9316 174.084 47.9824V47.8184C174.084 47.1816 174.207 46.6133 174.453 46.1133C174.699 45.6094 175.047 45.2227 175.496 44.9531C175.949 44.6797 176.465 44.543 177.043 44.543C177.91 44.543 178.592 44.8164 179.088 45.3633C179.588 45.9102 179.838 46.6856 179.838 47.6895V48.3809H175.801C175.855 48.7949 176.019 49.127 176.293 49.377C176.57 49.627 176.92 49.752 177.342 49.752C177.994 49.752 178.504 49.5156 178.871 49.043L179.703 49.9746C179.449 50.334 179.105 50.6152 178.672 50.8184C178.238 51.0176 177.758 51.1172 177.23 51.1172ZM177.037 45.9141C176.701 45.9141 176.427 46.0274 176.217 46.2539C176.01 46.4805 175.877 46.8047 175.818 47.2266H178.174V47.0918C178.166 46.7168 178.064 46.4277 177.869 46.2246C177.674 46.0176 177.396 45.9141 177.037 45.9141ZM184.847 46.2481C184.616 46.2168 184.413 46.2012 184.238 46.2012C183.597 46.2012 183.177 46.418 182.978 46.8516V51H181.284V44.6602H182.884L182.931 45.416C183.271 44.834 183.741 44.543 184.343 44.543C184.531 44.543 184.706 44.5684 184.87 44.6191L184.847 46.2481ZM188.667 49.752C188.979 49.752 189.233 49.666 189.429 49.4941C189.624 49.3223 189.725 49.0938 189.733 48.8086H191.321C191.317 49.2383 191.2 49.6328 190.97 49.9922C190.739 50.3477 190.423 50.625 190.02 50.8242C189.622 51.0195 189.18 51.1172 188.696 51.1172C187.79 51.1172 187.075 50.8301 186.552 50.2559C186.028 49.6777 185.766 48.8809 185.766 47.8652V47.7539C185.766 46.7774 186.026 45.9981 186.546 45.416C187.065 44.834 187.778 44.543 188.684 44.543C189.477 44.543 190.112 44.7695 190.589 45.2227C191.069 45.6719 191.313 46.2715 191.321 47.0215H189.733C189.725 46.6934 189.624 46.4277 189.429 46.2246C189.233 46.0176 188.975 45.9141 188.655 45.9141C188.261 45.9141 187.962 46.0586 187.759 46.3477C187.559 46.6328 187.46 47.0977 187.46 47.7422V47.918C187.46 48.5703 187.559 49.0391 187.759 49.3242C187.958 49.6094 188.261 49.752 188.667 49.752ZM195.686 51.1172C194.756 51.1172 193.998 50.832 193.412 50.2617C192.83 49.6914 192.539 48.9316 192.539 47.9824V47.8184C192.539 47.1816 192.662 46.6133 192.909 46.1133C193.155 45.6094 193.502 45.2227 193.951 44.9531C194.405 44.6797 194.92 44.543 195.498 44.543C196.366 44.543 197.047 44.8164 197.543 45.3633C198.043 45.9102 198.293 46.6856 198.293 47.6895V48.3809H194.256C194.311 48.7949 194.475 49.127 194.748 49.377C195.026 49.627 195.375 49.752 195.797 49.752C196.45 49.752 196.959 49.5156 197.326 49.043L198.159 49.9746C197.905 50.334 197.561 50.6152 197.127 50.8184C196.694 51.0176 196.213 51.1172 195.686 51.1172ZM195.493 45.9141C195.157 45.9141 194.883 46.0274 194.672 46.2539C194.465 46.4805 194.332 46.8047 194.274 47.2266H196.629V47.0918C196.621 46.7168 196.52 46.4277 196.325 46.2246C196.129 46.0176 195.852 45.9141 195.493 45.9141ZM201.299 44.6602L201.351 45.3926C201.805 44.8262 202.412 44.543 203.174 44.543C203.846 44.543 204.346 44.7402 204.674 45.1348C205.002 45.5293 205.17 46.1191 205.178 46.9043V51H203.484V46.9453C203.484 46.5859 203.406 46.3262 203.25 46.166C203.094 46.002 202.834 45.9199 202.471 45.9199C201.994 45.9199 201.637 46.1231 201.398 46.5293V51H199.705V44.6602H201.299ZM208.974 43.1016V44.6602H210.058V45.9024H208.974V49.0664C208.974 49.3008 209.019 49.4688 209.109 49.5703C209.199 49.6719 209.37 49.7227 209.624 49.7227C209.812 49.7227 209.978 49.709 210.122 49.6816V50.9649C209.79 51.0664 209.449 51.1172 209.097 51.1172C207.91 51.1172 207.304 50.5176 207.281 49.3184V45.9024H206.355V44.6602H207.281V43.1016H208.974ZM215.155 51C215.077 50.8477 215.02 50.6582 214.985 50.4316C214.575 50.8887 214.042 51.1172 213.386 51.1172C212.765 51.1172 212.249 50.9375 211.839 50.5781C211.433 50.2188 211.229 49.7656 211.229 49.2188C211.229 48.5469 211.477 48.0313 211.974 47.6719C212.474 47.3125 213.194 47.1309 214.136 47.127H214.915V46.7637C214.915 46.4707 214.839 46.2363 214.686 46.0606C214.538 45.8848 214.302 45.7969 213.977 45.7969C213.692 45.7969 213.468 45.8652 213.304 46.002C213.143 46.1387 213.063 46.3262 213.063 46.5645H211.37C211.37 46.1973 211.483 45.8574 211.71 45.5449C211.936 45.2324 212.257 44.9883 212.671 44.8125C213.085 44.6328 213.55 44.543 214.065 44.543C214.847 44.543 215.466 44.7402 215.923 45.1348C216.384 45.5254 216.614 46.0762 216.614 46.7871V49.5352C216.618 50.1367 216.702 50.5918 216.866 50.9004V51H215.155ZM213.755 49.8223C214.005 49.8223 214.235 49.7676 214.446 49.6582C214.657 49.5449 214.813 49.3945 214.915 49.207V48.1172H214.282C213.434 48.1172 212.983 48.4102 212.929 48.9961L212.923 49.0957C212.923 49.3066 212.997 49.4805 213.145 49.6172C213.294 49.7539 213.497 49.8223 213.755 49.8223ZM218.149 47.7832C218.149 46.8106 218.379 46.0274 218.84 45.4336C219.305 44.8399 219.93 44.543 220.715 44.543C221.411 44.543 221.952 44.7813 222.338 45.2578L222.409 44.6602H223.944V50.7891C223.944 51.3438 223.817 51.8262 223.563 52.2363C223.313 52.6465 222.959 52.959 222.502 53.1738C222.045 53.3887 221.51 53.4961 220.897 53.4961C220.432 53.4961 219.979 53.4024 219.537 53.2149C219.096 53.0313 218.762 52.793 218.536 52.5L219.286 51.4688C219.707 51.9414 220.219 52.1777 220.821 52.1777C221.27 52.1777 221.62 52.0566 221.87 51.8145C222.12 51.5762 222.245 51.2363 222.245 50.7949V50.4551C221.854 50.8965 221.34 51.1172 220.704 51.1172C219.942 51.1172 219.325 50.8203 218.852 50.2266C218.383 49.6289 218.149 48.8379 218.149 47.8535V47.7832ZM219.842 47.9063C219.842 48.4805 219.957 48.9316 220.188 49.2598C220.418 49.584 220.735 49.7461 221.137 49.7461C221.653 49.7461 222.022 49.5527 222.245 49.166V46.5C222.018 46.1133 221.653 45.9199 221.149 45.9199C220.743 45.9199 220.422 46.0859 220.188 46.418C219.957 46.75 219.842 47.2461 219.842 47.9063ZM228.648 51.1172C227.719 51.1172 226.961 50.832 226.375 50.2617C225.793 49.6914 225.502 48.9316 225.502 47.9824V47.8184C225.502 47.1816 225.625 46.6133 225.871 46.1133C226.117 45.6094 226.465 45.2227 226.914 44.9531C227.367 44.6797 227.883 44.543 228.461 44.543C229.328 44.543 230.01 44.8164 230.506 45.3633C231.006 45.9102 231.256 46.6856 231.256 47.6895V48.3809H227.219C227.273 48.7949 227.437 49.127 227.711 49.377C227.988 49.627 228.338 49.752 228.76 49.752C229.412 49.752 229.922 49.5156 230.289 49.043L231.121 49.9746C230.867 50.334 230.523 50.6152 230.09 50.8184C229.656 51.0176 229.176 51.1172 228.648 51.1172ZM228.455 45.9141C228.119 45.9141 227.846 46.0274 227.635 46.2539C227.428 46.4805 227.295 46.8047 227.236 47.2266H229.592V47.0918C229.584 46.7168 229.482 46.4277 229.287 46.2246C229.092 46.0176 228.814 45.9141 228.455 45.9141Z" fill="#000427"/>
</g>
<defs>
<filter id="filter0_d" x="0" y="5.00001" width="258" height="93" filterUnits="userSpaceOnUse" color-interpolation-filters="sRGB">
<feFlood flood-opacity="0" result="BackgroundImageFix"/>
<feColorMatrix in="SourceAlpha" type="matrix" values="0 0 0 0 0 0 0 0 0 0 0 0 0 0 0 0 0 0 127 0" result="hardAlpha"/>
<feOffset dy="4"/>
<feGaussianBlur stdDeviation="2"/>
<feComposite in2="hardAlpha" operator="out"/>
<feColorMatrix type="matrix" values="0 0 0 0 0 0 0 0 0 0 0 0 0 0 0 0 0 0 0.1 0"/>
<feBlend mode="normal" in2="BackgroundImageFix" result="effect1_dropShadow"/>
<feBlend mode="normal" in="SourceGraphic" in2="effect1_dropShadow" result="shape"/>
</filter>
</defs>
</svg>
