<svg width="250" height="81" viewBox="0 0 250 81" fill="none" xmlns="http://www.w3.org/2000/svg">
<g id="Group 3">
<rect id="Rectangle 3" y="1" width="250" height="75" fill="white"/>
<g id="Group 1" filter="url(#filter0_d)">
<rect id="Rectangle 1" x="20" y="13" width="210" height="50" rx="8" fill="white"/>
<circle id="Ellipse 1" cx="66" cy="38" r="35" fill="white"/>
<mask id="mask0" style="mask-type:alpha" maskUnits="userSpaceOnUse" x="31" y="3" width="70" height="70">
<circle id="Ellipse 2" cx="66" cy="38" r="35" fill="white"/>
</mask>
<g mask="url(#mask0)">
</g>
</g>
<path id="-12.24%" d="M50.6147 38.2769H47.5908V37.0254H50.6147V38.2769ZM55.5669 41H54.0146V35.0166L52.1616 35.5913V34.3291L55.4004 33.1689H55.5669V41ZM63.4731 41H58.1128V39.9365L60.6426 37.2402C60.9899 36.8607 61.2459 36.5295 61.4106 36.2466C61.5789 35.9637 61.6631 35.6951 61.6631 35.4409C61.6631 35.0936 61.5754 34.8215 61.3999 34.6245C61.2244 34.424 60.9738 34.3237 60.6479 34.3237C60.297 34.3237 60.0195 34.4455 59.8154 34.689C59.6149 34.9289 59.5146 35.2458 59.5146 35.6396H57.957C57.957 35.1634 58.0698 34.7284 58.2954 34.3345C58.5246 33.9406 58.8468 33.6326 59.2622 33.4106C59.6776 33.1851 60.1484 33.0723 60.6748 33.0723C61.4805 33.0723 62.1053 33.2656 62.5493 33.6523C62.9969 34.0391 63.2207 34.5851 63.2207 35.2905C63.2207 35.6772 63.1204 36.0711 62.9199 36.4722C62.7194 36.8732 62.3757 37.3405 61.8887 37.874L60.1108 39.7485H63.4731V41ZM64.5742 40.2373C64.5742 39.9902 64.6566 39.7897 64.8213 39.6357C64.9896 39.4818 65.1991 39.4048 65.4497 39.4048C65.7039 39.4048 65.9134 39.4818 66.0781 39.6357C66.2464 39.7897 66.3306 39.9902 66.3306 40.2373C66.3306 40.4808 66.2482 40.6795 66.0835 40.8335C65.9188 40.9839 65.7075 41.0591 65.4497 41.0591C65.1955 41.0591 64.986 40.9839 64.8213 40.8335C64.6566 40.6795 64.5742 40.4808 64.5742 40.2373ZM72.9907 41H67.6304V39.9365L70.1602 37.2402C70.5075 36.8607 70.7635 36.5295 70.9282 36.2466C71.0965 35.9637 71.1807 35.6951 71.1807 35.4409C71.1807 35.0936 71.0929 34.8215 70.9175 34.6245C70.742 34.424 70.4914 34.3237 70.1655 34.3237C69.8146 34.3237 69.5371 34.4455 69.333 34.689C69.1325 34.9289 69.0322 35.2458 69.0322 35.6396H67.4746C67.4746 35.1634 67.5874 34.7284 67.813 34.3345C68.0422 33.9406 68.3644 33.6326 68.7798 33.4106C69.1951 33.1851 69.666 33.0723 70.1924 33.0723C70.998 33.0723 71.6229 33.2656 72.0669 33.6523C72.5145 34.0391 72.7383 34.5851 72.7383 35.2905C72.7383 35.6772 72.638 36.0711 72.4375 36.4722C72.237 36.8732 71.8932 37.3405 71.4062 37.874L69.6284 39.7485H72.9907V41ZM78.5391 38.0566H79.4253V39.3081H78.5391V41H76.9868V39.3081H73.7803L73.7104 38.3306L76.9707 33.1797H78.5391V38.0566ZM75.2573 38.0566H76.9868V35.2959L76.8848 35.4731L75.2573 38.0566ZM80.2417 34.6836C80.2417 34.2038 80.3975 33.8153 80.709 33.5181C81.0205 33.2173 81.4287 33.0669 81.9336 33.0669C82.4456 33.0669 82.8574 33.2155 83.1689 33.5127C83.4805 33.8063 83.6362 34.2056 83.6362 34.7104V35.0972C83.6362 35.5806 83.4805 35.9691 83.1689 36.2627C82.8574 36.5563 82.4492 36.7031 81.9443 36.7031C81.4359 36.7031 81.0241 36.5563 80.709 36.2627C80.3975 35.9655 80.2417 35.5662 80.2417 35.0649V34.6836ZM81.2729 35.0972C81.2729 35.312 81.3338 35.4857 81.4556 35.6182C81.5809 35.7471 81.7438 35.8115 81.9443 35.8115C82.1449 35.8115 82.3042 35.7453 82.4224 35.6128C82.5405 35.4803 82.5996 35.3031 82.5996 35.0811V34.6836C82.5996 34.4688 82.5405 34.2951 82.4224 34.1626C82.3042 34.0301 82.1413 33.9639 81.9336 33.9639C81.7367 33.9639 81.5773 34.0301 81.4556 34.1626C81.3338 34.2915 81.2729 34.4723 81.2729 34.7051V35.0972ZM83.98 39.0825C83.98 38.5991 84.1375 38.2106 84.4526 37.917C84.7677 37.6198 85.1759 37.4712 85.6772 37.4712C86.1857 37.4712 86.5957 37.618 86.9072 37.9116C87.2223 38.2017 87.3799 38.6027 87.3799 39.1147V39.5015C87.3799 39.9813 87.2259 40.3698 86.918 40.667C86.61 40.9606 86.2 41.1074 85.688 41.1074C85.1724 41.1074 84.7588 40.9588 84.4473 40.6616C84.1357 40.3644 83.98 39.9705 83.98 39.48V39.0825ZM85.0112 39.5015C85.0112 39.6984 85.0757 39.8667 85.2046 40.0063C85.3335 40.146 85.4946 40.2158 85.688 40.2158C86.1248 40.2158 86.3433 39.9741 86.3433 39.4907V39.0825C86.3433 38.8677 86.2824 38.6958 86.1606 38.5669C86.0389 38.4344 85.8778 38.3682 85.6772 38.3682C85.4767 38.3682 85.3156 38.4344 85.1938 38.5669C85.0721 38.6958 85.0112 38.873 85.0112 39.0986V39.5015ZM82.2505 40.4146L81.4932 40.0063L85.312 33.894L86.0693 34.3022L82.2505 40.4146Z" fill="black"/>
<path id="Price Floor Percentage" d="M109.31 38.2446V41H107.698V33.1797H110.749C111.336 33.1797 111.852 33.2871 112.296 33.502C112.743 33.7168 113.087 34.0229 113.327 34.4204C113.567 34.8143 113.687 35.2637 113.687 35.7686C113.687 36.5348 113.424 37.14 112.897 37.584C112.375 38.0244 111.65 38.2446 110.722 38.2446H109.31ZM109.31 36.9395H110.749C111.175 36.9395 111.499 36.8392 111.721 36.6387C111.947 36.4382 112.06 36.1517 112.06 35.7793C112.06 35.3962 111.947 35.0864 111.721 34.8501C111.496 34.6138 111.184 34.492 110.787 34.4849H109.31V36.9395ZM117.962 36.644C117.751 36.6154 117.565 36.6011 117.404 36.6011C116.817 36.6011 116.432 36.7998 116.249 37.1973V41H114.697V35.1885H116.163L116.206 35.8813C116.518 35.3478 116.949 35.0811 117.5 35.0811C117.672 35.0811 117.833 35.1043 117.984 35.1509L117.962 36.644ZM120.353 41H118.795V35.1885H120.353V41ZM118.704 33.6846C118.704 33.4518 118.781 33.2603 118.935 33.1099C119.092 32.9595 119.305 32.8843 119.574 32.8843C119.839 32.8843 120.05 32.9595 120.208 33.1099C120.365 33.2603 120.444 33.4518 120.444 33.6846C120.444 33.9209 120.363 34.1143 120.202 34.2646C120.045 34.415 119.835 34.4902 119.574 34.4902C119.312 34.4902 119.101 34.415 118.94 34.2646C118.782 34.1143 118.704 33.9209 118.704 33.6846ZM124.053 39.856C124.34 39.856 124.572 39.7772 124.751 39.6196C124.931 39.4621 125.024 39.2526 125.031 38.9912H126.486C126.483 39.3851 126.375 39.7467 126.164 40.0762C125.953 40.402 125.663 40.6562 125.294 40.8389C124.929 41.0179 124.524 41.1074 124.08 41.1074C123.249 41.1074 122.594 40.8442 122.114 40.3179C121.634 39.7879 121.395 39.0575 121.395 38.1265V38.0244C121.395 37.1292 121.633 36.4149 122.109 35.8813C122.585 35.3478 123.239 35.0811 124.069 35.0811C124.796 35.0811 125.378 35.2887 125.815 35.7041C126.255 36.1159 126.479 36.6655 126.486 37.353H125.031C125.024 37.0522 124.931 36.8088 124.751 36.6226C124.572 36.4328 124.336 36.3379 124.042 36.3379C123.681 36.3379 123.407 36.4704 123.221 36.7354C123.038 36.9967 122.947 37.4229 122.947 38.0137V38.1748C122.947 38.7728 123.038 39.2025 123.221 39.4639C123.403 39.7253 123.681 39.856 124.053 39.856ZM130.047 41.1074C129.195 41.1074 128.5 40.846 127.963 40.3232C127.43 39.8005 127.163 39.104 127.163 38.2339V38.0835C127.163 37.4998 127.276 36.9788 127.501 36.5205C127.727 36.0586 128.046 35.7041 128.458 35.457C128.873 35.2064 129.346 35.0811 129.875 35.0811C130.67 35.0811 131.295 35.3317 131.75 35.833C132.208 36.3343 132.438 37.0451 132.438 37.9653V38.5991H128.737C128.787 38.9787 128.937 39.283 129.188 39.5122C129.442 39.7414 129.763 39.856 130.149 39.856C130.747 39.856 131.215 39.6393 131.551 39.2061L132.314 40.0601C132.081 40.3895 131.766 40.6473 131.369 40.8335C130.971 41.0161 130.531 41.1074 130.047 41.1074ZM129.87 36.3379C129.562 36.3379 129.312 36.4417 129.118 36.6494C128.928 36.8571 128.807 37.1543 128.753 37.541H130.912V37.4175C130.905 37.0737 130.812 36.8088 130.633 36.6226C130.454 36.4328 130.2 36.3379 129.87 36.3379ZM140.87 37.8042H137.776V41H136.165V33.1797H141.257V34.4849H137.776V36.5044H140.87V37.8042ZM143.728 41H142.17V32.75H143.728V41ZM144.77 38.0405C144.77 37.464 144.881 36.9502 145.103 36.499C145.325 36.0479 145.643 35.6987 146.059 35.4517C146.478 35.2046 146.963 35.0811 147.514 35.0811C148.298 35.0811 148.938 35.321 149.432 35.8008C149.929 36.2806 150.207 36.9323 150.264 37.7559L150.275 38.1533C150.275 39.0449 150.026 39.7611 149.528 40.3018C149.031 40.8389 148.363 41.1074 147.525 41.1074C146.687 41.1074 146.017 40.8389 145.516 40.3018C145.018 39.7646 144.77 39.0342 144.77 38.1104V38.0405ZM146.322 38.1533C146.322 38.7048 146.426 39.1273 146.633 39.4209C146.841 39.7109 147.138 39.856 147.525 39.856C147.901 39.856 148.194 39.7127 148.406 39.4263C148.617 39.1362 148.723 38.6743 148.723 38.0405C148.723 37.4998 148.617 37.0809 148.406 36.7837C148.194 36.4865 147.897 36.3379 147.514 36.3379C147.135 36.3379 146.841 36.4865 146.633 36.7837C146.426 37.0773 146.322 37.5339 146.322 38.1533ZM150.989 38.0405C150.989 37.464 151.1 36.9502 151.322 36.499C151.544 36.0479 151.863 35.6987 152.278 35.4517C152.697 35.2046 153.182 35.0811 153.734 35.0811C154.518 35.0811 155.157 35.321 155.651 35.8008C156.149 36.2806 156.427 36.9323 156.484 37.7559L156.495 38.1533C156.495 39.0449 156.246 39.7611 155.748 40.3018C155.25 40.8389 154.583 41.1074 153.745 41.1074C152.907 41.1074 152.237 40.8389 151.736 40.3018C151.238 39.7646 150.989 39.0342 150.989 38.1104V38.0405ZM152.542 38.1533C152.542 38.7048 152.645 39.1273 152.853 39.4209C153.061 39.7109 153.358 39.856 153.745 39.856C154.121 39.856 154.414 39.7127 154.625 39.4263C154.837 39.1362 154.942 38.6743 154.942 38.0405C154.942 37.4998 154.837 37.0809 154.625 36.7837C154.414 36.4865 154.117 36.3379 153.734 36.3379C153.354 36.3379 153.061 36.4865 152.853 36.7837C152.645 37.0773 152.542 37.5339 152.542 38.1533ZM160.716 36.644C160.505 36.6154 160.319 36.6011 160.158 36.6011C159.57 36.6011 159.186 36.7998 159.003 37.1973V41H157.451V35.1885H158.917L158.96 35.8813C159.271 35.3478 159.703 35.0811 160.254 35.0811C160.426 35.0811 160.587 35.1043 160.738 35.1509L160.716 36.644ZM165.921 38.2446V41H164.31V33.1797H167.36C167.948 33.1797 168.463 33.2871 168.907 33.502C169.355 33.7168 169.699 34.0229 169.938 34.4204C170.178 34.8143 170.298 35.2637 170.298 35.7686C170.298 36.5348 170.035 37.14 169.509 37.584C168.986 38.0244 168.261 38.2446 167.333 38.2446H165.921ZM165.921 36.9395H167.36C167.786 36.9395 168.111 36.8392 168.333 36.6387C168.558 36.4382 168.671 36.1517 168.671 35.7793C168.671 35.3962 168.558 35.0864 168.333 34.8501C168.107 34.6138 167.795 34.492 167.398 34.4849H165.921V36.9395ZM173.908 41.1074C173.056 41.1074 172.361 40.846 171.824 40.3232C171.29 39.8005 171.023 39.104 171.023 38.2339V38.0835C171.023 37.4998 171.136 36.9788 171.362 36.5205C171.587 36.0586 171.906 35.7041 172.318 35.457C172.733 35.2064 173.206 35.0811 173.736 35.0811C174.531 35.0811 175.156 35.3317 175.61 35.833C176.069 36.3343 176.298 37.0451 176.298 37.9653V38.5991H172.597C172.647 38.9787 172.798 39.283 173.048 39.5122C173.303 39.7414 173.623 39.856 174.01 39.856C174.608 39.856 175.075 39.6393 175.412 39.2061L176.174 40.0601C175.942 40.3895 175.626 40.6473 175.229 40.8335C174.832 41.0161 174.391 41.1074 173.908 41.1074ZM173.73 36.3379C173.423 36.3379 173.172 36.4417 172.979 36.6494C172.789 36.8571 172.667 37.1543 172.613 37.541H174.772V37.4175C174.765 37.0737 174.672 36.8088 174.493 36.6226C174.314 36.4328 174.06 36.3379 173.73 36.3379ZM180.45 36.644C180.238 36.6154 180.052 36.6011 179.891 36.6011C179.304 36.6011 178.919 36.7998 178.736 37.1973V41H177.184V35.1885H178.65L178.693 35.8813C179.005 35.3478 179.436 35.0811 179.988 35.0811C180.16 35.0811 180.321 35.1043 180.471 35.1509L180.45 36.644ZM183.511 39.856C183.798 39.856 184.03 39.7772 184.209 39.6196C184.389 39.4621 184.482 39.2526 184.489 38.9912H185.944C185.941 39.3851 185.833 39.7467 185.622 40.0762C185.411 40.402 185.121 40.6562 184.752 40.8389C184.387 41.0179 183.982 41.1074 183.538 41.1074C182.707 41.1074 182.052 40.8442 181.572 40.3179C181.092 39.7879 180.853 39.0575 180.853 38.1265V38.0244C180.853 37.1292 181.091 36.4149 181.567 35.8813C182.043 35.3478 182.697 35.0811 183.527 35.0811C184.254 35.0811 184.836 35.2887 185.273 35.7041C185.713 36.1159 185.937 36.6655 185.944 37.353H184.489C184.482 37.0522 184.389 36.8088 184.209 36.6226C184.03 36.4328 183.794 36.3379 183.5 36.3379C183.139 36.3379 182.865 36.4704 182.679 36.7354C182.496 36.9967 182.405 37.4229 182.405 38.0137V38.1748C182.405 38.7728 182.496 39.2025 182.679 39.4639C182.861 39.7253 183.139 39.856 183.511 39.856ZM189.505 41.1074C188.653 41.1074 187.958 40.846 187.421 40.3232C186.888 39.8005 186.621 39.104 186.621 38.2339V38.0835C186.621 37.4998 186.734 36.9788 186.959 36.5205C187.185 36.0586 187.504 35.7041 187.916 35.457C188.331 35.2064 188.804 35.0811 189.333 35.0811C190.128 35.0811 190.753 35.3317 191.208 35.833C191.666 36.3343 191.896 37.0451 191.896 37.9653V38.5991H188.195C188.245 38.9787 188.395 39.283 188.646 39.5122C188.9 39.7414 189.221 39.856 189.607 39.856C190.205 39.856 190.673 39.6393 191.009 39.2061L191.772 40.0601C191.539 40.3895 191.224 40.6473 190.827 40.8335C190.429 41.0161 189.989 41.1074 189.505 41.1074ZM189.328 36.3379C189.02 36.3379 188.77 36.4417 188.576 36.6494C188.386 36.8571 188.265 37.1543 188.211 37.541H190.37V37.4175C190.363 37.0737 190.27 36.8088 190.091 36.6226C189.912 36.4328 189.658 36.3379 189.328 36.3379ZM194.21 35.1885L194.259 35.8599C194.674 35.3407 195.231 35.0811 195.929 35.0811C196.545 35.0811 197.003 35.2619 197.304 35.6235C197.605 35.9852 197.759 36.5259 197.766 37.2456V41H196.214V37.2832C196.214 36.9538 196.142 36.7157 195.999 36.5688C195.856 36.4185 195.618 36.3433 195.285 36.3433C194.848 36.3433 194.52 36.5295 194.302 36.9019V41H192.75V35.1885H194.21ZM200.806 33.7598V35.1885H201.8V36.3271H200.806V39.2275C200.806 39.4424 200.847 39.5964 200.93 39.6895C201.012 39.7826 201.17 39.8291 201.402 39.8291C201.574 39.8291 201.726 39.8166 201.859 39.7915V40.9678C201.555 41.0609 201.241 41.1074 200.919 41.1074C199.83 41.1074 199.275 40.5578 199.254 39.4585V36.3271H198.405V35.1885H199.254V33.7598H200.806ZM206.032 41C205.961 40.8604 205.909 40.6867 205.876 40.479C205.5 40.8979 205.012 41.1074 204.41 41.1074C203.841 41.1074 203.368 40.9427 202.992 40.6133C202.62 40.2839 202.434 39.8685 202.434 39.3672C202.434 38.7513 202.661 38.2786 203.116 37.9492C203.574 37.6198 204.235 37.4533 205.098 37.4497H205.812V37.1167C205.812 36.8481 205.742 36.6333 205.603 36.4722C205.466 36.311 205.25 36.2305 204.953 36.2305C204.691 36.2305 204.485 36.2931 204.335 36.4185C204.188 36.5438 204.115 36.7157 204.115 36.9341H202.562C202.562 36.5975 202.666 36.286 202.874 35.9995C203.082 35.7131 203.375 35.4893 203.755 35.3281C204.134 35.1634 204.561 35.0811 205.033 35.0811C205.749 35.0811 206.317 35.2619 206.736 35.6235C207.158 35.9816 207.37 36.4865 207.37 37.1382V39.6572C207.373 40.2087 207.45 40.6258 207.601 40.9087V41H206.032ZM204.749 39.9204C204.978 39.9204 205.189 39.8703 205.382 39.77C205.576 39.6662 205.719 39.5283 205.812 39.3564V38.3574H205.232C204.455 38.3574 204.041 38.626 203.991 39.1631L203.986 39.2544C203.986 39.4478 204.054 39.6071 204.19 39.7324C204.326 39.8577 204.512 39.9204 204.749 39.9204ZM208.336 38.0513C208.336 37.1597 208.548 36.4417 208.97 35.8975C209.396 35.3532 209.969 35.0811 210.689 35.0811C211.326 35.0811 211.822 35.2995 212.177 35.7363L212.241 35.1885H213.648V40.8066C213.648 41.3151 213.532 41.7573 213.299 42.1333C213.07 42.5093 212.746 42.7957 212.327 42.9927C211.908 43.1896 211.418 43.2881 210.855 43.2881C210.429 43.2881 210.014 43.2021 209.609 43.0303C209.205 42.862 208.899 42.6436 208.691 42.375L209.378 41.4297C209.765 41.863 210.234 42.0796 210.786 42.0796C211.197 42.0796 211.518 41.9686 211.747 41.7466C211.976 41.5282 212.091 41.2166 212.091 40.812V40.5005C211.733 40.9051 211.262 41.1074 210.678 41.1074C209.98 41.1074 209.414 40.8353 208.981 40.291C208.551 39.7432 208.336 39.0181 208.336 38.1157V38.0513ZM209.889 38.1641C209.889 38.6904 209.994 39.104 210.206 39.4048C210.417 39.702 210.707 39.8506 211.076 39.8506C211.548 39.8506 211.887 39.6733 212.091 39.3188V36.875C211.883 36.5205 211.548 36.3433 211.086 36.3433C210.714 36.3433 210.42 36.4954 210.206 36.7998C209.994 37.1042 209.889 37.5589 209.889 38.1641ZM217.521 41.1074C216.669 41.1074 215.974 40.846 215.437 40.3232C214.903 39.8005 214.637 39.104 214.637 38.2339V38.0835C214.637 37.4998 214.75 36.9788 214.975 36.5205C215.201 36.0586 215.519 35.7041 215.931 35.457C216.347 35.2064 216.819 35.0811 217.349 35.0811C218.144 35.0811 218.769 35.3317 219.224 35.833C219.682 36.3343 219.911 37.0451 219.911 37.9653V38.5991H216.21C216.261 38.9787 216.411 39.283 216.662 39.5122C216.916 39.7414 217.236 39.856 217.623 39.856C218.221 39.856 218.688 39.6393 219.025 39.2061L219.788 40.0601C219.555 40.3895 219.24 40.6473 218.842 40.8335C218.445 41.0161 218.004 41.1074 217.521 41.1074ZM217.344 36.3379C217.036 36.3379 216.785 36.4417 216.592 36.6494C216.402 36.8571 216.28 37.1543 216.227 37.541H218.386V37.4175C218.379 37.0737 218.285 36.8088 218.106 36.6226C217.927 36.4328 217.673 36.3379 217.344 36.3379Z" fill="black"/>
<path id="Ellipse 7" d="M60.4916 12.2794C59.9555 10.636 58.1798 9.72339 56.6011 10.4277C53.9681 11.6025 51.5131 13.153 49.3146 15.0351C47.1161 16.9172 45.2058 19.1039 43.6392 21.5244C42.7 22.9756 43.3279 24.8707 44.8691 25.6537V25.6537C46.4103 26.4367 48.2782 25.8072 49.257 24.3823C50.425 22.6822 51.8121 21.1378 53.3858 19.7905C54.9594 18.4433 56.6992 17.3108 58.5591 16.4189C60.1178 15.6714 61.0277 13.9228 60.4916 12.2794V12.2794Z" fill="#2724CA"/>
</g>
<defs>
<filter id="filter0_d" x="16" y="3" width="218" height="78" filterUnits="userSpaceOnUse" color-interpolation-filters="sRGB">
<feFlood flood-opacity="0" result="BackgroundImageFix"/>
<feColorMatrix in="SourceAlpha" type="matrix" values="0 0 0 0 0 0 0 0 0 0 0 0 0 0 0 0 0 0 127 0" result="hardAlpha"/>
<feOffset dy="4"/>
<feGaussianBlur stdDeviation="2"/>
<feComposite in2="hardAlpha" operator="out"/>
<feColorMatrix type="matrix" values="0 0 0 0 0 0 0 0 0 0 0 0 0 0 0 0 0 0 0.25 0"/>
<feBlend mode="normal" in2="BackgroundImageFix" result="effect1_dropShadow"/>
<feBlend mode="normal" in="SourceGraphic" in2="effect1_dropShadow" result="shape"/>
</filter>
</defs>
</svg>
