<svg width="250" height="81" viewBox="0 0 250 84" fill="none" xmlns="http://www.w3.org/2000/svg">
<g id="Group 2">
<rect id="Rectangle 2" y="4" width="250" height="75" fill="white"/>
<g id="Group 1" filter="url(#filter0_d)">
<rect id="Rectangle 1" x="26" y="17" width="210" height="50" rx="8" fill="white"/>
<circle id="Ellipse 1" cx="72" cy="42" r="35" fill="white"/>
<mask id="mask0" style="mask-type:alpha" maskUnits="userSpaceOnUse" x="37" y="7" width="70" height="70">
<circle id="Ellipse 2" cx="72" cy="42" r="35" fill="white"/>
</mask>
<g mask="url(#mask0)">
</g>
</g>
<path id="Ellipse 6" d="M56.9922 19.2774C55.9563 17.6916 53.8157 17.2315 52.3584 18.4415C47.7072 22.3032 44.3091 27.5004 42.6517 33.3695C40.6821 40.344 41.3039 47.7957 44.402 54.3473C47.5002 60.899 52.8653 66.1077 59.5057 69.0107C66.1461 71.9136 73.613 72.3147 80.5262 70.1396C87.4393 67.9646 93.3315 63.3605 97.1135 57.1784C100.896 50.9963 102.312 43.654 101.101 36.5087C99.8894 29.3634 96.1325 22.898 90.5244 18.3077C85.8051 14.4449 80.0434 12.1295 74.019 11.6266C72.1314 11.469 70.6398 13.0718 70.6986 14.9651V14.9651C70.7573 16.8584 72.3473 18.3193 74.2285 18.5408C78.5914 19.0545 82.7437 20.8034 86.1796 23.6158C90.5055 27.1565 93.4033 32.1436 94.3376 37.6551C95.2719 43.1667 94.1794 48.8301 91.2621 53.5987C88.3448 58.3673 83.8 61.9186 78.4675 63.5963C73.135 65.2741 67.3755 64.9647 62.2534 62.7255C57.1313 60.4863 52.9929 56.4686 50.6031 51.415C48.2134 46.3613 47.7338 40.6135 49.2531 35.2337C50.4598 30.9607 52.8627 27.1493 56.1455 24.2301C57.561 22.9714 58.0281 20.8633 56.9922 19.2774V19.2774Z" fill="#06E396"/>
<path id="90.62%" d="M57.1626 41.874C56.758 42.2715 56.2853 42.4702 55.7446 42.4702C55.0535 42.4702 54.5003 42.2339 54.085 41.7612C53.6696 41.285 53.4619 40.644 53.4619 39.8384C53.4619 39.3263 53.5729 38.8573 53.7949 38.4312C54.0205 38.0015 54.3338 37.6685 54.7349 37.4321C55.1359 37.1922 55.5871 37.0723 56.0884 37.0723C56.604 37.0723 57.0623 37.2012 57.4634 37.459C57.8644 37.7168 58.1759 38.0874 58.3979 38.5708C58.62 39.0542 58.7327 39.6074 58.7363 40.2305V40.8052C58.7363 42.1086 58.4123 43.1326 57.7642 43.8774C57.116 44.6222 56.1976 45.0197 55.0088 45.0698L54.6274 45.0752V43.7808L54.9712 43.7754C56.3211 43.7145 57.0516 43.0807 57.1626 41.874ZM56.126 41.2832C56.3766 41.2832 56.5915 41.2188 56.7705 41.0898C56.9531 40.9609 57.091 40.8052 57.1841 40.6226V39.9834C57.1841 39.457 57.0838 39.0488 56.8833 38.7588C56.6828 38.4688 56.4142 38.3237 56.0776 38.3237C55.7661 38.3237 55.5101 38.467 55.3096 38.7534C55.109 39.0363 55.0088 39.3926 55.0088 39.8223C55.0088 40.2484 55.1055 40.5993 55.2988 40.875C55.4958 41.1471 55.7715 41.2832 56.126 41.2832ZM65.1118 41.7666C65.1118 42.848 64.888 43.6751 64.4404 44.248C63.9928 44.821 63.3376 45.1074 62.4746 45.1074C61.6224 45.1074 60.9707 44.8263 60.5195 44.2642C60.0684 43.702 59.8374 42.8963 59.8267 41.8472V40.4077C59.8267 39.3156 60.0522 38.4867 60.5034 37.9209C60.9582 37.3551 61.6117 37.0723 62.4639 37.0723C63.3161 37.0723 63.9678 37.3534 64.4189 37.9155C64.8701 38.4741 65.1011 39.278 65.1118 40.3271V41.7666ZM63.5596 40.1875C63.5596 39.5394 63.4701 39.0685 63.291 38.7749C63.1156 38.4777 62.8398 38.3291 62.4639 38.3291C62.0986 38.3291 61.8283 38.4705 61.6528 38.7534C61.481 39.0327 61.3896 39.4714 61.3789 40.0693V41.9707C61.3789 42.6081 61.4648 43.0825 61.6367 43.394C61.8122 43.702 62.0915 43.856 62.4746 43.856C62.8542 43.856 63.1281 43.7074 63.2964 43.4102C63.4647 43.113 63.5524 42.6582 63.5596 42.0459V40.1875ZM66.3096 44.2373C66.3096 43.9902 66.3919 43.7897 66.5566 43.6357C66.7249 43.4818 66.9344 43.4048 67.1851 43.4048C67.4393 43.4048 67.6488 43.4818 67.8135 43.6357C67.9818 43.7897 68.0659 43.9902 68.0659 44.2373C68.0659 44.4808 67.9836 44.6795 67.8188 44.8335C67.6541 44.9839 67.4429 45.0591 67.1851 45.0591C66.9308 45.0591 66.7214 44.9839 66.5566 44.8335C66.3919 44.6795 66.3096 44.4808 66.3096 44.2373ZM73.5767 37.0991V38.3774H73.4263C72.7244 38.3882 72.1587 38.5708 71.729 38.9253C71.3029 39.2798 71.0469 39.7721 70.9609 40.4023C71.3763 39.9798 71.9009 39.7686 72.5347 39.7686C73.215 39.7686 73.7557 40.012 74.1567 40.499C74.5578 40.986 74.7583 41.627 74.7583 42.4219C74.7583 42.9303 74.6473 43.3905 74.4253 43.8022C74.2069 44.214 73.8953 44.5345 73.4907 44.7637C73.0897 44.9928 72.6349 45.1074 72.1265 45.1074C71.3029 45.1074 70.6369 44.821 70.1284 44.248C69.6235 43.6751 69.3711 42.9106 69.3711 41.9546V41.396C69.3711 40.5474 69.5304 39.799 69.8491 39.1509C70.1714 38.4992 70.6315 37.9961 71.2295 37.6416C71.8311 37.2835 72.5275 37.1027 73.3188 37.0991H73.5767ZM72.062 41.0146C71.8114 41.0146 71.584 41.0809 71.3799 41.2134C71.1758 41.3423 71.0254 41.5142 70.9287 41.729V42.2017C70.9287 42.7209 71.0308 43.1273 71.2349 43.4209C71.439 43.7109 71.7254 43.856 72.0942 43.856C72.4272 43.856 72.6958 43.7253 72.8999 43.4639C73.1076 43.1989 73.2114 42.8569 73.2114 42.438C73.2114 42.0119 73.1076 41.6681 72.8999 41.4067C72.6922 41.1453 72.4129 41.0146 72.062 41.0146ZM81.0425 45H75.6821V43.9365L78.2119 41.2402C78.5592 40.8607 78.8153 40.5295 78.98 40.2466C79.1483 39.9637 79.2324 39.6951 79.2324 39.4409C79.2324 39.0936 79.1447 38.8215 78.9692 38.6245C78.7938 38.424 78.5431 38.3237 78.2173 38.3237C77.8664 38.3237 77.5889 38.4455 77.3848 38.689C77.1842 38.9289 77.084 39.2458 77.084 39.6396H75.5264C75.5264 39.1634 75.6392 38.7284 75.8647 38.3345C76.0939 37.9406 76.4162 37.6326 76.8315 37.4106C77.2469 37.1851 77.7178 37.0723 78.2441 37.0723C79.0498 37.0723 79.6746 37.2656 80.1187 37.6523C80.5662 38.0391 80.79 38.5851 80.79 39.2905C80.79 39.6772 80.6898 40.0711 80.4893 40.4722C80.2887 40.8732 79.945 41.3405 79.458 41.874L77.6802 43.7485H81.0425V45ZM81.9771 38.6836C81.9771 38.2038 82.1328 37.8153 82.4443 37.5181C82.7559 37.2173 83.1641 37.0669 83.6689 37.0669C84.181 37.0669 84.5928 37.2155 84.9043 37.5127C85.2158 37.8063 85.3716 38.2056 85.3716 38.7104V39.0972C85.3716 39.5806 85.2158 39.9691 84.9043 40.2627C84.5928 40.5563 84.1846 40.7031 83.6797 40.7031C83.1712 40.7031 82.7594 40.5563 82.4443 40.2627C82.1328 39.9655 81.9771 39.5662 81.9771 39.0649V38.6836ZM83.0083 39.0972C83.0083 39.312 83.0692 39.4857 83.1909 39.6182C83.3162 39.7471 83.4792 39.8115 83.6797 39.8115C83.8802 39.8115 84.0396 39.7453 84.1577 39.6128C84.2759 39.4803 84.335 39.3031 84.335 39.0811V38.6836C84.335 38.4688 84.2759 38.2951 84.1577 38.1626C84.0396 38.0301 83.8766 37.9639 83.6689 37.9639C83.472 37.9639 83.3127 38.0301 83.1909 38.1626C83.0692 38.2915 83.0083 38.4723 83.0083 38.7051V39.0972ZM85.7153 43.0825C85.7153 42.5991 85.8729 42.2106 86.188 41.917C86.5031 41.6198 86.9113 41.4712 87.4126 41.4712C87.9211 41.4712 88.3311 41.618 88.6426 41.9116C88.9577 42.2017 89.1152 42.6027 89.1152 43.1147V43.5015C89.1152 43.9813 88.9613 44.3698 88.6533 44.667C88.3454 44.9606 87.9354 45.1074 87.4233 45.1074C86.9077 45.1074 86.4941 44.9588 86.1826 44.6616C85.8711 44.3644 85.7153 43.9705 85.7153 43.48V43.0825ZM86.7466 43.5015C86.7466 43.6984 86.811 43.8667 86.9399 44.0063C87.0688 44.146 87.23 44.2158 87.4233 44.2158C87.8602 44.2158 88.0786 43.9741 88.0786 43.4907V43.0825C88.0786 42.8677 88.0177 42.6958 87.896 42.5669C87.7743 42.4344 87.6131 42.3682 87.4126 42.3682C87.2121 42.3682 87.0509 42.4344 86.9292 42.5669C86.8075 42.6958 86.7466 42.873 86.7466 43.0986V43.5015ZM83.9858 44.4146L83.2285 44.0063L87.0474 37.894L87.8047 38.3022L83.9858 44.4146Z" fill="black"/>
<path id="Staked Percentage" d="M129.753 42.9482C129.753 42.6439 129.646 42.4111 129.431 42.25C129.216 42.0853 128.83 41.9134 128.271 41.7344C127.712 41.5518 127.27 41.3727 126.944 41.1973C126.056 40.7174 125.612 40.0711 125.612 39.2583C125.612 38.8358 125.73 38.4598 125.967 38.1304C126.207 37.7974 126.549 37.5378 126.993 37.3516C127.44 37.1654 127.942 37.0723 128.497 37.0723C129.055 37.0723 129.553 37.1743 129.99 37.3784C130.427 37.5789 130.765 37.8636 131.005 38.2324C131.248 38.6012 131.37 39.0202 131.37 39.4893H129.759C129.759 39.1312 129.646 38.8537 129.42 38.6567C129.195 38.4562 128.878 38.356 128.47 38.356C128.076 38.356 127.77 38.4401 127.551 38.6084C127.333 38.7731 127.224 38.9915 127.224 39.2637C127.224 39.5179 127.351 39.731 127.605 39.9028C127.863 40.0747 128.241 40.2358 128.738 40.3862C129.655 40.6619 130.323 41.0039 130.742 41.4121C131.161 41.8203 131.37 42.3288 131.37 42.9375C131.37 43.6143 131.114 44.146 130.602 44.5327C130.09 44.9159 129.401 45.1074 128.534 45.1074C127.933 45.1074 127.385 44.9982 126.891 44.7798C126.396 44.5578 126.019 44.2552 125.757 43.8721C125.5 43.4889 125.371 43.0449 125.371 42.54H126.987C126.987 43.403 127.503 43.8345 128.534 43.8345C128.917 43.8345 129.216 43.7575 129.431 43.6035C129.646 43.446 129.753 43.2275 129.753 42.9482ZM134.222 37.7598V39.1885H135.216V40.3271H134.222V43.2275C134.222 43.4424 134.263 43.5964 134.346 43.6895C134.428 43.7826 134.586 43.8291 134.818 43.8291C134.99 43.8291 135.142 43.8166 135.275 43.7915V44.9678C134.971 45.0609 134.657 45.1074 134.335 45.1074C133.246 45.1074 132.691 44.5578 132.67 43.4585V40.3271H131.821V39.1885H132.67V37.7598H134.222ZM139.448 45C139.377 44.8604 139.325 44.6867 139.292 44.479C138.917 44.8979 138.428 45.1074 137.826 45.1074C137.257 45.1074 136.784 44.9427 136.408 44.6133C136.036 44.2839 135.85 43.8685 135.85 43.3672C135.85 42.7513 136.077 42.2786 136.532 41.9492C136.99 41.6198 137.651 41.4533 138.514 41.4497H139.228V41.1167C139.228 40.8481 139.158 40.6333 139.019 40.4722C138.882 40.311 138.666 40.2305 138.369 40.2305C138.107 40.2305 137.901 40.2931 137.751 40.4185C137.604 40.5438 137.531 40.7157 137.531 40.9341H135.979C135.979 40.5975 136.082 40.286 136.29 39.9995C136.498 39.7131 136.791 39.4893 137.171 39.3281C137.55 39.1634 137.977 39.0811 138.449 39.0811C139.165 39.0811 139.733 39.2619 140.152 39.6235C140.574 39.9816 140.786 40.4865 140.786 41.1382V43.6572C140.789 44.2087 140.866 44.6258 141.017 44.9087V45H139.448ZM138.165 43.9204C138.394 43.9204 138.605 43.8703 138.798 43.77C138.992 43.6662 139.135 43.5283 139.228 43.3564V42.3574H138.648C137.871 42.3574 137.457 42.626 137.407 43.1631L137.402 43.2544C137.402 43.4478 137.47 43.6071 137.606 43.7324C137.742 43.8577 137.928 43.9204 138.165 43.9204ZM144.089 42.6689L143.53 43.2275V45H141.978V36.75H143.53V41.3208L143.831 40.9341L145.319 39.1885H147.183L145.083 41.6108L147.365 45H145.582L144.089 42.6689ZM150.421 45.1074C149.569 45.1074 148.875 44.846 148.337 44.3232C147.804 43.8005 147.537 43.104 147.537 42.2339V42.0835C147.537 41.4998 147.65 40.9788 147.875 40.5205C148.101 40.0586 148.42 39.7041 148.832 39.457C149.247 39.2064 149.72 39.0811 150.25 39.0811C151.044 39.0811 151.669 39.3317 152.124 39.833C152.582 40.3343 152.812 41.0451 152.812 41.9653V42.5991H149.111C149.161 42.9787 149.311 43.283 149.562 43.5122C149.816 43.7414 150.137 43.856 150.523 43.856C151.121 43.856 151.589 43.6393 151.925 43.2061L152.688 44.0601C152.455 44.3895 152.14 44.6473 151.743 44.8335C151.345 45.0161 150.905 45.1074 150.421 45.1074ZM150.244 40.3379C149.936 40.3379 149.686 40.4417 149.492 40.6494C149.302 40.8571 149.181 41.1543 149.127 41.541H151.286V41.4175C151.279 41.0737 151.186 40.8088 151.007 40.6226C150.828 40.4328 150.574 40.3379 150.244 40.3379ZM153.456 42.0513C153.456 41.1453 153.658 40.4238 154.063 39.8867C154.471 39.3496 155.028 39.0811 155.733 39.0811C156.299 39.0811 156.766 39.2923 157.135 39.7148V36.75H158.693V45H157.291L157.216 44.3823C156.829 44.8657 156.331 45.1074 155.723 45.1074C155.039 45.1074 154.489 44.8389 154.074 44.3018C153.662 43.7611 153.456 43.0109 153.456 42.0513ZM155.008 42.1641C155.008 42.7083 155.103 43.1255 155.293 43.4155C155.483 43.7056 155.758 43.8506 156.12 43.8506C156.6 43.8506 156.938 43.6483 157.135 43.2437V40.9502C156.942 40.5456 156.607 40.3433 156.131 40.3433C155.382 40.3433 155.008 40.9502 155.008 42.1641ZM164.349 42.2446V45H162.737V37.1797H165.788C166.375 37.1797 166.891 37.2871 167.335 37.502C167.783 37.7168 168.126 38.0229 168.366 38.4204C168.606 38.8143 168.726 39.2637 168.726 39.7686C168.726 40.5348 168.463 41.14 167.937 41.584C167.414 42.0244 166.689 42.2446 165.761 42.2446H164.349ZM164.349 40.9395H165.788C166.214 40.9395 166.538 40.8392 166.76 40.6387C166.986 40.4382 167.099 40.1517 167.099 39.7793C167.099 39.3962 166.986 39.0864 166.76 38.8501C166.535 38.6138 166.223 38.492 165.826 38.4849H164.349V40.9395ZM172.335 45.1074C171.483 45.1074 170.789 44.846 170.251 44.3232C169.718 43.8005 169.451 43.104 169.451 42.2339V42.0835C169.451 41.4998 169.564 40.9788 169.79 40.5205C170.015 40.0586 170.334 39.7041 170.746 39.457C171.161 39.2064 171.634 39.0811 172.164 39.0811C172.958 39.0811 173.583 39.3317 174.038 39.833C174.496 40.3343 174.726 41.0451 174.726 41.9653V42.5991H171.025C171.075 42.9787 171.225 43.283 171.476 43.5122C171.73 43.7414 172.051 43.856 172.438 43.856C173.035 43.856 173.503 43.6393 173.839 43.2061L174.602 44.0601C174.369 44.3895 174.054 44.6473 173.657 44.8335C173.259 45.0161 172.819 45.1074 172.335 45.1074ZM172.158 40.3379C171.85 40.3379 171.6 40.4417 171.406 40.6494C171.216 40.8571 171.095 41.1543 171.041 41.541H173.2V41.4175C173.193 41.0737 173.1 40.8088 172.921 40.6226C172.742 40.4328 172.488 40.3379 172.158 40.3379ZM178.877 40.644C178.666 40.6154 178.48 40.6011 178.319 40.6011C177.732 40.6011 177.347 40.7998 177.164 41.1973V45H175.612V39.1885H177.078L177.121 39.8813C177.433 39.3478 177.864 39.0811 178.416 39.0811C178.587 39.0811 178.749 39.1043 178.899 39.1509L178.877 40.644ZM181.939 43.856C182.225 43.856 182.458 43.7772 182.637 43.6196C182.816 43.4621 182.909 43.2526 182.917 42.9912H184.372C184.368 43.3851 184.261 43.7467 184.05 44.0762C183.839 44.402 183.549 44.6562 183.18 44.8389C182.814 45.0179 182.41 45.1074 181.966 45.1074C181.135 45.1074 180.48 44.8442 180 44.3179C179.52 43.7879 179.28 43.0575 179.28 42.1265V42.0244C179.28 41.1292 179.518 40.4149 179.995 39.8813C180.471 39.3478 181.124 39.0811 181.955 39.0811C182.682 39.0811 183.264 39.2887 183.701 39.7041C184.141 40.1159 184.365 40.6655 184.372 41.353H182.917C182.909 41.0522 182.816 40.8088 182.637 40.6226C182.458 40.4328 182.222 40.3379 181.928 40.3379C181.567 40.3379 181.293 40.4704 181.106 40.7354C180.924 40.9967 180.833 41.4229 180.833 42.0137V42.1748C180.833 42.7728 180.924 43.2025 181.106 43.4639C181.289 43.7253 181.567 43.856 181.939 43.856ZM187.933 45.1074C187.081 45.1074 186.386 44.846 185.849 44.3232C185.316 43.8005 185.049 43.104 185.049 42.2339V42.0835C185.049 41.4998 185.162 40.9788 185.387 40.5205C185.613 40.0586 185.931 39.7041 186.343 39.457C186.759 39.2064 187.231 39.0811 187.761 39.0811C188.556 39.0811 189.181 39.3317 189.636 39.833C190.094 40.3343 190.323 41.0451 190.323 41.9653V42.5991H186.623C186.673 42.9787 186.823 43.283 187.074 43.5122C187.328 43.7414 187.648 43.856 188.035 43.856C188.633 43.856 189.1 43.6393 189.437 43.2061L190.2 44.0601C189.967 44.3895 189.652 44.6473 189.254 44.8335C188.857 45.0161 188.417 45.1074 187.933 45.1074ZM187.756 40.3379C187.448 40.3379 187.197 40.4417 187.004 40.6494C186.814 40.8571 186.692 41.1543 186.639 41.541H188.798V41.4175C188.791 41.0737 188.698 40.8088 188.519 40.6226C188.34 40.4328 188.085 40.3379 187.756 40.3379ZM192.638 39.1885L192.687 39.8599C193.102 39.3407 193.659 39.0811 194.357 39.0811C194.973 39.0811 195.431 39.2619 195.732 39.6235C196.033 39.9852 196.187 40.5259 196.194 41.2456V45H194.642V41.2832C194.642 40.9538 194.57 40.7157 194.427 40.5688C194.284 40.4185 194.045 40.3433 193.712 40.3433C193.276 40.3433 192.948 40.5295 192.729 40.9019V45H191.177V39.1885H192.638ZM199.234 37.7598V39.1885H200.228V40.3271H199.234V43.2275C199.234 43.4424 199.275 43.5964 199.357 43.6895C199.44 43.7826 199.597 43.8291 199.83 43.8291C200.002 43.8291 200.154 43.8166 200.287 43.7915V44.9678C199.982 45.0609 199.669 45.1074 199.347 45.1074C198.258 45.1074 197.703 44.5578 197.682 43.4585V40.3271H196.833V39.1885H197.682V37.7598H199.234ZM204.46 45C204.388 44.8604 204.336 44.6867 204.304 44.479C203.928 44.8979 203.439 45.1074 202.838 45.1074C202.269 45.1074 201.796 44.9427 201.42 44.6133C201.048 44.2839 200.861 43.8685 200.861 43.3672C200.861 42.7513 201.089 42.2786 201.543 41.9492C202.002 41.6198 202.662 41.4533 203.525 41.4497H204.24V41.1167C204.24 40.8481 204.17 40.6333 204.03 40.4722C203.894 40.311 203.678 40.2305 203.38 40.2305C203.119 40.2305 202.913 40.2931 202.763 40.4185C202.616 40.5438 202.542 40.7157 202.542 40.9341H200.99C200.99 40.5975 201.094 40.286 201.302 39.9995C201.509 39.7131 201.803 39.4893 202.183 39.3281C202.562 39.1634 202.988 39.0811 203.461 39.0811C204.177 39.0811 204.745 39.2619 205.164 39.6235C205.586 39.9816 205.797 40.4865 205.797 41.1382V43.6572C205.801 44.2087 205.878 44.6258 206.028 44.9087V45H204.46ZM203.176 43.9204C203.405 43.9204 203.617 43.8703 203.81 43.77C204.003 43.6662 204.147 43.5283 204.24 43.3564V42.3574H203.66C202.883 42.3574 202.469 42.626 202.419 43.1631L202.414 43.2544C202.414 43.4478 202.482 43.6071 202.618 43.7324C202.754 43.8577 202.94 43.9204 203.176 43.9204ZM206.764 42.0513C206.764 41.1597 206.975 40.4417 207.398 39.8975C207.824 39.3532 208.397 39.0811 209.117 39.0811C209.754 39.0811 210.25 39.2995 210.604 39.7363L210.669 39.1885H212.076V44.8066C212.076 45.3151 211.96 45.7573 211.727 46.1333C211.498 46.5093 211.174 46.7957 210.755 46.9927C210.336 47.1896 209.845 47.2881 209.283 47.2881C208.857 47.2881 208.442 47.2021 208.037 47.0303C207.632 46.862 207.326 46.6436 207.119 46.375L207.806 45.4297C208.193 45.863 208.662 46.0796 209.213 46.0796C209.625 46.0796 209.946 45.9686 210.175 45.7466C210.404 45.5282 210.519 45.2166 210.519 44.812V44.5005C210.16 44.9051 209.69 45.1074 209.106 45.1074C208.408 45.1074 207.842 44.8353 207.409 44.291C206.979 43.7432 206.764 43.0181 206.764 42.1157V42.0513ZM208.316 42.1641C208.316 42.6904 208.422 43.104 208.633 43.4048C208.845 43.702 209.135 43.8506 209.503 43.8506C209.976 43.8506 210.314 43.6733 210.519 43.3188V40.875C210.311 40.5205 209.976 40.3433 209.514 40.3433C209.142 40.3433 208.848 40.4954 208.633 40.7998C208.422 41.1042 208.316 41.5589 208.316 42.1641ZM215.949 45.1074C215.097 45.1074 214.402 44.846 213.865 44.3232C213.331 43.8005 213.064 43.104 213.064 42.2339V42.0835C213.064 41.4998 213.177 40.9788 213.403 40.5205C213.628 40.0586 213.947 39.7041 214.359 39.457C214.774 39.2064 215.247 39.0811 215.777 39.0811C216.572 39.0811 217.197 39.3317 217.651 39.833C218.11 40.3343 218.339 41.0451 218.339 41.9653V42.5991H214.638C214.688 42.9787 214.839 43.283 215.089 43.5122C215.344 43.7414 215.664 43.856 216.051 43.856C216.649 43.856 217.116 43.6393 217.453 43.2061L218.215 44.0601C217.983 44.3895 217.667 44.6473 217.27 44.8335C216.873 45.0161 216.432 45.1074 215.949 45.1074ZM215.771 40.3379C215.464 40.3379 215.213 40.4417 215.02 40.6494C214.83 40.8571 214.708 41.1543 214.654 41.541H216.813V41.4175C216.806 41.0737 216.713 40.8088 216.534 40.6226C216.355 40.4328 216.101 40.3379 215.771 40.3379Z" fill="black"/>
</g>
<defs>
<filter id="filter0_d" x="22" y="4" width="218" height="78" filterUnits="userSpaceOnUse" color-interpolation-filters="sRGB">
<feFlood flood-opacity="0" result="BackgroundImageFix"/>
<feColorMatrix in="SourceAlpha" type="matrix" values="0 0 0 0 0 0 0 0 0 0 0 0 0 0 0 0 0 0 127 0" result="hardAlpha"/>
<feOffset dy="1"/>
<feGaussianBlur stdDeviation="2"/>
<feComposite in2="hardAlpha" operator="out"/>
<feColorMatrix type="matrix" values="0 0 0 0 0 0 0 0 0 0 0 0 0 0 0 0 0 0 0.17 0"/>
<feBlend mode="normal" in2="BackgroundImageFix" result="effect1_dropShadow"/>
<feBlend mode="normal" in="SourceGraphic" in2="effect1_dropShadow" result="shape"/>
</filter>
</defs>
</svg>
