<svg width="20" height="20" viewBox="0 0 20 20" fill="none" xmlns="http://www.w3.org/2000/svg">
<g id="clarity:align-top-line">
<path id="Vector" d="M18.8889 2.22222H1.1111C0.963755 2.22222 0.822447 2.28075 0.71826 2.38494C0.614074 2.48913 0.555542 2.63043 0.555542 2.77778C0.555542 2.92512 0.614074 3.06643 0.71826 3.17061C0.822447 3.2748 0.963755 3.33333 1.1111 3.33333H18.8889C19.0362 3.33333 19.1775 3.2748 19.2817 3.17061C19.3859 3.06643 19.4444 2.92512 19.4444 2.77778C19.4444 2.63043 19.3859 2.48913 19.2817 2.38494C19.1775 2.28075 19.0362 2.22222 18.8889 2.22222Z" fill="#2724CA"/>
<path id="Vector_2" d="M3.33331 17.2222C3.33331 17.3696 3.39184 17.5109 3.49603 17.6151C3.60022 17.7192 3.74153 17.7778 3.88887 17.7778H8.33331C8.48066 17.7778 8.62196 17.7192 8.72615 17.6151C8.83034 17.5109 8.88887 17.3696 8.88887 17.2222V4.44444H3.33331V17.2222ZM4.44442 5.55555H7.77776V16.6667H4.44442V5.55555Z" fill="#2724CA"/>
<path id="Vector_3" d="M11.1111 12.7778C11.1111 12.9251 11.1696 13.0664 11.2738 13.1706C11.378 13.2748 11.5193 13.3333 11.6666 13.3333H16.1111C16.2584 13.3333 16.3997 13.2748 16.5039 13.1706C16.6081 13.0664 16.6666 12.9251 16.6666 12.7778V4.44444H11.1111V12.7778ZM12.2222 5.55555H15.5555V12.2222H12.2222V5.55555Z" fill="#2724CA"/>
</g>
</svg>
