<svg width="440" height="447" viewBox="0 0 440 447" fill="white" xmlns="http://www.w3.org/2000/svg">
<g id="Wise Staking">
<g id="Rectangle 1" filter="url(#filter0_d)">
<rect x="5" y="5" width="420" height="427" rx="25" fill="white"/>
</g>
<path id="Wise Staking_2" d="M30.6602 43.6211L30.9883 45.8711L31.4688 43.8438L34.8438 31.9375H36.7422L40.0352 43.8438L40.5039 45.9062L40.8672 43.6094L43.5156 31.9375H45.7773L41.6406 49H39.5898L36.0742 36.5664L35.8047 35.2656L35.5352 36.5664L31.8906 49H29.8398L25.7148 31.9375H27.9648L30.6602 43.6211ZM51.2608 49H49.0928V36.3203H51.2608V49ZM48.917 32.957C48.917 32.6055 49.0225 32.3086 49.2334 32.0664C49.4522 31.8242 49.7725 31.7031 50.1944 31.7031C50.6162 31.7031 50.9366 31.8242 51.1553 32.0664C51.3741 32.3086 51.4834 32.6055 51.4834 32.957C51.4834 33.3086 51.3741 33.6016 51.1553 33.8359C50.9366 34.0703 50.6162 34.1875 50.1944 34.1875C49.7725 34.1875 49.4522 34.0703 49.2334 33.8359C49.0225 33.6016 48.917 33.3086 48.917 32.957ZM63.0841 45.6367C63.0841 45.0508 62.8614 44.5977 62.4161 44.2773C61.9786 43.9492 61.2091 43.668 60.1075 43.4336C59.0138 43.1992 58.1427 42.918 57.4942 42.5898C56.8536 42.2617 56.377 41.8711 56.0645 41.418C55.7598 40.9648 55.6075 40.4258 55.6075 39.8008C55.6075 38.7617 56.045 37.8828 56.92 37.1641C57.8028 36.4453 58.9278 36.0859 60.295 36.0859C61.7325 36.0859 62.8966 36.457 63.7872 37.1992C64.6856 37.9414 65.1348 38.8906 65.1348 40.0469H62.9552C62.9552 39.4531 62.7013 38.9414 62.1934 38.5117C61.6934 38.082 61.0606 37.8672 60.295 37.8672C59.5059 37.8672 58.8888 38.0391 58.4434 38.3828C57.9981 38.7266 57.7755 39.1758 57.7755 39.7305C57.7755 40.2539 57.9825 40.6484 58.3966 40.9141C58.8106 41.1797 59.5567 41.4336 60.6348 41.6758C61.7208 41.918 62.5997 42.207 63.2716 42.543C63.9434 42.8789 64.4395 43.2852 64.7598 43.7617C65.088 44.2305 65.252 44.8047 65.252 45.4844C65.252 46.6172 64.7989 47.5273 63.8927 48.2148C62.9864 48.8945 61.8106 49.2344 60.3653 49.2344C59.3497 49.2344 58.4513 49.0547 57.67 48.6953C56.8888 48.3359 56.2755 47.8359 55.8302 47.1953C55.3927 46.5469 55.1739 45.8477 55.1739 45.0977H57.3419C57.3809 45.8242 57.67 46.4023 58.2091 46.832C58.7559 47.2539 59.4747 47.4648 60.3653 47.4648C61.1856 47.4648 61.8419 47.3008 62.3341 46.9727C62.8341 46.6367 63.0841 46.1914 63.0841 45.6367ZM74.298 49.2344C72.5792 49.2344 71.1808 48.6719 70.1027 47.5469C69.0245 46.4141 68.4855 44.9023 68.4855 43.0117V42.6133C68.4855 41.3555 68.7238 40.2344 69.2003 39.25C69.6847 38.2578 70.3566 37.4844 71.2159 36.9297C72.0831 36.3672 73.0206 36.0859 74.0284 36.0859C75.6769 36.0859 76.9581 36.6289 77.8722 37.7148C78.7863 38.8008 79.2433 40.3555 79.2433 42.3789V43.2812H70.6534C70.6847 44.5312 71.048 45.543 71.7433 46.3164C72.4464 47.082 73.337 47.4648 74.4152 47.4648C75.1808 47.4648 75.8292 47.3086 76.3605 46.9961C76.8917 46.6836 77.3566 46.2695 77.755 45.7539L79.0792 46.7852C78.0167 48.418 76.423 49.2344 74.298 49.2344ZM74.0284 37.8672C73.1534 37.8672 72.4191 38.1875 71.8253 38.8281C71.2316 39.4609 70.8644 40.3516 70.7238 41.5H77.0753V41.3359C77.0128 40.2344 76.7159 39.3828 76.1847 38.7812C75.6534 38.1719 74.9347 37.8672 74.0284 37.8672ZM95.0031 41.3945C93.0734 40.8398 91.6672 40.1602 90.7844 39.3555C89.9094 38.543 89.4719 37.543 89.4719 36.3555C89.4719 35.0117 90.007 33.9023 91.0773 33.0273C92.1555 32.1445 93.5539 31.7031 95.2727 31.7031C96.4445 31.7031 97.4875 31.9297 98.4016 32.3828C99.3234 32.8359 100.034 33.4609 100.534 34.2578C101.042 35.0547 101.296 35.9258 101.296 36.8711H99.0344C99.0344 35.8398 98.7062 35.0312 98.05 34.4453C97.3937 33.8516 96.468 33.5547 95.2727 33.5547C94.1633 33.5547 93.2961 33.8008 92.6711 34.293C92.0539 34.7773 91.7453 35.4531 91.7453 36.3203C91.7453 37.0156 92.0383 37.6055 92.6242 38.0898C93.218 38.5664 94.2219 39.0039 95.6359 39.4023C97.0578 39.8008 98.1672 40.2422 98.9641 40.7266C99.7687 41.2031 100.362 41.7617 100.745 42.4023C101.136 43.043 101.331 43.7969 101.331 44.6641C101.331 46.0469 100.792 47.1562 99.7141 47.9922C98.6359 48.8203 97.1945 49.2344 95.3898 49.2344C94.218 49.2344 93.1242 49.0117 92.1086 48.5664C91.093 48.1133 90.3078 47.4961 89.7531 46.7148C89.2062 45.9336 88.9328 45.0469 88.9328 44.0547H91.1945C91.1945 45.0859 91.5734 45.9023 92.3312 46.5039C93.0969 47.0977 94.1164 47.3945 95.3898 47.3945C96.5773 47.3945 97.4875 47.1523 98.1203 46.668C98.7531 46.1836 99.0695 45.5234 99.0695 44.6875C99.0695 43.8516 98.7766 43.207 98.1906 42.7539C97.6047 42.293 96.5422 41.8398 95.0031 41.3945ZM107.787 33.25V36.3203H110.155V37.9961H107.787V45.8594C107.787 46.3672 107.893 46.75 108.104 47.0078C108.315 47.2578 108.674 47.3828 109.182 47.3828C109.432 47.3828 109.776 47.3359 110.213 47.2422V49C109.643 49.1562 109.088 49.2344 108.549 49.2344C107.58 49.2344 106.85 48.9414 106.358 48.3555C105.865 47.7695 105.619 46.9375 105.619 45.8594V37.9961H103.311V36.3203H105.619V33.25H107.787ZM121.486 49C121.361 48.75 121.259 48.3047 121.181 47.6641C120.173 48.7109 118.97 49.2344 117.572 49.2344C116.322 49.2344 115.294 48.8828 114.49 48.1797C113.693 47.4688 113.294 46.5703 113.294 45.4844C113.294 44.1641 113.794 43.1406 114.794 42.4141C115.802 41.6797 117.216 41.3125 119.036 41.3125H121.146V40.3164C121.146 39.5586 120.919 38.957 120.466 38.5117C120.013 38.0586 119.345 37.832 118.462 37.832C117.689 37.832 117.04 38.0273 116.517 38.418C115.993 38.8086 115.732 39.2812 115.732 39.8359H113.552C113.552 39.2031 113.775 38.5938 114.22 38.0078C114.673 37.4141 115.283 36.9453 116.048 36.6016C116.822 36.2578 117.669 36.0859 118.591 36.0859C120.052 36.0859 121.197 36.4531 122.025 37.1875C122.853 37.9141 123.283 38.918 123.314 40.1992V46.0352C123.314 47.1992 123.462 48.125 123.759 48.8125V49H121.486ZM117.888 47.3477C118.568 47.3477 119.212 47.1719 119.822 46.8203C120.431 46.4688 120.872 46.0117 121.146 45.4492V42.8477H119.447C116.79 42.8477 115.462 43.625 115.462 45.1797C115.462 45.8594 115.689 46.3906 116.142 46.7734C116.595 47.1562 117.177 47.3477 117.888 47.3477ZM131.211 43.1289L129.852 44.5469V49H127.684V31H129.852V41.8867L131.012 40.4922L134.961 36.3203H137.598L132.664 41.6172L138.172 49H135.629L131.211 43.1289ZM143.152 49H140.984V36.3203H143.152V49ZM140.808 32.957C140.808 32.6055 140.913 32.3086 141.124 32.0664C141.343 31.8242 141.663 31.7031 142.085 31.7031C142.507 31.7031 142.827 31.8242 143.046 32.0664C143.265 32.3086 143.374 32.6055 143.374 32.957C143.374 33.3086 143.265 33.6016 143.046 33.8359C142.827 34.0703 142.507 34.1875 142.085 34.1875C141.663 34.1875 141.343 34.0703 141.124 33.8359C140.913 33.6016 140.808 33.3086 140.808 32.957ZM149.643 36.3203L149.713 37.9141C150.682 36.6953 151.948 36.0859 153.51 36.0859C156.19 36.0859 157.541 37.5977 157.565 40.6211V49H155.397V40.6094C155.389 39.6953 155.178 39.0195 154.764 38.582C154.358 38.1445 153.721 37.9258 152.854 37.9258C152.151 37.9258 151.534 38.1133 151.002 38.4883C150.471 38.8633 150.057 39.3555 149.76 39.9648V49H147.592V36.3203H149.643ZM161.279 42.5547C161.279 40.5781 161.736 39.0078 162.65 37.8438C163.564 36.6719 164.775 36.0859 166.283 36.0859C167.83 36.0859 169.037 36.6328 169.904 37.7266L170.009 36.3203H171.99V48.6953C171.99 50.3359 171.501 51.6289 170.525 52.5742C169.556 53.5195 168.251 53.9922 166.611 53.9922C165.697 53.9922 164.802 53.7969 163.927 53.4062C163.052 53.0156 162.384 52.4805 161.923 51.8008L163.048 50.5C163.978 51.6484 165.115 52.2227 166.458 52.2227C167.513 52.2227 168.333 51.9258 168.919 51.332C169.513 50.7383 169.81 49.9023 169.81 48.8242V47.7344C168.943 48.7344 167.759 49.2344 166.259 49.2344C164.775 49.2344 163.572 48.6367 162.65 47.4414C161.736 46.2461 161.279 44.6172 161.279 42.5547ZM163.458 42.8008C163.458 44.2305 163.751 45.3555 164.337 46.1758C164.923 46.9883 165.744 47.3945 166.798 47.3945C168.165 47.3945 169.169 46.7734 169.81 45.5312V39.7422C169.146 38.5312 168.15 37.9258 166.822 37.9258C165.767 37.9258 164.943 38.3359 164.349 39.1562C163.755 39.9766 163.458 41.1914 163.458 42.8008Z" fill="#63667C"/>
<g id="Group 1">
<path id="Ellipse 1" d="M366 218.5C366 301.619 298.619 369 215.5 369C132.381 369 65 301.619 65 218.5C65 135.381 132.381 68 215.5 68C298.619 68 366 135.381 366 218.5ZM124.498 218.5C124.498 268.759 165.241 309.502 215.5 309.502C265.759 309.502 306.502 268.759 306.502 218.5C306.502 168.241 265.759 127.498 215.5 127.498C165.241 127.498 124.498 168.241 124.498 218.5Z" fill="#2724CA"/>
<path id="Ellipse 2" d="M215.5 97.6487C215.5 81.2742 228.9 67.7056 244.958 70.9108C270.42 75.9932 294.309 87.6146 314.168 104.857C334.027 122.099 348.887 144.12 357.493 168.616C362.92 184.065 351.367 199.238 335.155 201.536V201.536C318.942 203.835 304.337 192.156 296.981 177.527C291.681 166.987 284.343 157.49 275.293 149.632C266.242 141.774 255.81 135.843 244.63 132.074C229.113 126.844 215.5 114.023 215.5 97.6487V97.6487Z" fill="#E6E6FD"/>
<path id="22%" d="M199.711 218H176.32V213.359L187.359 201.594C188.875 199.938 189.992 198.492 190.711 197.258C191.445 196.023 191.812 194.852 191.812 193.742C191.812 192.227 191.43 191.039 190.664 190.18C189.898 189.305 188.805 188.867 187.383 188.867C185.852 188.867 184.641 189.398 183.75 190.461C182.875 191.508 182.438 192.891 182.438 194.609H175.641C175.641 192.531 176.133 190.633 177.117 188.914C178.117 187.195 179.523 185.852 181.336 184.883C183.148 183.898 185.203 183.406 187.5 183.406C191.016 183.406 193.742 184.25 195.68 185.938C197.633 187.625 198.609 190.008 198.609 193.086C198.609 194.773 198.172 196.492 197.297 198.242C196.422 199.992 194.922 202.031 192.797 204.359L185.039 212.539H199.711V218ZM229.193 218H205.803V213.359L216.842 201.594C218.358 199.938 219.475 198.492 220.193 197.258C220.928 196.023 221.295 194.852 221.295 193.742C221.295 192.227 220.912 191.039 220.147 190.18C219.381 189.305 218.287 188.867 216.865 188.867C215.334 188.867 214.123 189.398 213.233 190.461C212.358 191.508 211.92 192.891 211.92 194.609H205.123C205.123 192.531 205.615 190.633 206.6 188.914C207.6 187.195 209.006 185.852 210.818 184.883C212.631 183.898 214.686 183.406 216.983 183.406C220.498 183.406 223.225 184.25 225.162 185.938C227.115 187.625 228.092 190.008 228.092 193.086C228.092 194.773 227.654 196.492 226.779 198.242C225.904 199.992 224.404 202.031 222.279 204.359L214.522 212.539H229.193V218ZM235.192 190.438C235.192 188.344 235.871 186.648 237.231 185.352C238.59 184.039 240.371 183.383 242.574 183.383C244.809 183.383 246.606 184.031 247.965 185.328C249.324 186.609 250.004 188.352 250.004 190.555V192.242C250.004 194.352 249.324 196.047 247.965 197.328C246.606 198.609 244.824 199.25 242.621 199.25C240.403 199.25 238.606 198.609 237.231 197.328C235.871 196.031 235.192 194.289 235.192 192.102V190.438ZM239.692 192.242C239.692 193.18 239.957 193.938 240.488 194.516C241.035 195.078 241.746 195.359 242.621 195.359C243.496 195.359 244.192 195.07 244.707 194.492C245.223 193.914 245.481 193.141 245.481 192.172V190.438C245.481 189.5 245.223 188.742 244.707 188.164C244.192 187.586 243.481 187.297 242.574 187.297C241.715 187.297 241.02 187.586 240.488 188.164C239.957 188.727 239.692 189.516 239.692 190.531V192.242ZM251.504 209.633C251.504 207.523 252.192 205.828 253.567 204.547C254.942 203.25 256.723 202.602 258.91 202.602C261.129 202.602 262.918 203.242 264.278 204.523C265.653 205.789 266.34 207.539 266.34 209.773V211.461C266.34 213.555 265.668 215.25 264.324 216.547C262.981 217.828 261.192 218.469 258.957 218.469C256.707 218.469 254.903 217.82 253.543 216.523C252.184 215.227 251.504 213.508 251.504 211.367V209.633ZM256.004 211.461C256.004 212.32 256.285 213.055 256.848 213.664C257.41 214.273 258.113 214.578 258.957 214.578C260.863 214.578 261.817 213.523 261.817 211.414V209.633C261.817 208.695 261.551 207.945 261.02 207.383C260.488 206.805 259.785 206.516 258.91 206.516C258.035 206.516 257.332 206.805 256.801 207.383C256.27 207.945 256.004 208.719 256.004 209.703V211.461ZM243.957 215.445L240.653 213.664L257.317 186.992L260.621 188.773L243.957 215.445Z" fill="#63667C"/>
<path id="Filled" d="M205.842 241.771H200.779V247H198.143V234.203H206.475V236.339H200.779V239.644H205.842V241.771ZM211.238 247H208.689V237.49H211.238V247ZM208.539 235.029C208.539 234.648 208.665 234.335 208.917 234.089C209.175 233.843 209.524 233.72 209.963 233.72C210.397 233.72 210.742 233.843 211 234.089C211.258 234.335 211.387 234.648 211.387 235.029C211.387 235.416 211.255 235.732 210.991 235.979C210.734 236.225 210.391 236.348 209.963 236.348C209.535 236.348 209.19 236.225 208.926 235.979C208.668 235.732 208.539 235.416 208.539 235.029ZM216.739 247H214.19V233.5H216.739V247ZM222.24 247H219.691V233.5H222.24V247ZM229.438 247.176C228.043 247.176 226.906 246.748 226.027 245.893C225.154 245.037 224.718 243.897 224.718 242.474V242.228C224.718 241.272 224.902 240.42 225.272 239.67C225.641 238.914 226.162 238.334 226.836 237.93C227.516 237.52 228.289 237.314 229.156 237.314C230.457 237.314 231.48 237.725 232.224 238.545C232.974 239.365 233.349 240.528 233.349 242.034V243.071H227.293C227.375 243.692 227.621 244.19 228.031 244.565C228.447 244.94 228.972 245.128 229.605 245.128C230.583 245.128 231.348 244.773 231.899 244.064L233.147 245.462C232.766 246.001 232.25 246.423 231.6 246.728C230.949 247.026 230.229 247.176 229.438 247.176ZM229.148 239.371C228.644 239.371 228.234 239.541 227.917 239.881C227.607 240.221 227.407 240.707 227.319 241.34H230.853V241.138C230.841 240.575 230.689 240.142 230.396 239.837C230.103 239.526 229.687 239.371 229.148 239.371ZM235.123 242.175C235.123 240.692 235.454 239.512 236.117 238.633C236.785 237.754 237.696 237.314 238.85 237.314C239.776 237.314 240.54 237.66 241.144 238.352V233.5H243.693V247H241.399L241.276 245.989C240.643 246.78 239.829 247.176 238.832 247.176C237.713 247.176 236.814 246.736 236.134 245.857C235.46 244.973 235.123 243.745 235.123 242.175ZM237.663 242.359C237.663 243.25 237.819 243.933 238.129 244.407C238.44 244.882 238.891 245.119 239.483 245.119C240.268 245.119 240.822 244.788 241.144 244.126V240.373C240.828 239.711 240.28 239.38 239.5 239.38C238.276 239.38 237.663 240.373 237.663 242.359Z" fill="#63667C"/>
</g>
</g>
<defs>
<filter id="filter0_d" x="0" y="0" width="440" height="447" filterUnits="userSpaceOnUse" color-interpolation-filters="sRGB">
<feFlood flood-opacity="0" result="BackgroundImageFix"/>
<feColorMatrix in="SourceAlpha" type="matrix" values="0 0 0 0 0 0 0 0 0 0 0 0 0 0 0 0 0 0 127 0" result="hardAlpha"/>
<feOffset dx="5" dy="5"/>
<feGaussianBlur stdDeviation="5"/>
<feComposite in2="hardAlpha" operator="out"/>
<feColorMatrix type="matrix" values="0 0 0 0 0 0 0 0 0 0 0 0 0 0 0 0 0 0 0.1 0"/>
<feBlend mode="normal" in2="BackgroundImageFix" result="effect1_dropShadow"/>
<feBlend mode="normal" in="SourceGraphic" in2="effect1_dropShadow" result="shape"/>
</filter>
</defs>
</svg>
